<svg width="1920" height="1080" viewBox="0 0 1920 1080" fill="none" xmlns="http://www.w3.org/2000/svg">
<g clip-path="url(#clip0_119_202)">
<rect width="1920" height="1080" fill="white"/>
<path opacity="0.05" d="M-29.9124 689.869C26.0564 650.185 47.2184 597.86 33.5735 532.896C13.1061 435.449 35.4967 373.241 97.1872 368.178C158.878 363.115 217.096 433.765 232.681 518.334C248.265 602.903 334.957 605.243 369.34 588.488C403.724 571.732 423.462 537.948 422.073 501.128C419.001 419.699 307.326 354.819 309.94 279.746C312.553 204.674 404.376 177.104 461.979 244.714C464.817 248.046 467.708 251.181 470.644 254.126C529.673 313.34 607.026 295.843 642.396 251.923C703.731 175.762 675.761 94.3662 577.35 39.1376C429.196 -47.904 350.342 -143.311 340.789 -247.083" stroke="url(#paint0_linear_119_202)" stroke-width="100" stroke-linecap="round"/>
<path opacity="0.05" d="M1950.05 390C1894.08 429.684 1872.92 482.009 1886.56 546.973C1907.03 644.42 1884.64 706.627 1822.95 711.691C1761.26 716.754 1703.04 646.103 1687.45 561.535C1671.87 476.966 1585.18 474.626 1550.79 491.381C1516.41 508.136 1496.67 541.921 1498.06 578.74C1501.13 660.169 1612.81 725.05 1610.2 800.122C1607.58 875.195 1515.76 902.765 1458.16 835.154C1455.32 831.823 1452.43 828.688 1449.49 825.743C1390.46 766.528 1313.11 784.025 1277.74 827.946C1216.4 904.107 1244.37 985.503 1342.78 1040.73C1490.94 1127.77 1569.79 1223.18 1579.35 1326.95" stroke="url(#paint1_linear_119_202)" stroke-width="100" stroke-linecap="round"/>
</g>
<defs>
<linearGradient id="paint0_linear_119_202" x1="-29.9124" y1="689.869" x2="658.431" y2="-242.792" gradientUnits="userSpaceOnUse">
<stop stop-color="#4E7577"/>
<stop offset="1" stop-color="#65D5FC"/>
<stop offset="1" stop-color="#23445B"/>
</linearGradient>
<linearGradient id="paint1_linear_119_202" x1="1950.05" y1="390" x2="1261.7" y2="1322.66" gradientUnits="userSpaceOnUse">
<stop stop-color="#4E7577"/>
<stop offset="1" stop-color="#65D5FC"/>
<stop offset="1" stop-color="#23445B"/>
</linearGradient>
<clipPath id="clip0_119_202">
<rect width="1920" height="1080" fill="white"/>
</clipPath>
</defs>
</svg>
