<svg width="415" height="530" viewBox="0 0 415 530" fill="none" xmlns="http://www.w3.org/2000/svg">
<rect width="415" height="530" rx="15" fill="#72C3DD" fill-opacity="0.7"/>
<path d="M87.9144 430V412.72H101.654V430H99.1464V415.084H90.4224V430H87.9144ZM110.652 430.36C109.356 430.36 108.232 430.068 107.28 429.484C106.328 428.9 105.592 428.096 105.072 427.072C104.56 426.04 104.304 424.852 104.304 423.508C104.304 422.156 104.568 420.968 105.096 419.944C105.624 418.912 106.364 418.112 107.316 417.544C108.268 416.968 109.38 416.68 110.652 416.68C111.948 416.68 113.072 416.972 114.024 417.556C114.976 418.14 115.712 418.944 116.232 419.968C116.752 420.992 117.012 422.172 117.012 423.508C117.012 424.86 116.748 426.052 116.22 427.084C115.7 428.108 114.964 428.912 114.012 429.496C113.06 430.072 111.94 430.36 110.652 430.36ZM110.652 427.996C111.892 427.996 112.816 427.58 113.424 426.748C114.04 425.908 114.348 424.828 114.348 423.508C114.348 422.156 114.036 421.076 113.412 420.268C112.796 419.452 111.876 419.044 110.652 419.044C109.812 419.044 109.12 419.236 108.576 419.62C108.032 419.996 107.628 420.52 107.364 421.192C107.1 421.856 106.968 422.628 106.968 423.508C106.968 424.868 107.28 425.956 107.904 426.772C108.528 427.588 109.444 427.996 110.652 427.996ZM118.689 432.88V427.984C119.401 427.984 119.909 427.748 120.213 427.276C120.525 426.796 120.773 425.984 120.957 424.84C121.069 424.144 121.161 423.404 121.233 422.62C121.313 421.836 121.381 420.988 121.437 420.076C121.493 419.156 121.549 418.144 121.605 417.04H130.893V427.984H132.165V432.88H129.789V430H121.077V432.88H118.689ZM122.277 427.984H128.373V419.056H123.837C123.805 419.584 123.769 420.128 123.729 420.688C123.697 421.248 123.657 421.804 123.609 422.356C123.569 422.908 123.521 423.436 123.465 423.94C123.409 424.444 123.345 424.9 123.273 425.308C123.177 425.94 123.061 426.468 122.925 426.892C122.797 427.316 122.581 427.68 122.277 427.984ZM134.543 430L134.555 417.04H137.099V423.28L142.187 417.04H145.379L140.003 423.52L145.931 430H142.523L137.099 423.76V430H134.543ZM145.707 430V427.876C146.187 427.964 146.551 427.952 146.799 427.84C147.055 427.72 147.243 427.504 147.363 427.192C147.491 426.88 147.599 426.476 147.687 425.98C147.823 425.252 147.939 424.424 148.035 423.496C148.139 422.56 148.231 421.548 148.311 420.46C148.391 419.372 148.463 418.232 148.527 417.04H157.839V430H155.319V419.404H150.783C150.735 420.036 150.679 420.708 150.615 421.42C150.559 422.124 150.495 422.824 150.423 423.52C150.351 424.216 150.275 424.868 150.195 425.476C150.115 426.084 150.031 426.604 149.943 427.036C149.783 427.9 149.547 428.588 149.235 429.1C148.931 429.604 148.499 429.928 147.939 430.072C147.379 430.224 146.635 430.2 145.707 430ZM172.147 430.36C171.075 430.36 170.119 430.136 169.279 429.688C168.447 429.24 167.767 428.6 167.239 427.768C166.711 426.928 166.375 425.932 166.231 424.78H163.699V430H161.191V417.04H163.699V422.26H166.219C166.363 421.084 166.703 420.08 167.239 419.248C167.775 418.416 168.463 417.78 169.303 417.34C170.151 416.9 171.111 416.68 172.183 416.68C173.471 416.68 174.587 416.972 175.531 417.556C176.475 418.14 177.207 418.948 177.727 419.98C178.247 421.004 178.507 422.176 178.507 423.496C178.507 424.848 178.243 426.04 177.715 427.072C177.195 428.104 176.459 428.912 175.507 429.496C174.555 430.072 173.435 430.36 172.147 430.36ZM172.111 427.996C173.367 427.996 174.303 427.58 174.919 426.748C175.535 425.916 175.843 424.836 175.843 423.508C175.843 422.14 175.531 421.056 174.907 420.256C174.291 419.448 173.363 419.044 172.123 419.044C170.915 419.044 170.003 419.448 169.387 420.256C168.771 421.056 168.463 422.136 168.463 423.496C168.463 424.864 168.771 425.956 169.387 426.772C170.011 427.588 170.919 427.996 172.111 427.996ZM188.817 430V425.488C188.377 425.712 187.861 425.896 187.269 426.04C186.677 426.176 186.053 426.244 185.397 426.244C184.069 426.244 183.001 425.948 182.193 425.356C181.393 424.756 180.873 423.892 180.633 422.764C180.569 422.428 180.521 422.084 180.489 421.732C180.457 421.372 180.437 421.044 180.429 420.748C180.429 420.452 180.429 420.232 180.429 420.088V417.04H182.973V420.088C182.973 420.296 182.981 420.572 182.997 420.916C183.013 421.252 183.057 421.58 183.129 421.9C183.281 422.62 183.585 423.156 184.041 423.508C184.497 423.852 185.141 424.024 185.973 424.024C186.573 424.024 187.113 423.948 187.593 423.796C188.081 423.636 188.489 423.432 188.817 423.184V417.04H191.349V430H188.817ZM198.379 430.36C197.419 430.36 196.615 430.184 195.967 429.832C195.319 429.472 194.827 429 194.491 428.416C194.163 427.824 193.999 427.176 193.999 426.472C193.999 425.816 194.115 425.24 194.347 424.744C194.579 424.248 194.923 423.828 195.379 423.484C195.835 423.132 196.395 422.848 197.059 422.632C197.635 422.464 198.287 422.316 199.015 422.188C199.743 422.06 200.507 421.94 201.307 421.828C202.115 421.716 202.915 421.604 203.707 421.492L202.795 421.996C202.811 420.98 202.595 420.228 202.147 419.74C201.707 419.244 200.947 418.996 199.867 418.996C199.187 418.996 198.563 419.156 197.995 419.476C197.427 419.788 197.031 420.308 196.807 421.036L194.467 420.316C194.787 419.204 195.395 418.32 196.291 417.664C197.195 417.008 198.395 416.68 199.891 416.68C201.051 416.68 202.059 416.88 202.915 417.28C203.779 417.672 204.411 418.296 204.811 419.152C205.019 419.576 205.147 420.024 205.195 420.496C205.243 420.968 205.267 421.476 205.267 422.02V430H203.047V427.036L203.479 427.42C202.943 428.412 202.259 429.152 201.427 429.64C200.603 430.12 199.587 430.36 198.379 430.36ZM198.823 428.308C199.535 428.308 200.147 428.184 200.659 427.936C201.171 427.68 201.583 427.356 201.895 426.964C202.207 426.572 202.411 426.164 202.507 425.74C202.643 425.356 202.719 424.924 202.735 424.444C202.759 423.964 202.771 423.58 202.771 423.292L203.587 423.592C202.795 423.712 202.075 423.82 201.427 423.916C200.779 424.012 200.191 424.108 199.663 424.204C199.143 424.292 198.679 424.4 198.271 424.528C197.927 424.648 197.619 424.792 197.347 424.96C197.083 425.128 196.871 425.332 196.711 425.572C196.559 425.812 196.483 426.104 196.483 426.448C196.483 426.784 196.567 427.096 196.735 427.384C196.903 427.664 197.159 427.888 197.503 428.056C197.847 428.224 198.287 428.308 198.823 428.308ZM214.167 415.552C213.535 415.552 212.955 415.396 212.427 415.084C211.907 414.772 211.491 414.356 211.179 413.836C210.867 413.316 210.711 412.736 210.711 412.096H212.703C212.703 412.496 212.847 412.84 213.135 413.128C213.423 413.416 213.767 413.56 214.167 413.56C214.575 413.56 214.919 413.416 215.199 413.128C215.487 412.84 215.631 412.496 215.631 412.096H217.623C217.623 412.736 217.467 413.316 217.155 413.836C216.843 414.356 216.423 414.772 215.895 415.084C215.375 415.396 214.799 415.552 214.167 415.552ZM219.303 417.04V430H216.891V420.988L210.411 430H208.371V417.04H210.783V425.872L217.275 417.04H219.303ZM228.201 430.36C226.873 430.36 225.745 430.064 224.817 429.472C223.889 428.88 223.177 428.068 222.681 427.036C222.193 426.004 221.945 424.832 221.937 423.52C221.945 422.184 222.201 421.004 222.705 419.98C223.209 418.948 223.929 418.14 224.865 417.556C225.801 416.972 226.925 416.68 228.237 416.68C229.653 416.68 230.861 417.032 231.861 417.736C232.869 418.44 233.533 419.404 233.853 420.628L231.357 421.348C231.109 420.62 230.701 420.056 230.133 419.656C229.573 419.248 228.929 419.044 228.201 419.044C227.377 419.044 226.701 419.24 226.173 419.632C225.645 420.016 225.253 420.544 224.997 421.216C224.741 421.888 224.609 422.656 224.601 423.52C224.609 424.856 224.913 425.936 225.513 426.76C226.121 427.584 227.017 427.996 228.201 427.996C229.009 427.996 229.661 427.812 230.157 427.444C230.661 427.068 231.045 426.532 231.309 425.836L233.853 426.436C233.429 427.7 232.729 428.672 231.753 429.352C230.777 430.024 229.593 430.36 228.201 430.36ZM244.017 430V425.5H241.449C241.145 425.5 240.781 425.488 240.357 425.464C239.941 425.44 239.549 425.396 239.181 425.332C238.213 425.156 237.405 424.736 236.757 424.072C236.109 423.4 235.785 422.476 235.785 421.3C235.785 420.164 236.089 419.252 236.697 418.564C237.313 417.868 238.093 417.42 239.037 417.22C239.445 417.124 239.861 417.072 240.285 417.064C240.717 417.048 241.081 417.04 241.377 417.04H246.525L246.537 430H244.017ZM235.413 430L238.689 424.876H241.341L238.089 430H235.413ZM241.233 423.484H244.017V419.056H241.233C241.057 419.056 240.841 419.064 240.585 419.08C240.329 419.096 240.081 419.14 239.841 419.212C239.593 419.284 239.353 419.412 239.121 419.596C238.897 419.78 238.713 420.016 238.569 420.304C238.425 420.584 238.353 420.908 238.353 421.276C238.353 421.828 238.509 422.284 238.821 422.644C239.133 422.996 239.505 423.228 239.937 423.34C240.169 423.404 240.401 423.444 240.633 423.46C240.865 423.476 241.065 423.484 241.233 423.484ZM254.684 430L254.696 417.04H257.24V423.28L262.328 417.04H265.52L260.144 423.52L266.072 430H262.664L257.24 423.76V430H254.684ZM272.074 430V417.04H274.582V422.332H280.906V417.04H283.414V430H280.906V424.696H274.582V430H272.074ZM290.442 430.36C289.482 430.36 288.678 430.184 288.03 429.832C287.382 429.472 286.89 429 286.554 428.416C286.226 427.824 286.062 427.176 286.062 426.472C286.062 425.816 286.178 425.24 286.41 424.744C286.642 424.248 286.986 423.828 287.442 423.484C287.898 423.132 288.458 422.848 289.122 422.632C289.698 422.464 290.35 422.316 291.078 422.188C291.806 422.06 292.57 421.94 293.37 421.828C294.178 421.716 294.978 421.604 295.77 421.492L294.858 421.996C294.874 420.98 294.658 420.228 294.21 419.74C293.77 419.244 293.01 418.996 291.93 418.996C291.25 418.996 290.626 419.156 290.058 419.476C289.49 419.788 289.094 420.308 288.87 421.036L286.53 420.316C286.85 419.204 287.458 418.32 288.354 417.664C289.258 417.008 290.458 416.68 291.954 416.68C293.114 416.68 294.122 416.88 294.978 417.28C295.842 417.672 296.474 418.296 296.874 419.152C297.082 419.576 297.21 420.024 297.258 420.496C297.306 420.968 297.33 421.476 297.33 422.02V430H295.11V427.036L295.542 427.42C295.006 428.412 294.322 429.152 293.49 429.64C292.666 430.12 291.65 430.36 290.442 430.36ZM290.886 428.308C291.598 428.308 292.21 428.184 292.722 427.936C293.234 427.68 293.646 427.356 293.958 426.964C294.27 426.572 294.474 426.164 294.57 425.74C294.706 425.356 294.782 424.924 294.798 424.444C294.822 423.964 294.834 423.58 294.834 423.292L295.65 423.592C294.858 423.712 294.138 423.82 293.49 423.916C292.842 424.012 292.254 424.108 291.726 424.204C291.206 424.292 290.742 424.4 290.334 424.528C289.99 424.648 289.682 424.792 289.41 424.96C289.146 425.128 288.934 425.332 288.774 425.572C288.622 425.812 288.546 426.104 288.546 426.448C288.546 426.784 288.63 427.096 288.798 427.384C288.966 427.664 289.222 427.888 289.566 428.056C289.91 428.224 290.35 428.308 290.886 428.308ZM300.434 430V417.04H302.534L307.322 426.544L312.098 417.04H314.21V430H311.786V422.176L307.886 430H306.746L302.846 422.176V430H300.434ZM318.01 430V427.348H320.662V430H318.01Z" fill="white"/>
<path d="M112.301 463V445.72H123.857V448.432H115.193V452.152H119.441C119.601 452.152 119.813 452.16 120.077 452.176C120.349 452.184 120.597 452.2 120.821 452.224C121.789 452.336 122.597 452.644 123.245 453.148C123.901 453.652 124.393 454.288 124.721 455.056C125.057 455.824 125.225 456.664 125.225 457.576C125.225 458.488 125.061 459.332 124.733 460.108C124.405 460.876 123.913 461.512 123.257 462.016C122.609 462.512 121.797 462.816 120.821 462.928C120.597 462.952 120.353 462.972 120.089 462.988C119.825 462.996 119.609 463 119.441 463H112.301ZM115.193 460.288H119.321C119.481 460.288 119.661 460.28 119.861 460.264C120.061 460.248 120.245 460.224 120.413 460.192C121.133 460.04 121.629 459.704 121.901 459.184C122.173 458.664 122.309 458.128 122.309 457.576C122.309 457.016 122.173 456.48 121.901 455.968C121.629 455.448 121.133 455.112 120.413 454.96C120.245 454.92 120.061 454.896 119.861 454.888C119.661 454.872 119.481 454.864 119.321 454.864H115.193V460.288ZM129.333 468.76L131.829 461.908L131.877 463.924L126.225 450.04H129.237L133.245 460.312H132.477L136.377 450.04H139.269L132.045 468.76H129.333ZM139.63 465.88V460.732C140.334 460.732 140.834 460.492 141.13 460.012C141.426 459.532 141.662 458.7 141.838 457.516C141.95 456.812 142.042 456.068 142.114 455.284C142.186 454.5 142.246 453.672 142.294 452.8C142.35 451.928 142.398 451.008 142.438 450.04H152.086V460.732H153.394V465.88H150.658V463H142.354V465.88H139.63ZM143.506 460.732H149.206V452.308H144.97C144.946 452.788 144.918 453.28 144.886 453.784C144.854 454.28 144.818 454.776 144.778 455.272C144.738 455.768 144.694 456.244 144.646 456.7C144.606 457.148 144.558 457.564 144.502 457.948C144.414 458.62 144.306 459.172 144.178 459.604C144.05 460.036 143.826 460.412 143.506 460.732ZM155.789 463L155.777 450.04H158.669V454.36H160.997C161.357 454.36 161.761 454.368 162.209 454.384C162.665 454.4 163.045 454.436 163.349 454.492C164.077 454.652 164.697 454.908 165.209 455.26C165.729 455.612 166.125 456.072 166.397 456.64C166.669 457.208 166.805 457.892 166.805 458.692C166.805 459.836 166.509 460.752 165.917 461.44C165.333 462.12 164.509 462.584 163.445 462.832C163.125 462.904 162.733 462.952 162.269 462.976C161.813 462.992 161.401 463 161.033 463H155.789ZM158.669 460.732H161.285C161.461 460.732 161.657 460.724 161.873 460.708C162.089 460.692 162.297 460.656 162.497 460.6C162.857 460.504 163.173 460.288 163.445 459.952C163.725 459.608 163.865 459.188 163.865 458.692C163.865 458.172 163.725 457.744 163.445 457.408C163.165 457.072 162.821 456.852 162.413 456.748C162.229 456.7 162.037 456.668 161.837 456.652C161.637 456.636 161.453 456.628 161.285 456.628H158.669V460.732ZM174.222 463V450.04H180.114C180.538 450.04 180.934 450.064 181.302 450.112C181.67 450.16 181.986 450.22 182.25 450.292C182.874 450.476 183.426 450.836 183.906 451.372C184.386 451.9 184.626 452.632 184.626 453.568C184.626 454.12 184.538 454.576 184.362 454.936C184.186 455.288 183.954 455.584 183.666 455.824C183.53 455.936 183.39 456.032 183.246 456.112C183.102 456.192 182.958 456.256 182.814 456.304C183.126 456.352 183.422 456.444 183.702 456.58C184.142 456.796 184.51 457.116 184.806 457.54C185.11 457.964 185.262 458.56 185.262 459.328C185.262 460.2 185.05 460.936 184.626 461.536C184.21 462.128 183.598 462.54 182.79 462.772C182.494 462.852 182.154 462.912 181.77 462.952C181.386 462.984 180.994 463 180.594 463H174.222ZM177.15 460.768H180.39C180.558 460.768 180.742 460.752 180.942 460.72C181.142 460.688 181.322 460.644 181.482 460.588C181.77 460.484 181.978 460.3 182.106 460.036C182.242 459.772 182.31 459.496 182.31 459.208C182.31 458.816 182.21 458.504 182.01 458.272C181.818 458.032 181.586 457.872 181.314 457.792C181.154 457.728 180.978 457.692 180.786 457.684C180.602 457.668 180.45 457.66 180.33 457.66H177.15V460.768ZM177.15 455.392H179.55C179.798 455.392 180.038 455.38 180.27 455.356C180.51 455.324 180.71 455.272 180.87 455.2C181.134 455.096 181.326 454.92 181.446 454.672C181.574 454.424 181.638 454.148 181.638 453.844C181.638 453.524 181.566 453.236 181.422 452.98C181.286 452.716 181.066 452.54 180.762 452.452C180.562 452.372 180.318 452.328 180.03 452.32C179.75 452.312 179.57 452.308 179.49 452.308H177.15V455.392ZM198.085 463.36C196.749 463.36 195.609 463.064 194.665 462.472C193.721 461.872 192.997 461.056 192.493 460.024C191.997 458.992 191.745 457.824 191.737 456.52C191.745 455.192 192.005 454.016 192.517 452.992C193.037 451.96 193.773 451.152 194.725 450.568C195.677 449.976 196.809 449.68 198.121 449.68C199.593 449.68 200.837 450.052 201.853 450.796C202.877 451.532 203.545 452.54 203.857 453.82L200.977 454.6C200.753 453.904 200.381 453.364 199.861 452.98C199.341 452.588 198.749 452.392 198.085 452.392C197.333 452.392 196.713 452.572 196.225 452.932C195.737 453.284 195.377 453.772 195.145 454.396C194.913 455.02 194.797 455.728 194.797 456.52C194.797 457.752 195.073 458.748 195.625 459.508C196.177 460.268 196.997 460.648 198.085 460.648C198.853 460.648 199.457 460.472 199.897 460.12C200.345 459.768 200.681 459.26 200.905 458.596L203.857 459.256C203.457 460.576 202.757 461.592 201.757 462.304C200.757 463.008 199.533 463.36 198.085 463.36ZM217.494 450.04V463H214.722V454.54L208.554 463H206.238V450.04H209.01V458.284L215.202 450.04H217.494ZM226.492 463.36C225.156 463.36 224.016 463.064 223.072 462.472C222.128 461.872 221.404 461.056 220.9 460.024C220.404 458.992 220.152 457.824 220.144 456.52C220.152 455.192 220.412 454.016 220.924 452.992C221.444 451.96 222.18 451.152 223.132 450.568C224.084 449.976 225.216 449.68 226.528 449.68C228 449.68 229.244 450.052 230.26 450.796C231.284 451.532 231.952 452.54 232.264 453.82L229.384 454.6C229.16 453.904 228.788 453.364 228.268 452.98C227.748 452.588 227.156 452.392 226.492 452.392C225.74 452.392 225.12 452.572 224.632 452.932C224.144 453.284 223.784 453.772 223.552 454.396C223.32 455.02 223.204 455.728 223.204 456.52C223.204 457.752 223.48 458.748 224.032 459.508C224.584 460.268 225.404 460.648 226.492 460.648C227.26 460.648 227.864 460.472 228.304 460.12C228.752 459.768 229.088 459.26 229.312 458.596L232.264 459.256C231.864 460.576 231.164 461.592 230.164 462.304C229.164 463.008 227.94 463.36 226.492 463.36ZM237.85 463V452.608H233.518V450.04H245.074V452.608H240.742V463H237.85ZM253.24 463.36C251.928 463.36 250.776 463.076 249.784 462.508C248.792 461.94 248.016 461.152 247.456 460.144C246.904 459.136 246.628 457.976 246.628 456.664C246.628 455.248 246.9 454.02 247.444 452.98C247.988 451.932 248.744 451.12 249.712 450.544C250.68 449.968 251.8 449.68 253.072 449.68C254.416 449.68 255.556 449.996 256.492 450.628C257.436 451.252 258.136 452.136 258.592 453.28C259.048 454.424 259.22 455.772 259.108 457.324H256.24V456.268C256.232 454.86 255.984 453.832 255.496 453.184C255.008 452.536 254.24 452.212 253.192 452.212C252.008 452.212 251.128 452.58 250.552 453.316C249.976 454.044 249.688 455.112 249.688 456.52C249.688 457.832 249.976 458.848 250.552 459.568C251.128 460.288 251.968 460.648 253.072 460.648C253.784 460.648 254.396 460.492 254.908 460.18C255.428 459.86 255.828 459.4 256.108 458.8L258.964 459.664C258.468 460.832 257.7 461.74 256.66 462.388C255.628 463.036 254.488 463.36 253.24 463.36ZM248.776 457.324V455.14H257.692V457.324H248.776ZM261.41 463V450.04H263.786L268.43 458.992L273.086 450.04H275.45V463H272.69V455.86L269.006 463H267.866L264.182 455.86V463H261.41ZM284.693 463.36C283.381 463.36 282.229 463.076 281.237 462.508C280.245 461.94 279.469 461.152 278.909 460.144C278.357 459.136 278.081 457.976 278.081 456.664C278.081 455.248 278.353 454.02 278.897 452.98C279.441 451.932 280.197 451.12 281.165 450.544C282.133 449.968 283.253 449.68 284.525 449.68C285.869 449.68 287.009 449.996 287.945 450.628C288.889 451.252 289.589 452.136 290.045 453.28C290.501 454.424 290.673 455.772 290.561 457.324H287.693V456.268C287.685 454.86 287.437 453.832 286.949 453.184C286.461 452.536 285.693 452.212 284.645 452.212C283.461 452.212 282.581 452.58 282.005 453.316C281.429 454.044 281.141 455.112 281.141 456.52C281.141 457.832 281.429 458.848 282.005 459.568C282.581 460.288 283.421 460.648 284.525 460.648C285.237 460.648 285.849 460.492 286.361 460.18C286.881 459.86 287.281 459.4 287.561 458.8L290.417 459.664C289.921 460.832 289.153 461.74 288.113 462.388C287.081 463.036 285.941 463.36 284.693 463.36ZM280.229 457.324V455.14H289.145V457.324H280.229ZM293.25 463V460.036H296.214V463H293.25Z" fill="#31BAAE"/>
<g clip-path="url(#clip0_102_341)">
<path d="M174.435 193.911C175.734 203.209 177.816 214.305 174.435 219.961L174.075 222.471C174.075 222.471 175.312 227.585 171.445 238.991C167.579 250.396 165.279 257.527 160.129 265.911C154.979 274.295 147.588 272.045 139.245 269.907C130.901 267.768 112.633 254.054 110.614 247.669C108.594 241.284 109.221 216.97 109.221 216.97" fill="#F9F9F9"/>
<path d="M253.518 242.284C253.518 242.284 262.963 188.193 292.284 185.035C321.605 181.878 374.238 184.582 382.89 225.533C391.542 266.484 397.339 309.722 397.339 309.722C397.339 309.722 396.511 331.105 389.533 339.292C382.556 347.478 361.974 370.071 361.974 370.071H248.426L253.518 242.284Z" fill="white"/>
<path d="M362.38 371.017H247.545V370.034L252.62 242.17C253.007 239.94 262.523 187.342 292.196 184.147C331.349 179.95 375.965 188.552 383.824 225.382C392.388 265.898 398.221 309.212 398.291 309.647C398.291 310.706 397.357 331.635 390.256 339.897C383.155 348.159 362.873 370.488 362.679 370.714L362.38 371.017ZM249.378 369.126H361.64C364.054 366.479 382.467 346.231 388.934 338.649C395.401 331.068 396.494 309.893 396.494 309.685C396.494 309.477 390.626 266.2 382.08 225.741C372.353 179.761 305.676 184.544 292.407 186.038C264.496 189.044 254.787 240.337 254.399 242.454L249.378 369.126Z" fill="black"/>
<path d="M300.531 237.217C292.918 214.851 275.068 214.416 265.923 219.615C264.038 220.693 262.399 221.657 261.095 222.489C260.569 222.806 259.967 222.946 259.365 222.892C258.764 222.837 258.192 222.59 257.723 222.183C257.254 221.775 256.91 221.226 256.735 220.607C256.561 219.987 256.563 219.326 256.743 218.708C258.306 212.869 260.613 207.289 263.597 202.127C266.701 197.197 270.765 193.049 275.509 189.97C275.509 189.97 288.372 184.298 291.808 183.674C295.244 183.05 300.037 214.454 300.037 214.454L300.531 237.217Z" fill="#31BAAE"/>
<path d="M301.535 242.927L299.773 237.538C296.672 228.444 291.491 222.186 284.76 219.407C281.802 218.204 278.643 217.677 275.484 217.86C272.326 218.042 269.237 218.93 266.417 220.466C264.531 221.525 262.893 222.47 261.606 223.302C260.931 223.73 260.15 223.925 259.369 223.861C258.587 223.796 257.843 223.476 257.236 222.943C256.624 222.411 256.175 221.694 255.948 220.884C255.722 220.075 255.729 219.21 255.968 218.405C257.593 212.472 259.964 206.805 263.016 201.56C266.206 196.514 270.37 192.265 275.227 189.1C275.844 188.836 288.302 183.428 291.808 182.729C292.028 182.688 292.252 182.698 292.468 182.756C292.683 182.815 292.885 182.922 293.059 183.069C296.584 185.716 300.337 209.538 301.059 214.283L301.535 242.927ZM276.672 215.947C279.629 215.94 282.562 216.517 285.324 217.649C291.647 220.413 296.739 225.679 299.544 232.358L299.156 214.454C297.077 200.803 293.676 185.414 291.861 184.582C288.654 185.224 276.003 190.764 275.826 190.821C271.264 193.854 267.344 197.879 264.32 202.637C261.397 207.73 259.132 213.225 257.589 218.972C257.451 219.414 257.443 219.89 257.566 220.336C257.689 220.783 257.937 221.178 258.276 221.468C258.606 221.757 259.012 221.931 259.438 221.965C259.863 221.999 260.288 221.891 260.655 221.657C262.012 220.825 263.615 219.88 265.518 218.783C268.973 216.9 272.797 215.928 276.672 215.947Z" fill="black"/>
<path d="M276.866 130.604C276.866 130.604 259.369 124.63 254.981 138.167C253.656 141.947 253.285 146.035 253.903 150.018C254.522 154.002 256.109 157.74 258.505 160.854C258.505 160.854 248.761 165.392 249.906 171.82C250.82 175.984 252.958 179.722 256.003 182.483C254.008 185.509 252.901 189.106 252.826 192.812C252.75 196.518 253.71 200.164 255.58 203.28C262.223 214.246 293.8 210.011 293.8 210.011C293.8 210.011 303.262 199.574 312.989 188.439C322.716 177.303 276.866 130.604 276.866 130.604Z" fill="black"/>
<path d="M216.991 371.036C216.991 371.036 208.356 339.235 202.735 327.873C197.114 316.51 190.63 306.3 190.63 306.3C190.63 306.3 194.154 301.649 193.22 300.629C192.286 299.608 189.343 300.629 189.343 300.629C189.343 300.629 186.736 295.77 178.101 291.818C169.467 287.867 157.873 284.104 157.873 284.104L161.397 274.198C157.329 274.326 153.276 274.788 149.274 275.578C141.714 276.977 134.349 296.223 134.349 296.223C134.349 296.223 133.486 274.198 125.697 264.915C123.456 262.266 120.546 260.373 117.32 259.467C114.095 258.56 110.694 258.68 107.53 259.81L104.958 272.345C97.9553 271.097 90.8975 270.239 83.8126 269.773C77.5396 269.773 71.9185 270.246 71.9185 270.246C71.9185 270.246 69.9626 265.368 66.0684 266.465C62.1742 267.561 64.782 274.122 64.782 274.122C64.782 274.122 57.4342 281.079 43.3728 297.547C29.3114 314.014 17.7521 370.865 17.7521 370.865" fill="white"/>
<path d="M216.145 371.3C216.145 370.979 207.475 339.462 202.048 328.307C196.621 317.153 190.066 306.924 189.995 306.83L189.625 306.263L190.031 305.714C191.079 304.403 191.93 302.922 192.551 301.328C191.578 301.221 190.595 301.323 189.661 301.631L189.009 301.838L188.656 301.196C188.656 301.196 186.048 296.526 177.837 292.782C169.326 288.907 157.82 285.22 157.714 285.106L156.798 284.804L160.322 275.351C156.741 275.547 153.174 275.983 149.644 276.655C143.846 277.733 137.397 291.516 135.389 296.734L133.873 300.723L133.697 296.412C133.697 296.204 132.745 274.613 125.274 265.69C123.219 263.225 120.548 261.443 117.578 260.555C114.609 259.667 111.464 259.71 108.517 260.679L105.874 273.574L105.046 273.422C98.0716 272.188 91.0435 271.336 83.9887 270.87C77.8214 270.87 72.2179 271.343 72.1474 271.343H71.5307L71.284 270.719C71.284 270.549 69.522 266.616 66.4912 267.542C66.2247 267.602 65.9746 267.727 65.7606 267.907C65.5466 268.087 65.3745 268.319 65.2577 268.582C64.8516 270.376 65.032 272.265 65.7687 273.933L66.0154 274.557L65.5396 275.01C65.5396 275.01 58.0508 282.119 44.2009 298.36C30.3509 314.6 18.7388 370.714 18.6331 371.243L16.871 370.846C17.3467 368.502 28.6594 313.541 42.7031 297.112C54.6853 283.065 61.8922 275.842 63.7247 274.065C62.9389 272.08 62.8512 269.856 63.478 267.807C63.7012 267.298 64.0274 266.849 64.4328 266.493C64.8383 266.136 65.3127 265.881 65.8216 265.746C67.146 265.45 68.525 265.651 69.7279 266.315C70.9308 266.979 71.8845 268.067 72.4294 269.395C74.0505 269.263 78.7377 268.96 83.7949 268.96C90.6734 269.379 97.5259 270.193 104.323 271.399L106.808 259.224L107.266 259.053C110.595 257.88 114.168 257.761 117.559 258.71C120.949 259.659 124.013 261.636 126.384 264.404C132.411 271.588 134.384 285.806 135.001 292.593C137.556 286.921 143.195 275.88 149.098 274.784C153.168 273.967 157.293 273.499 161.432 273.384H162.718L159 283.613C161.908 284.596 171.212 287.791 178.383 291.062C182.784 292.811 186.675 295.779 189.661 299.664C190.824 299.381 192.868 299.078 193.802 300.08C194.136 300.439 195.141 301.536 191.669 306.357C193.114 308.683 198.718 317.701 203.475 327.456C209.061 338.8 217.431 369.485 217.783 370.79L216.145 371.3Z" fill="black"/>
<path d="M58.3329 329.272C60.675 331.462 62.4411 334.274 63.4552 337.425C64.4693 340.576 64.6958 343.958 64.1124 347.233C64.1124 347.233 60.5883 345.607 56.3417 350.711C52.0951 355.816 48.6414 371.036 48.6414 371.036H16.3777C15.7258 368.729 13.206 351.751 18.7037 342.676C23.216 335.253 28.9904 328.807 35.7253 323.675" fill="white"/>
<path d="M49.3462 371.981H15.7257L15.5319 371.319C14.9328 369.164 12.1486 351.732 17.9811 342.241C22.5497 334.7 28.4093 328.157 35.2496 322.957L36.201 324.545C29.5825 329.624 23.9004 335.977 19.4436 343.281C14.4746 351.373 16.3248 366.366 17.0649 370.091H47.9717C48.7118 366.952 51.7779 354.72 55.7073 350.088C59.02 346.174 61.9627 345.89 63.4429 346.098C63.7992 343.116 63.4665 340.085 62.4739 337.272C61.4814 334.46 59.8596 331.953 57.7513 329.971L58.9495 328.591C61.4253 330.887 63.2891 333.847 64.3509 337.169C65.4127 340.49 65.6343 344.054 64.9934 347.497L64.7115 348.556L63.8305 348.027C63.7247 348.027 60.8525 346.798 57.064 351.279C52.9408 356.138 49.6104 371.036 49.5752 371.187L49.3462 371.981Z" fill="black"/>
<path d="M212.004 364.173H73.4163V369.845H212.004V364.173Z" fill="black"/>
<path d="M58.3328 337.118C58.3328 337.118 53.3461 334.849 44.7119 331.843C36.0777 328.837 41.2934 325.15 43.0731 323.751" fill="white"/>
<path d="M57.9804 337.988C57.9804 337.988 52.9233 335.7 44.4476 332.732C41.0644 331.56 39.3024 330.123 39.038 328.327C38.7032 325.982 41.0821 324.13 42.3684 323.146L42.5622 322.995L43.5842 324.527L43.3904 324.678C42.4918 325.377 40.6063 326.833 40.7825 328.024C40.7825 328.591 41.5226 329.726 44.9939 330.936C53.5576 333.923 58.6324 336.23 58.6676 336.248L57.9804 337.988Z" fill="black"/>
<path d="M64.1124 347.233C64.1124 347.233 73.5219 341.561 76.1121 341.258C78.7024 340.956 87.5833 343.641 93.4687 349.539C97.1085 353.483 99.3732 358.65 99.8827 364.173H93.1515L78.0681 367.009L78.7201 368.408L73.1167 369.391L66.7203 364.173L59.2315 370.714L42.1393 371.074C42.1393 371.074 44.9939 357.971 52.1655 351.071C55.8757 347.36 59.939 344.077 64.2886 341.277L64.1124 347.233Z" fill="#31BAAE"/>
<path d="M41.0116 372.019L41.276 370.828C41.3993 370.279 44.2714 357.348 51.5841 350.333C55.351 346.564 59.4865 343.242 63.9186 340.426L65.2578 339.632L65.0992 345.607C67.8833 343.962 73.9097 340.559 76.077 340.332C79.0197 340.01 88.0239 342.752 94.1207 348.84C97.9376 352.944 100.305 358.344 100.817 364.116V365.118H93.1516L79.3721 367.727L80.0417 369.126L72.8877 370.393L66.738 365.383L59.5487 371.603L41.0116 372.019ZM63.3548 342.96C59.6156 345.573 56.0798 348.507 52.7823 351.732C47.1436 357.158 44.2186 366.725 43.3199 370.071L58.9496 369.731L66.738 362.982L73.381 368.389L77.4338 367.689L76.7818 366.29L93.0282 363.246H98.9135C98.2726 358.328 96.1646 353.764 92.9049 350.239C87.1605 344.567 78.5087 341.977 76.2356 342.222C74.4735 342.412 68.3062 345.834 64.5882 348.083L63.2314 348.915L63.3548 342.96Z" fill="black"/>
<path d="M84.3939 350.145C86.5982 351.267 88.4392 353.071 89.6802 355.325C91.2308 358.671 93.0986 364.173 93.0986 364.173" fill="#31BAAE"/>
<path d="M92.3233 364.494C92.3233 364.494 90.4555 358.992 88.9577 355.74C87.7776 353.678 86.0632 352.029 84.0239 350.995L84.7463 349.274C87.171 350.482 89.1894 352.463 90.526 354.946C92.0767 358.293 93.8916 363.662 94.0502 363.889L92.3233 364.494Z" fill="black"/>
<path d="M76.6056 351.411C79.8493 353.038 82.5627 355.672 84.3939 358.974C86.8256 364.078 86.4908 365.572 86.4908 365.572" fill="#31BAAE"/>
<path d="M87.3542 365.893L85.5921 365.458C85.2994 363.344 84.6036 361.316 83.5482 359.503C81.8277 356.361 79.2681 353.845 76.2003 352.281L76.9051 350.56C80.3519 352.279 83.2198 355.099 85.1164 358.633C87.5657 363.662 87.4423 365.458 87.3542 365.893Z" fill="black"/>
<path d="M69.6277 355.325C72.0065 356.743 78.0681 367.009 78.0681 367.009L69.6277 355.325Z" fill="#31BAAE"/>
<path d="M77.328 367.519C75.0197 363.625 70.7907 357.102 69.2048 356.176L70.0682 354.531C72.5704 356.043 78.1738 365.477 78.8786 366.536L77.328 367.519Z" fill="black"/>
<path d="M64.13 347.233L81.0107 327.589L84.3939 298.379" fill="white"/>
<path d="M64.782 347.876L63.478 346.59L80.1825 327.173L83.5129 298.266L85.2749 298.492L81.8565 328.005L64.782 347.876Z" fill="black"/>
<path d="M267.738 175.28C255.985 160.155 258.928 143.744 279.826 137.467C291.791 133.875 301.835 141.589 305.658 158.529C309.482 175.469 303.279 193.449 292.178 195.547C282.117 197.438 269.06 188.155 267.738 175.299V175.28Z" fill="white"/>
<path d="M272.919 166.715C273.798 168.343 274.104 170.254 273.782 172.103C273.782 172.274 273.782 172.463 273.676 172.652C273.571 172.841 273.941 172.368 273.765 172.519C273.393 172.862 273.088 173.28 272.866 173.748C272.662 174.067 272.523 174.429 272.461 174.81C272.398 175.191 272.412 175.582 272.502 175.957C272.593 176.331 272.757 176.681 272.984 176.981C273.211 177.282 273.495 177.527 273.818 177.7C275.124 178.225 276.544 178.33 277.906 178.002C278.891 177.854 279.863 177.62 280.813 177.303C281.624 177.038 281.271 175.658 280.46 175.941C279.749 176.177 279.026 176.366 278.293 176.509C277.096 176.83 275.843 176.83 274.646 176.509C274.409 176.44 274.195 176.301 274.029 176.107C273.864 175.912 273.754 175.671 273.712 175.412C273.748 174.88 273.946 174.375 274.276 173.975C274.526 173.727 274.74 173.44 274.91 173.124C275.014 172.799 275.085 172.464 275.122 172.122C275.433 169.999 275.06 167.825 274.064 165.959C273.964 165.822 273.822 165.729 273.663 165.697C273.504 165.664 273.339 165.695 273.2 165.782C273.06 165.87 272.955 166.009 272.903 166.173C272.851 166.338 272.857 166.517 272.919 166.677V166.715Z" fill="black"/>
<path d="M286.628 160.855C285.56 160.779 284.489 160.779 283.421 160.855C281.743 160.799 280.09 161.293 278.681 162.273C278.557 162.405 278.487 162.586 278.487 162.774C278.487 162.961 278.557 163.142 278.681 163.275C278.805 163.407 278.973 163.482 279.148 163.482C279.323 163.482 279.491 163.407 279.615 163.275L279.95 163.048L280.284 162.878C280.637 162.745 280.972 162.651 281.324 162.556C282.098 162.398 282.881 162.297 283.668 162.254C284.654 162.197 285.642 162.197 286.628 162.254C287.474 162.254 287.474 160.892 286.628 160.836V160.855Z" fill="black"/>
<path d="M271.157 167.566C270.664 167.529 270.169 167.529 269.677 167.566C268.69 167.645 267.724 167.907 266.822 168.342C266.32 168.597 265.894 168.996 265.589 169.495C265.545 169.574 265.516 169.662 265.504 169.754C265.491 169.845 265.496 169.938 265.517 170.028C265.538 170.117 265.576 170.201 265.627 170.275C265.679 170.349 265.744 170.412 265.818 170.459C265.892 170.506 265.974 170.537 266.059 170.55C266.144 170.564 266.231 170.559 266.314 170.536C266.398 170.513 266.477 170.473 266.545 170.417C266.614 170.362 266.673 170.293 266.716 170.213V170.119C266.716 170.213 266.716 170.213 266.716 170.119L266.84 169.967L266.981 169.835C267.081 169.742 267.194 169.666 267.316 169.608H267.509C268.032 169.393 268.576 169.241 269.131 169.154H269.324C269.131 169.154 269.324 169.154 269.324 169.154H269.712H270.329C270.54 169.154 270.734 169.154 270.946 169.154C271.12 169.15 271.286 169.072 271.408 168.937C271.529 168.803 271.598 168.623 271.598 168.436C271.593 168.252 271.523 168.077 271.402 167.947C271.28 167.817 271.117 167.741 270.946 167.736L271.157 167.566Z" fill="black"/>
<path d="M283.078 168.629C283.582 168.468 283.711 167.332 283.366 166.091C283.022 164.85 282.335 163.975 281.831 164.135C281.327 164.296 281.198 165.433 281.543 166.674C281.887 167.915 282.574 168.79 283.078 168.629Z" fill="black"/>
<path d="M270.166 175.015C270.615 174.722 270.471 173.588 269.844 172.482C269.217 171.376 268.345 170.717 267.896 171.01C267.447 171.303 267.591 172.437 268.218 173.543C268.845 174.649 269.718 175.309 270.166 175.015Z" fill="black"/>
<path d="M279.914 183.353C281.808 182.257 283.611 180.992 285.306 179.572L286.152 178.853L286.469 178.57C286.469 178.57 286.734 178.381 286.769 178.267C286.804 178.154 286.769 178.267 286.61 178.267C286.452 178.267 286.469 178.097 286.452 178.097C286.434 178.097 286.452 178.097 286.452 178.097C286.452 178.097 286.452 178.494 286.452 178.702C286.478 179.155 286.478 179.61 286.452 180.063C286.434 181.171 286.088 182.243 285.465 183.126C285.347 183.262 285.282 183.441 285.282 183.627C285.282 183.813 285.347 183.992 285.465 184.128C285.526 184.195 285.598 184.248 285.679 184.284C285.759 184.321 285.845 184.339 285.932 184.339C286.019 184.339 286.105 184.321 286.185 184.284C286.265 184.248 286.338 184.195 286.399 184.128C287.147 183.14 287.607 181.936 287.72 180.668C287.755 180.108 287.755 179.546 287.72 178.986C287.746 178.466 287.68 177.947 287.526 177.454C287.456 177.304 287.356 177.171 287.234 177.066C287.112 176.96 286.97 176.884 286.817 176.843C286.665 176.802 286.507 176.796 286.352 176.826C286.198 176.857 286.052 176.923 285.923 177.019C285.659 177.231 285.406 177.458 285.165 177.7C284.498 178.316 283.798 178.891 283.069 179.42C281.801 180.348 280.483 181.194 279.122 181.954C278.364 182.389 279.122 183.618 279.791 183.183L279.914 183.353Z" fill="black"/>
<path d="M287.386 156.6C283.756 155.579 278.928 155.655 276.161 158.718C275.562 159.38 276.496 160.382 277.095 159.72C277.943 158.914 278.935 158.301 280.01 157.917C281.085 157.534 282.221 157.388 283.35 157.489C284.591 157.484 285.828 157.643 287.033 157.962C287.201 158.012 287.381 157.988 287.533 157.896C287.685 157.804 287.797 157.651 287.844 157.47C287.89 157.29 287.868 157.096 287.782 156.933C287.696 156.77 287.554 156.65 287.386 156.6Z" fill="black"/>
<path d="M270.752 162.027C269.636 161.662 268.461 161.555 267.305 161.711C266.148 161.868 265.034 162.284 264.038 162.934C263.222 163.613 262.61 164.533 262.276 165.581C262.229 165.762 262.251 165.955 262.337 166.118C262.423 166.281 262.566 166.401 262.734 166.451C262.902 166.501 263.082 166.477 263.234 166.385C263.386 166.293 263.498 166.14 263.545 165.959C263.801 165.283 264.211 164.687 264.737 164.224C265.263 163.762 265.89 163.448 266.558 163.312C267.136 163.17 267.728 163.107 268.32 163.123C268.596 163.105 268.872 163.105 269.148 163.123H269.5H269.712C269.95 163.156 270.186 163.206 270.417 163.275C270.581 163.306 270.751 163.271 270.892 163.175C271.033 163.079 271.136 162.93 271.181 162.757C271.225 162.584 271.207 162.4 271.131 162.24C271.055 162.081 270.926 161.957 270.769 161.894L270.752 162.027Z" fill="black"/>
<path d="M299.949 234.929C299.949 234.929 297.853 221.109 309.729 214.548C321.605 207.988 338.415 205.946 345.252 207.288C352.089 208.63 358.397 194.432 354.539 186.283C350.68 178.134 336.918 165.127 336.918 165.127L298.786 184.468C298.786 184.468 293.764 214.359 299.949 234.929Z" fill="#31BAAE"/>
<path d="M299.157 235.213C292.936 214.662 297.905 184.601 297.958 184.298L298.046 183.826L337.094 164.012L337.534 164.428C338.098 164.957 351.49 177.662 355.384 185.867C358.045 191.539 356.142 199.385 352.988 203.923C350.715 207.175 347.878 208.744 345.147 208.215C338.38 206.891 321.782 208.971 310.187 215.38C299.051 221.544 300.778 234.286 300.866 234.778L299.157 235.213ZM299.615 185.111C299.068 188.609 295.949 210.465 299.333 228.426C299.786 225.287 300.934 222.311 302.682 219.748C304.43 217.185 306.726 215.11 309.376 213.697C321.306 207.099 338.433 204.982 345.464 206.362C347.49 206.759 349.728 205.454 351.578 202.789C354.451 198.648 356.072 191.445 353.799 186.718C350.451 179.628 339.156 168.53 336.795 166.262L299.615 185.111Z" fill="black"/>
<path d="M262.135 150.985C263.668 153.16 282.822 155.183 292.584 149.87C292.584 149.87 288.672 162.745 300.848 171.272C300.848 171.272 295.562 184.204 302.064 194.716C304.672 198.97 327.843 210.03 334.61 202.675C341.376 195.321 350.362 191.161 350.75 178.097C351.138 165.033 346.239 149.435 338.415 143.593C330.592 137.751 312.83 138.299 308.601 132.363C308.601 132.363 308.601 125.575 298.522 123.401C280.584 119.506 281.395 129.451 281.395 129.451C273.765 128.525 254.84 140.738 262.135 150.985Z" fill="black"/>
<path d="M264.584 369.618L263.844 338.082C263.844 337.78 263.316 307.832 263.104 303.427C262.893 299.022 263.791 259.413 263.862 256.256L260.214 242.36L261.976 241.849L265.712 256.029V256.161C265.712 256.596 264.743 298.908 264.937 303.427C265.131 307.946 265.677 337.836 265.677 338.139L266.417 369.675L264.584 369.618Z" fill="black"/>
<path d="M308.918 295.089H308.249C292.601 294.768 269.483 290.722 269.236 290.684L269.518 288.793C269.747 288.793 292.76 292.858 308.284 293.18C323.808 293.501 350.01 282.327 350.274 282.214L350.926 283.972C349.851 284.369 324.724 295.089 308.918 295.089Z" fill="black"/>
<path d="M320.16 279.038C318.291 279.075 316.424 278.891 314.592 278.489L314.046 278.357L307.315 244.439L308.566 244.628C313.024 245.166 317.529 245.052 321.958 244.288C327.528 243.046 333.01 241.385 338.363 239.316L339.332 238.938L345.076 271.91L344.459 272.213C339.231 274.846 333.747 276.85 328.107 278.187C325.489 278.74 322.828 279.025 320.16 279.038ZM315.544 276.769C319.613 277.39 323.753 277.236 327.773 276.315C333.045 275.072 338.178 273.227 343.085 270.814L337.975 241.471C332.845 243.428 327.593 244.995 322.257 246.16C318.064 246.892 313.801 247.051 309.57 246.632L315.544 276.769Z" fill="black"/>
<path d="M278.417 281.647C273.906 281.647 273.712 280.872 273.589 280.361L268.302 250.981C268.245 250.64 268.267 250.29 268.365 249.96C268.463 249.631 268.635 249.332 268.866 249.09C269.101 248.86 269.382 248.692 269.688 248.6C269.994 248.508 270.317 248.495 270.628 248.561C274.12 249.452 277.7 249.877 281.289 249.828C285.942 249.411 290.51 248.244 294.839 246.368L295.914 245.895L299.72 278.263L298.962 278.471C293.374 279.986 287.682 281.023 281.941 281.571C280.567 281.609 279.368 281.647 278.417 281.647ZM275.227 279.492C277.42 279.857 279.648 279.908 281.853 279.643C287.201 279.144 292.504 278.189 297.711 276.788L294.381 248.523C290.18 250.263 285.762 251.327 281.271 251.68C277.529 251.744 273.794 251.305 270.153 250.376C270.125 250.362 270.095 250.355 270.065 250.355C270.034 250.355 270.004 250.362 269.976 250.376C269.961 250.408 269.953 250.444 269.953 250.48C269.953 250.516 269.961 250.552 269.976 250.584L275.227 279.492Z" fill="black"/>
<path d="M318.716 263.799L311.191 261.474L311.667 259.583L318.909 261.814C326.786 261.323 335.49 260.207 336.53 259.167C338.292 257.277 340.583 254.573 340.6 254.554L341.94 255.783C341.94 255.897 339.649 258.638 337.728 260.547C335.808 262.457 322.786 263.459 318.856 263.705L318.716 263.799Z" fill="black"/>
<path d="M280.126 266.503C276.972 266.503 274.47 266.371 274.276 266.371H273.976L270.452 263.251L271.562 261.776L274.734 264.518C279.488 264.756 284.252 264.629 288.989 264.14C293.941 263.402 295.632 257.371 295.65 257.314L297.412 257.825C297.412 258.127 295.403 265.104 289.289 266.011C286.247 266.386 283.187 266.55 280.126 266.503Z" fill="black"/>
<path d="M286.54 371.603L285.13 370.469C289.009 364.977 293.441 359.962 298.346 355.514L299.421 357.026C294.647 361.37 290.328 366.257 286.54 371.603Z" fill="black"/>
<path d="M322.856 354.682C322.856 354.682 314.046 353.642 303.738 353.642V351.751C314.064 351.751 322.962 352.791 323.121 352.791L322.856 354.682Z" fill="black"/>
<path d="M295.844 370.714L294.557 369.41C294.557 369.41 300.689 362.603 304.02 359.011L305.271 360.354C301.94 363.927 295.896 370.714 295.844 370.714Z" fill="black"/>
<path d="M313.115 362.36L307.698 369.354L309.053 370.562L314.47 363.569L313.115 362.36Z" fill="black"/>
<path d="M281.606 370.45L280.003 369.694C282.536 364.485 285.982 359.85 290.152 356.043C294.98 351.922 303.333 351.751 303.685 351.751V353.642C303.597 353.642 295.562 353.812 291.209 357.537C287.282 361.157 284.024 365.538 281.606 370.45Z" fill="black"/>
<path d="M83.6715 295.089C83.6715 295.089 77.2223 285.125 73.3281 283.348C69.8323 282.022 66.2275 281.054 62.5618 280.456L46.4916 298.473C51.7499 299.966 56.5542 302.905 60.4297 307C63.0097 309.936 65.7643 312.689 68.6762 315.243L83.6715 295.089Z" fill="#31BAAE"/>
<path d="M64.2182 316.51L63.5311 315.848C59.7776 312.288 55.823 308.979 51.6898 305.941C45.5049 301.461 40.9588 302.16 40.9059 302.16L40.5887 300.269C40.8002 300.269 45.875 299.305 52.6766 304.278C56.6184 307.194 60.4013 310.35 64.0068 313.731L83.3896 287.602C82.3148 285.333 77.0815 276.258 62.6677 277.412L62.5443 275.521C79.9889 274.198 85.187 287.243 85.2399 287.375L85.4337 287.886L64.2182 316.51Z" fill="black"/>
<path d="M390.573 297.755C390.573 297.755 383.824 228.842 377.974 217.989C372.124 207.137 360.353 203.772 351.878 212.941C343.402 222.111 359.331 254.705 361.005 268.091C362.679 281.477 363.895 299.589 363.895 299.589C362.393 300.326 361.166 301.586 360.414 303.164C359.663 304.743 359.43 306.548 359.754 308.286C360.882 314.563 362.45 316.718 362.45 316.718L332.266 348.859C336.218 352.467 339.634 356.7 342.398 361.413C345.587 367.689 347.155 368.181 347.155 368.181C347.155 368.181 375.049 354.171 384.282 333.167C393.516 312.162 390.573 297.755 390.573 297.755Z" fill="#D0D5DD"/>
<path d="M337.834 370.506C330.68 356.005 322.891 354.682 322.803 354.663L321.041 354.417L322.24 353.075L355.719 315.943C354.356 313.676 353.317 311.203 352.635 308.607C351.984 305.298 355.561 303.294 357.094 302.595C356.547 297.282 353.164 264.215 353.199 247.332C353.199 228.425 365.217 222.186 365.728 221.94L366.468 223.642C366.01 223.888 354.997 229.749 354.961 247.332C354.961 265.519 358.891 302.727 358.926 303.105V303.861L358.239 304.107C358.239 304.107 353.781 305.809 354.274 308.21C355.008 310.808 356.089 313.279 357.481 315.546L357.886 316.169L324.407 353.245C327.226 354.322 333.429 357.915 339.208 369.618L337.834 370.506Z" fill="black"/>
<path d="M385.604 321.653C385.498 321.539 373.78 311.311 368.371 309.704C365.283 308.849 362.293 307.632 359.455 306.074L358.168 305.299L359.402 304.448C359.825 304.164 369.745 297.528 376.688 301.782L375.825 303.408C371.19 300.591 364.635 303.597 361.728 305.185C364.01 306.271 366.367 307.168 368.776 307.87C374.538 309.591 386.168 319.743 386.661 320.178L385.604 321.653Z" fill="black"/>
<path d="M349.605 262.079L349.094 237.954C348.829 225.23 361.552 208.782 362.08 208.101L363.437 209.311C363.314 209.481 350.609 225.892 350.856 237.916L351.367 262.041L349.605 262.079Z" fill="black"/>
<path d="M348.512 287.886C348.512 287.886 323.843 304.901 298.875 303.88C273.906 302.86 271.086 306.811 273.06 308.55C275.034 310.29 309.817 319.006 328.125 311.103C346.433 303.2 348.512 287.886 348.512 287.886Z" fill="#D0D5DD"/>
<path d="M276.461 313.617L276.055 311.726C276.249 311.726 278.452 311.197 294.134 311.254H294.293C309.923 311.254 330.627 303.011 330.839 302.935L331.455 304.693C331.244 304.693 310.31 313.144 294.293 313.144H294.117C278.804 313.144 276.549 313.598 276.461 313.617Z" fill="black"/>
<path d="M344.001 319.667C344.001 319.667 324.513 328.308 303.632 323.241C282.751 318.174 276.848 323.241 283.861 328.799C290.874 334.358 314.663 344.246 322.856 341.674C331.05 339.103 347.754 324.659 344.001 319.667Z" fill="#D0D5DD"/>
<path d="M317.041 338.082C314.753 338.085 312.47 337.857 310.222 337.401C293.87 334.093 279.685 322.276 279.544 322.276L280.637 320.783C280.778 320.896 294.628 332.41 310.592 335.643C326.557 338.876 341.041 328.723 341.2 328.629L342.151 330.217C334.569 335.157 325.909 337.869 317.041 338.082Z" fill="black"/>
<path d="M317.165 353.264L315.403 353.037L317.059 338.063C316.319 336.172 311.879 325.453 311.491 321.804C311.443 317.713 311.821 313.629 312.619 309.628L306.328 300.44C303.896 296.904 308.09 292.574 309.588 291.289C308.865 286.543 303.561 251.869 299.667 237.482C298.567 233.184 296.499 229.242 293.644 226.004C290.789 222.767 287.236 220.332 283.298 218.916L283.756 217.025C288.002 218.502 291.838 221.093 294.915 224.563C297.992 228.032 300.213 232.272 301.377 236.895C305.57 252.399 311.368 291.081 311.42 291.478V292.026L310.998 292.385C310.998 292.385 305.905 296.677 307.685 299.267L314.204 308.72L314.434 309.061V309.458C313.659 313.406 313.269 317.429 313.271 321.463C313.641 325.093 318.733 337.288 318.786 337.401L318.892 337.647L317.165 353.264Z" fill="black"/>
<path d="M261.06 253.514L256.602 246.935L254.946 367.009L263.28 364.173L261.06 253.514Z" fill="#D0D5DD"/>
<path d="M170.383 301.309C170.383 301.309 163.758 303.862 144.569 301.309C139.018 300.51 133.521 299.329 128.111 297.774C128.287 295.883 128.393 293.841 128.411 291.875C128.534 277.147 114.314 262.665 111.636 263.95C108.957 265.236 108.112 276.41 108.112 276.41L81.0989 273.933C84.9411 276.609 88.5451 279.659 91.8652 283.046C93.9973 285.541 93.6273 293.104 93.2396 296.431C87.9534 328.837 83.7596 337.118 83.7596 337.118C83.7596 337.118 91.8652 340.899 96.6581 343.754C101.451 346.609 103.706 356.27 103.706 356.27L160.956 363.057C160.956 363.057 169.238 346.041 172.234 337.118C175.229 328.194 170.383 301.309 170.383 301.309Z" fill="#D0D5DD"/>
<path d="M227.792 287.772H125.098L109.098 369.353H211.792L227.792 287.772Z" fill="white"/>
<path d="M212.497 370.298H108.006L124.376 286.827H228.867L212.497 370.298ZM110.173 368.408H211.07L226.7 288.718H125.803L110.173 368.408Z" fill="black"/>
<path d="M88.2631 320.746L80.5071 326.886L81.5532 328.407L89.3092 322.267L88.2631 320.746Z" fill="black"/>
<path d="M114.508 342.185C93.7858 340.162 84.1649 330.369 83.7772 329.953L84.9931 328.591C85.0988 328.705 94.614 338.347 114.684 340.313L114.508 342.185Z" fill="black"/>
<path d="M154.974 275H153.615C144.242 274.145 116.662 263.428 113.03 257.423C109.726 251.96 106.234 233.924 106 233.153L108.343 232.798C108.343 232.986 111.928 251.272 115.045 256.443C118.162 261.614 144.383 272.06 153.826 272.915C162.027 273.666 164.605 266.159 166.878 257.006C168.073 252.168 168.799 248.77 169.643 244.85C170.346 241.66 171.073 238.178 172.197 233.424C174.541 223.436 172.596 219.183 172.572 219.141V218.724L172.689 216.034C175.428 211.047 176.785 205.549 176.649 200H178.993C179.114 205.767 177.718 211.479 174.915 216.681V218.515C175.337 219.579 176.813 224.27 174.564 233.82C173.463 238.574 172.736 242.035 172.057 245.204C171.213 249.166 170.463 252.565 169.268 257.444C167.464 264.575 164.839 275 154.974 275Z" fill="black"/>
<path d="M156.951 213.478C154.241 212.865 151.419 212.797 148.662 213.276C143.711 214.148 138.894 215.64 134.336 217.714L135.798 220.314C141.644 219.338 147.545 218.731 153.462 218.496C157.472 218.716 156.951 213.478 156.951 213.478Z" fill="black"/>
<path d="M167.542 214.816C163.738 214.134 165.988 219.866 165.988 219.866L172.738 221.76L173.328 218.831C171.848 216.996 169.84 215.603 167.542 214.816Z" fill="black"/>
<path d="M154 255C152.75 255.5 150.922 256 149.576 255.799C145.587 255.43 140.175 249.534 140 249.5L141.5 247.5C141.5 247.5 145.911 252.074 149.751 252.443C153.59 252.812 158.95 251 159 251V252.5C159 252.5 156.5 254 154 255Z" fill="black"/>
<path d="M137.99 224.76L137.328 222.716C142.552 221.607 148.022 221.461 153.328 222.286L152.64 224.33C147.776 223.611 142.775 223.757 137.99 224.76Z" fill="black"/>
<path d="M146.062 228.378C146.027 227.738 146.252 227.085 146.696 226.541C147.14 225.997 147.771 225.598 148.473 225.419C149.015 225.32 149.557 225.414 149.983 225.68C150.41 225.947 150.687 226.365 150.757 226.845C150.839 227.624 150.117 228.002 148.985 228.385C147.459 228.815 146.135 229.137 146.062 228.378Z" fill="black"/>
<path d="M165.369 227.76L164.328 225.345C166.794 223.904 169.603 223.428 172.328 223.988L171.57 226.566C169.445 226.198 167.273 226.616 165.369 227.76Z" fill="black"/>
<path d="M166.832 229.982C166.94 229.331 167.353 228.697 167.993 228.197C168.633 227.697 169.458 227.365 170.315 227.262C170.961 227.228 171.562 227.384 171.995 227.697C172.427 228.011 172.658 228.459 172.638 228.948C172.558 229.741 171.638 230.041 170.242 230.302C168.234 230.605 166.629 230.783 166.832 229.982Z" fill="black"/>
<path d="M154.667 247.437C153.58 247.38 152.516 247.103 151.542 246.623C150.567 246.144 149.702 245.471 149 244.648L150.565 243.098C151.129 243.819 151.869 244.385 152.715 244.743C153.562 245.101 154.487 245.239 155.402 245.144C155.911 245.006 156.373 244.736 156.741 244.363C157.11 243.99 157.372 243.527 157.5 243.021C157.829 241.951 157.5 241.115 156.655 239.503C155.39 237.193 154.642 234.64 154.463 232.018C154.325 229.98 154.64 227.937 155.386 226.034C156.133 224.13 157.293 222.411 158.784 221L160.224 222.674C159 223.875 158.057 225.327 157.461 226.928C156.866 228.53 156.634 230.241 156.78 231.941C156.939 234.271 157.607 236.539 158.737 238.589C159.243 239.33 159.593 240.166 159.765 241.044C159.937 241.923 159.928 242.827 159.739 243.703C159.499 244.579 159.029 245.377 158.378 246.017C157.726 246.656 156.916 247.114 156.029 247.344C155.58 247.431 155.123 247.462 154.667 247.437Z" fill="black"/>
<path d="M104.065 240.624C105.721 248.845 116.674 233.094 116.674 233.094C116.674 233.094 125.079 227.718 119.754 214.861C114.43 202.005 132.844 197.253 132.844 197.253C149.032 193.965 162.941 207.71 162.941 207.71C162.941 207.71 174.855 198.618 180.999 200.147L181.907 202.284C183.474 180.434 164.953 173.414 142.924 173.02C120.894 172.625 102.783 178.182 101.269 190.595C99.7551 203.008 98.5619 213.217 104.065 240.624Z" fill="black"/>
</g>
<defs>
<clipPath id="clip0_102_341">
<rect width="405" height="255" fill="white" transform="translate(7 117)"/>
</clipPath>
</defs>
</svg>
