<svg width="415" height="528" viewBox="0 0 415 528" fill="none" xmlns="http://www.w3.org/2000/svg">
<rect width="415" height="527.233" rx="15" fill="#70C9A3" fill-opacity="0.5"/>
<path d="M47.5902 435V417.72H54.3822C55.4782 417.72 56.3982 417.944 57.1422 418.392C57.8862 418.84 58.4462 419.42 58.8222 420.132C59.1982 420.836 59.3862 421.58 59.3862 422.364C59.3862 423.316 59.1502 424.132 58.6782 424.812C58.2142 425.492 57.5862 425.956 56.7942 426.204L56.7702 425.616C57.8742 425.888 58.7222 426.42 59.3142 427.212C59.9062 427.996 60.2022 428.912 60.2022 429.96C60.2022 430.976 59.9982 431.86 59.5902 432.612C59.1902 433.364 58.6022 433.952 57.8262 434.376C57.0582 434.792 56.1262 435 55.0302 435H47.5902ZM50.1342 432.612H54.6462C55.2142 432.612 55.7222 432.504 56.1702 432.288C56.6262 432.072 56.9822 431.764 57.2382 431.364C57.5022 430.956 57.6342 430.472 57.6342 429.912C57.6342 429.392 57.5182 428.924 57.2862 428.508C57.0622 428.084 56.7342 427.752 56.3022 427.512C55.8782 427.264 55.3782 427.14 54.8022 427.14H50.1342V432.612ZM50.1342 424.776H54.3462C54.8102 424.776 55.2262 424.684 55.5942 424.5C55.9702 424.308 56.2662 424.036 56.4822 423.684C56.7062 423.324 56.8182 422.892 56.8182 422.388C56.8182 421.716 56.5942 421.164 56.1462 420.732C55.6982 420.3 55.0982 420.084 54.3462 420.084H50.1342V424.776ZM68.1342 435.36C66.8062 435.36 65.6782 435.064 64.7502 434.472C63.8222 433.88 63.1102 433.068 62.6142 432.036C62.1262 431.004 61.8782 429.832 61.8702 428.52C61.8782 427.184 62.1342 426.004 62.6382 424.98C63.1422 423.948 63.8622 423.14 64.7982 422.556C65.7342 421.972 66.8582 421.68 68.1702 421.68C69.5862 421.68 70.7942 422.032 71.7942 422.736C72.8022 423.44 73.4662 424.404 73.7862 425.628L71.2902 426.348C71.0422 425.62 70.6342 425.056 70.0662 424.656C69.5062 424.248 68.8622 424.044 68.1342 424.044C67.3102 424.044 66.6342 424.24 66.1062 424.632C65.5782 425.016 65.1862 425.544 64.9302 426.216C64.6742 426.888 64.5422 427.656 64.5342 428.52C64.5422 429.856 64.8462 430.936 65.4462 431.76C66.0542 432.584 66.9502 432.996 68.1342 432.996C68.9422 432.996 69.5942 432.812 70.0902 432.444C70.5942 432.068 70.9782 431.532 71.2422 430.836L73.7862 431.436C73.3622 432.7 72.6622 433.672 71.6862 434.352C70.7102 435.024 69.5262 435.36 68.1342 435.36ZM81.9788 435.36C80.6908 435.36 79.5588 435.08 78.5828 434.52C77.6148 433.952 76.8588 433.164 76.3148 432.156C75.7788 431.14 75.5108 429.964 75.5108 428.628C75.5108 427.212 75.7748 425.984 76.3028 424.944C76.8388 423.904 77.5828 423.1 78.5348 422.532C79.4868 421.964 80.5948 421.68 81.8588 421.68C83.1788 421.68 84.3028 421.988 85.2308 422.604C86.1588 423.212 86.8508 424.08 87.3068 425.208C87.7708 426.336 87.9548 427.676 87.8588 429.228H85.3508V428.316C85.3348 426.812 85.0468 425.7 84.4868 424.98C83.9348 424.26 83.0908 423.9 81.9548 423.9C80.6988 423.9 79.7548 424.296 79.1228 425.088C78.4908 425.88 78.1748 427.024 78.1748 428.52C78.1748 429.944 78.4908 431.048 79.1228 431.832C79.7548 432.608 80.6668 432.996 81.8588 432.996C82.6428 432.996 83.3188 432.82 83.8868 432.468C84.4628 432.108 84.9108 431.596 85.2308 430.932L87.6908 431.712C87.1868 432.872 86.4228 433.772 85.3988 434.412C84.3748 435.044 83.2348 435.36 81.9788 435.36ZM77.3588 429.228V427.272H86.6108V429.228H77.3588ZM95.3438 435V422.04H101.044C101.42 422.04 101.796 422.064 102.172 422.112C102.548 422.152 102.88 422.212 103.168 422.292C103.824 422.476 104.384 422.844 104.848 423.396C105.312 423.94 105.544 424.668 105.544 425.58C105.544 426.1 105.464 426.54 105.304 426.9C105.144 427.252 104.924 427.556 104.644 427.812C104.516 427.924 104.38 428.024 104.236 428.112C104.092 428.2 103.948 428.268 103.804 428.316C104.1 428.364 104.392 428.468 104.68 428.628C105.12 428.86 105.48 429.196 105.76 429.636C106.048 430.068 106.192 430.648 106.192 431.376C106.192 432.248 105.98 432.98 105.556 433.572C105.132 434.156 104.532 434.556 103.756 434.772C103.452 434.86 103.108 434.92 102.724 434.952C102.348 434.984 101.972 435 101.596 435H95.3438ZM97.8878 433.02H101.44C101.608 433.02 101.8 433.004 102.016 432.972C102.232 432.94 102.424 432.896 102.592 432.84C102.952 432.728 103.208 432.524 103.36 432.228C103.52 431.932 103.6 431.616 103.6 431.28C103.6 430.824 103.48 430.46 103.24 430.188C103 429.908 102.696 429.728 102.328 429.648C102.168 429.592 101.992 429.56 101.8 429.552C101.608 429.544 101.444 429.54 101.308 429.54H97.8878V433.02ZM97.8878 427.524H100.696C100.928 427.524 101.164 427.512 101.404 427.488C101.644 427.456 101.852 427.404 102.028 427.332C102.34 427.212 102.572 427.012 102.724 426.732C102.876 426.444 102.952 426.132 102.952 425.796C102.952 425.428 102.868 425.1 102.7 424.812C102.532 424.524 102.28 424.324 101.944 424.212C101.712 424.132 101.444 424.088 101.14 424.08C100.844 424.064 100.656 424.056 100.576 424.056H97.8878V427.524ZM119.518 422.04V435H117.106V425.988L110.626 435H108.586V422.04H110.998V430.872L117.49 422.04H119.518ZM121.911 437.88V432.984C122.623 432.984 123.131 432.748 123.435 432.276C123.747 431.796 123.995 430.984 124.179 429.84C124.291 429.144 124.383 428.404 124.455 427.62C124.535 426.836 124.603 425.988 124.659 425.076C124.715 424.156 124.771 423.144 124.827 422.04H134.115V432.984H135.387V437.88H133.011V435H124.299V437.88H121.911ZM125.499 432.984H131.595V424.056H127.059C127.027 424.584 126.991 425.128 126.951 425.688C126.919 426.248 126.879 426.804 126.831 427.356C126.791 427.908 126.743 428.436 126.687 428.94C126.631 429.444 126.567 429.9 126.495 430.308C126.399 430.94 126.283 431.468 126.147 431.892C126.019 432.316 125.803 432.68 125.499 432.984ZM137.766 435V422.04H140.286V426.54H141.99C142.358 426.54 142.754 426.548 143.178 426.564C143.602 426.58 143.962 426.62 144.258 426.684C144.954 426.828 145.558 427.068 146.07 427.404C146.582 427.74 146.974 428.188 147.246 428.748C147.526 429.3 147.666 429.98 147.666 430.788C147.666 431.916 147.374 432.816 146.79 433.488C146.206 434.152 145.414 434.6 144.414 434.832C144.094 434.904 143.714 434.952 143.274 434.976C142.842 434.992 142.442 435 142.074 435H137.766ZM140.286 432.984H142.218C142.426 432.984 142.658 432.976 142.914 432.96C143.17 432.944 143.406 432.908 143.622 432.852C143.998 432.74 144.338 432.512 144.642 432.168C144.946 431.824 145.098 431.364 145.098 430.788C145.098 430.196 144.946 429.724 144.642 429.372C144.346 429.02 143.97 428.792 143.514 428.688C143.306 428.632 143.086 428.596 142.854 428.58C142.63 428.564 142.418 428.556 142.218 428.556H140.286V432.984ZM149.094 435V422.04H151.602V435H149.094ZM158.802 437.88V432.984C159.514 432.984 160.022 432.748 160.326 432.276C160.638 431.796 160.886 430.984 161.07 429.84C161.182 429.144 161.274 428.404 161.346 427.62C161.426 426.836 161.494 425.988 161.55 425.076C161.606 424.156 161.662 423.144 161.718 422.04H171.006V432.984H172.278V437.88H169.902V435H161.19V437.88H158.802ZM162.39 432.984H168.486V424.056H163.95C163.918 424.584 163.882 425.128 163.842 425.688C163.81 426.248 163.77 426.804 163.722 427.356C163.682 427.908 163.634 428.436 163.578 428.94C163.522 429.444 163.458 429.9 163.386 430.308C163.29 430.94 163.174 431.468 163.038 431.892C162.91 432.316 162.694 432.68 162.39 432.984ZM180.296 435.36C179 435.36 177.876 435.068 176.924 434.484C175.972 433.9 175.236 433.096 174.716 432.072C174.204 431.04 173.948 429.852 173.948 428.508C173.948 427.156 174.212 425.968 174.74 424.944C175.268 423.912 176.008 423.112 176.96 422.544C177.912 421.968 179.024 421.68 180.296 421.68C181.592 421.68 182.716 421.972 183.668 422.556C184.62 423.14 185.356 423.944 185.876 424.968C186.396 425.992 186.656 427.172 186.656 428.508C186.656 429.86 186.392 431.052 185.864 432.084C185.344 433.108 184.608 433.912 183.656 434.496C182.704 435.072 181.584 435.36 180.296 435.36ZM180.296 432.996C181.536 432.996 182.46 432.58 183.068 431.748C183.684 430.908 183.992 429.828 183.992 428.508C183.992 427.156 183.68 426.076 183.056 425.268C182.44 424.452 181.52 424.044 180.296 424.044C179.456 424.044 178.764 424.236 178.22 424.62C177.676 424.996 177.272 425.52 177.008 426.192C176.744 426.856 176.612 427.628 176.612 428.508C176.612 429.868 176.924 430.956 177.548 431.772C178.172 432.588 179.088 432.996 180.296 432.996ZM189.281 435V422.04H200.213V435H197.705V424.404H191.789V435H189.281ZM209.195 435.36C207.899 435.36 206.775 435.068 205.823 434.484C204.871 433.9 204.135 433.096 203.615 432.072C203.103 431.04 202.847 429.852 202.847 428.508C202.847 427.156 203.111 425.968 203.639 424.944C204.167 423.912 204.907 423.112 205.859 422.544C206.811 421.968 207.923 421.68 209.195 421.68C210.491 421.68 211.615 421.972 212.567 422.556C213.519 423.14 214.255 423.944 214.775 424.968C215.295 425.992 215.555 427.172 215.555 428.508C215.555 429.86 215.291 431.052 214.763 432.084C214.243 433.108 213.507 433.912 212.555 434.496C211.603 435.072 210.483 435.36 209.195 435.36ZM209.195 432.996C210.435 432.996 211.359 432.58 211.967 431.748C212.583 430.908 212.891 429.828 212.891 428.508C212.891 427.156 212.579 426.076 211.955 425.268C211.339 424.452 210.419 424.044 209.195 424.044C208.355 424.044 207.663 424.236 207.119 424.62C206.575 424.996 206.171 425.52 205.907 426.192C205.643 426.856 205.511 427.628 205.511 428.508C205.511 429.868 205.823 430.956 206.447 431.772C207.071 432.588 207.987 432.996 209.195 432.996ZM216.992 435V432.876C217.472 432.964 217.836 432.952 218.084 432.84C218.34 432.72 218.528 432.504 218.648 432.192C218.776 431.88 218.884 431.476 218.972 430.98C219.108 430.252 219.224 429.424 219.32 428.496C219.424 427.56 219.516 426.548 219.596 425.46C219.676 424.372 219.748 423.232 219.812 422.04H229.124V435H226.604V424.404H222.068C222.02 425.036 221.964 425.708 221.9 426.42C221.844 427.124 221.78 427.824 221.708 428.52C221.636 429.216 221.56 429.868 221.48 430.476C221.4 431.084 221.316 431.604 221.228 432.036C221.068 432.9 220.832 433.588 220.52 434.1C220.216 434.604 219.784 434.928 219.224 435.072C218.664 435.224 217.92 435.2 216.992 435ZM232.477 435V422.04H234.985V427.332H241.309V422.04H243.817V435H241.309V429.696H234.985V435H232.477ZM258.104 422.04V435H255.692V425.988L249.212 435H247.172V422.04H249.584V430.872L256.076 422.04H258.104ZM264.805 435V424.296H260.377V422.04H271.741V424.296H267.313V435H264.805ZM279.768 435.36C278.48 435.36 277.348 435.08 276.372 434.52C275.404 433.952 274.648 433.164 274.104 432.156C273.568 431.14 273.3 429.964 273.3 428.628C273.3 427.212 273.564 425.984 274.092 424.944C274.628 423.904 275.372 423.1 276.324 422.532C277.276 421.964 278.384 421.68 279.648 421.68C280.968 421.68 282.092 421.988 283.02 422.604C283.948 423.212 284.64 424.08 285.096 425.208C285.56 426.336 285.744 427.676 285.648 429.228H283.14V428.316C283.124 426.812 282.836 425.7 282.276 424.98C281.724 424.26 280.88 423.9 279.744 423.9C278.488 423.9 277.544 424.296 276.912 425.088C276.28 425.88 275.964 427.024 275.964 428.52C275.964 429.944 276.28 431.048 276.912 431.832C277.544 432.608 278.456 432.996 279.648 432.996C280.432 432.996 281.108 432.82 281.676 432.468C282.252 432.108 282.7 431.596 283.02 430.932L285.48 431.712C284.976 432.872 284.212 433.772 283.188 434.412C282.164 435.044 281.024 435.36 279.768 435.36ZM275.148 429.228V427.272H284.4V429.228H275.148ZM287.14 435V432.876C287.62 432.964 287.984 432.952 288.232 432.84C288.488 432.72 288.676 432.504 288.796 432.192C288.924 431.88 289.032 431.476 289.12 430.98C289.256 430.252 289.372 429.424 289.468 428.496C289.572 427.56 289.664 426.548 289.744 425.46C289.824 424.372 289.896 423.232 289.96 422.04H299.272V435H296.752V424.404H292.216C292.168 425.036 292.112 425.708 292.048 426.42C291.992 427.124 291.928 427.824 291.856 428.52C291.784 429.216 291.708 429.868 291.628 430.476C291.548 431.084 291.464 431.604 291.376 432.036C291.216 432.9 290.98 433.588 290.668 434.1C290.364 434.604 289.932 434.928 289.372 435.072C288.812 435.224 288.068 435.2 287.14 435ZM302.625 435V422.04H305.145V426.54H307.701C308.069 426.54 308.461 426.548 308.877 426.564C309.301 426.58 309.665 426.62 309.969 426.684C310.665 426.828 311.265 427.068 311.769 427.404C312.281 427.74 312.677 428.188 312.957 428.748C313.237 429.3 313.377 429.98 313.377 430.788C313.377 431.916 313.081 432.816 312.489 433.488C311.905 434.152 311.113 434.6 310.113 434.832C309.793 434.904 309.413 434.952 308.973 434.976C308.541 434.992 308.145 435 307.785 435H302.625ZM305.145 432.984H307.929C308.129 432.984 308.357 432.976 308.613 432.96C308.869 432.944 309.105 432.908 309.321 432.852C309.705 432.74 310.049 432.512 310.353 432.168C310.657 431.824 310.809 431.364 310.809 430.788C310.809 430.196 310.657 429.724 310.353 429.372C310.057 429.02 309.681 428.792 309.225 428.688C309.009 428.632 308.789 428.596 308.565 428.58C308.341 428.564 308.129 428.556 307.929 428.556H305.145V432.984ZM315.656 435V422.04H318.164V427.332H324.488V422.04H326.996V435H324.488V429.696H318.164V435H315.656ZM335.992 435.36C334.696 435.36 333.572 435.068 332.62 434.484C331.668 433.9 330.932 433.096 330.412 432.072C329.9 431.04 329.644 429.852 329.644 428.508C329.644 427.156 329.908 425.968 330.436 424.944C330.964 423.912 331.704 423.112 332.656 422.544C333.608 421.968 334.72 421.68 335.992 421.68C337.288 421.68 338.412 421.972 339.364 422.556C340.316 423.14 341.052 423.944 341.572 424.968C342.092 425.992 342.352 427.172 342.352 428.508C342.352 429.86 342.088 431.052 341.56 432.084C341.04 433.108 340.304 433.912 339.352 434.496C338.4 435.072 337.28 435.36 335.992 435.36ZM335.992 432.996C337.232 432.996 338.156 432.58 338.764 431.748C339.38 430.908 339.688 429.828 339.688 428.508C339.688 427.156 339.376 426.076 338.752 425.268C338.136 424.452 337.216 424.044 335.992 424.044C335.152 424.044 334.46 424.236 333.916 424.62C333.372 424.996 332.968 425.52 332.704 426.192C332.44 426.856 332.308 427.628 332.308 428.508C332.308 429.868 332.62 430.956 333.244 431.772C333.868 432.588 334.784 432.996 335.992 432.996ZM344.989 435V422.04H354.109V424.404H347.497V435H344.989ZM361.773 435.36C360.477 435.36 359.353 435.068 358.401 434.484C357.449 433.9 356.713 433.096 356.193 432.072C355.681 431.04 355.425 429.852 355.425 428.508C355.425 427.156 355.689 425.968 356.217 424.944C356.745 423.912 357.485 423.112 358.437 422.544C359.389 421.968 360.501 421.68 361.773 421.68C363.069 421.68 364.193 421.972 365.145 422.556C366.097 423.14 366.833 423.944 367.353 424.968C367.873 425.992 368.133 427.172 368.133 428.508C368.133 429.86 367.869 431.052 367.341 432.084C366.821 433.108 366.085 433.912 365.133 434.496C364.181 435.072 363.061 435.36 361.773 435.36ZM361.773 432.996C363.013 432.996 363.937 432.58 364.545 431.748C365.161 430.908 365.469 429.828 365.469 428.508C365.469 427.156 365.157 426.076 364.533 425.268C363.917 424.452 362.997 424.044 361.773 424.044C360.933 424.044 360.241 424.236 359.697 424.62C359.153 424.996 358.749 425.52 358.485 426.192C358.221 426.856 358.089 427.628 358.089 428.508C358.089 429.868 358.401 430.956 359.025 431.772C359.649 432.588 360.565 432.996 361.773 432.996ZM36.4135 468.36C35.1175 468.36 33.9935 468.068 33.0415 467.484C32.0895 466.9 31.3535 466.096 30.8335 465.072C30.3215 464.04 30.0655 462.852 30.0655 461.508C30.0655 460.156 30.3295 458.968 30.8575 457.944C31.3855 456.912 32.1255 456.112 33.0775 455.544C34.0295 454.968 35.1415 454.68 36.4135 454.68C37.7095 454.68 38.8335 454.972 39.7855 455.556C40.7375 456.14 41.4735 456.944 41.9935 457.968C42.5135 458.992 42.7735 460.172 42.7735 461.508C42.7735 462.86 42.5095 464.052 41.9815 465.084C41.4615 466.108 40.7255 466.912 39.7735 467.496C38.8215 468.072 37.7015 468.36 36.4135 468.36ZM36.4135 465.996C37.6535 465.996 38.5775 465.58 39.1855 464.748C39.8015 463.908 40.1095 462.828 40.1095 461.508C40.1095 460.156 39.7975 459.076 39.1735 458.268C38.5575 457.452 37.6375 457.044 36.4135 457.044C35.5735 457.044 34.8815 457.236 34.3375 457.62C33.7935 457.996 33.3895 458.52 33.1255 459.192C32.8615 459.856 32.7295 460.628 32.7295 461.508C32.7295 462.868 33.0415 463.956 33.6655 464.772C34.2895 465.588 35.2055 465.996 36.4135 465.996ZM50.7385 468.372C49.5065 468.364 48.4585 468.096 47.5945 467.568C46.7305 467.04 46.0545 466.28 45.5665 465.288C45.0865 464.288 44.8065 463.084 44.7265 461.676C44.6865 460.996 44.6905 460.244 44.7385 459.42C44.7865 458.588 44.8745 457.784 45.0025 457.008C45.1385 456.232 45.3105 455.584 45.5185 455.064C45.7505 454.488 46.0665 453.96 46.4665 453.48C46.8665 452.992 47.3065 452.584 47.7865 452.256C48.2985 451.904 48.8665 451.632 49.4905 451.44C50.1145 451.24 50.7665 451.084 51.4465 450.972C52.1345 450.86 52.8265 450.764 53.5225 450.684C54.2265 450.596 54.9105 450.488 55.5745 450.36L55.8145 452.604C55.3745 452.708 54.8545 452.792 54.2545 452.856C53.6625 452.92 53.0465 452.992 52.4065 453.072C51.7745 453.152 51.1705 453.264 50.5945 453.408C50.0185 453.552 49.5185 453.756 49.0945 454.02C48.4945 454.388 48.0345 454.924 47.7145 455.628C47.4025 456.332 47.2145 457.096 47.1505 457.92C47.6465 457.168 48.2785 456.628 49.0465 456.3C49.8145 455.964 50.6105 455.796 51.4345 455.796C52.5865 455.796 53.5785 456.068 54.4105 456.612C55.2505 457.156 55.8945 457.896 56.3425 458.832C56.7905 459.768 57.0145 460.828 57.0145 462.012C57.0145 463.292 56.7505 464.412 56.2225 465.372C55.7025 466.324 54.9705 467.068 54.0265 467.604C53.0825 468.132 51.9865 468.388 50.7385 468.372ZM50.8705 466.008C52.0225 466.008 52.8905 465.652 53.4745 464.94C54.0665 464.228 54.3625 463.28 54.3625 462.096C54.3625 460.88 54.0585 459.924 53.4505 459.228C52.8425 458.532 51.9825 458.184 50.8705 458.184C49.7425 458.184 48.8785 458.532 48.2785 459.228C47.6865 459.924 47.3905 460.88 47.3905 462.096C47.3905 463.328 47.6905 464.288 48.2905 464.976C48.8905 465.664 49.7505 466.008 50.8705 466.008ZM65.7445 468.36C64.5045 468.36 63.4645 468.06 62.6245 467.46C61.7845 466.852 61.1485 466.032 60.7165 465C60.2845 463.968 60.0685 462.804 60.0685 461.508C60.0685 460.212 60.2805 459.048 60.7045 458.016C61.1365 456.984 61.7685 456.172 62.6005 455.58C63.4405 454.98 64.4725 454.68 65.6965 454.68C66.9125 454.68 67.9605 454.98 68.8405 455.58C69.7285 456.172 70.4125 456.984 70.8925 458.016C71.3725 459.04 71.6125 460.204 71.6125 461.508C71.6125 462.804 71.3725 463.972 70.8925 465.012C70.4205 466.044 69.7445 466.86 68.8645 467.46C67.9925 468.06 66.9525 468.36 65.7445 468.36ZM59.6485 473.76V455.04H61.8805V464.364H62.1685V473.76H59.6485ZM65.3965 466.092C66.1965 466.092 66.8565 465.888 67.3765 465.48C67.9045 465.072 68.2965 464.524 68.5525 463.836C68.8165 463.14 68.9485 462.364 68.9485 461.508C68.9485 460.66 68.8165 459.892 68.5525 459.204C68.2965 458.516 67.9005 457.968 67.3645 457.56C66.8285 457.152 66.1445 456.948 65.3125 456.948C64.5285 456.948 63.8805 457.14 63.3685 457.524C62.8645 457.908 62.4885 458.444 62.2405 459.132C62.0005 459.82 61.8805 460.612 61.8805 461.508C61.8805 462.404 62.0005 463.196 62.2405 463.884C62.4805 464.572 62.8605 465.112 63.3805 465.504C63.9005 465.896 64.5725 466.092 65.3965 466.092ZM77.922 468.36C76.962 468.36 76.158 468.184 75.51 467.832C74.862 467.472 74.37 467 74.034 466.416C73.706 465.824 73.542 465.176 73.542 464.472C73.542 463.816 73.658 463.24 73.89 462.744C74.122 462.248 74.466 461.828 74.922 461.484C75.378 461.132 75.938 460.848 76.602 460.632C77.178 460.464 77.83 460.316 78.558 460.188C79.286 460.06 80.05 459.94 80.85 459.828C81.658 459.716 82.458 459.604 83.25 459.492L82.338 459.996C82.354 458.98 82.138 458.228 81.69 457.74C81.25 457.244 80.49 456.996 79.41 456.996C78.73 456.996 78.106 457.156 77.538 457.476C76.97 457.788 76.574 458.308 76.35 459.036L74.01 458.316C74.33 457.204 74.938 456.32 75.834 455.664C76.738 455.008 77.938 454.68 79.434 454.68C80.594 454.68 81.602 454.88 82.458 455.28C83.322 455.672 83.954 456.296 84.354 457.152C84.562 457.576 84.69 458.024 84.738 458.496C84.786 458.968 84.81 459.476 84.81 460.02V468H82.59V465.036L83.022 465.42C82.486 466.412 81.802 467.152 80.97 467.64C80.146 468.12 79.13 468.36 77.922 468.36ZM78.366 466.308C79.078 466.308 79.69 466.184 80.202 465.936C80.714 465.68 81.126 465.356 81.438 464.964C81.75 464.572 81.954 464.164 82.05 463.74C82.186 463.356 82.262 462.924 82.278 462.444C82.302 461.964 82.314 461.58 82.314 461.292L83.13 461.592C82.338 461.712 81.618 461.82 80.97 461.916C80.322 462.012 79.734 462.108 79.206 462.204C78.686 462.292 78.222 462.4 77.814 462.528C77.47 462.648 77.162 462.792 76.89 462.96C76.626 463.128 76.414 463.332 76.254 463.572C76.102 463.812 76.026 464.104 76.026 464.448C76.026 464.784 76.11 465.096 76.278 465.384C76.446 465.664 76.702 465.888 77.046 466.056C77.39 466.224 77.83 466.308 78.366 466.308ZM92.5461 468.36C91.2901 468.36 90.1621 468.092 89.1621 467.556C88.1701 467.02 87.3861 466.28 86.8101 465.336L88.8021 464.028C89.2661 464.652 89.8021 465.136 90.4101 465.48C91.0261 465.824 91.7181 465.996 92.4861 465.996C93.2861 465.996 93.9181 465.816 94.3821 465.456C94.8541 465.088 95.0901 464.596 95.0901 463.98C95.0901 463.492 94.9541 463.132 94.6821 462.9C94.4181 462.66 94.0501 462.504 93.5781 462.432C93.1141 462.36 92.5861 462.324 91.9941 462.324H90.8421V460.308H91.9941C92.7781 460.308 93.4221 460.2 93.9261 459.984C94.4381 459.76 94.6941 459.34 94.6941 458.724C94.6941 458.124 94.4741 457.692 94.0341 457.428C93.6021 457.164 93.0861 457.032 92.4861 457.032C91.8141 457.032 91.1621 457.176 90.5301 457.464C89.8981 457.744 89.3461 458.092 88.8741 458.508L87.4101 456.792C88.0981 456.128 88.8821 455.612 89.7621 455.244C90.6501 454.868 91.6021 454.68 92.6181 454.68C93.4501 454.68 94.2181 454.828 94.9221 455.124C95.6341 455.412 96.2021 455.84 96.6261 456.408C97.0581 456.976 97.2741 457.676 97.2741 458.508C97.2741 459.156 97.1301 459.748 96.8421 460.284C96.5541 460.82 96.1141 461.308 95.5221 461.748L95.4501 460.896C95.9381 461.048 96.3461 461.292 96.6741 461.628C97.0021 461.964 97.2461 462.36 97.4061 462.816C97.5741 463.264 97.6581 463.74 97.6581 464.244C97.6581 465.116 97.4261 465.86 96.9621 466.476C96.5061 467.092 95.8901 467.56 95.1141 467.88C94.3381 468.2 93.4821 468.36 92.5461 468.36ZM105.929 468.36C104.633 468.36 103.509 468.068 102.557 467.484C101.605 466.9 100.869 466.096 100.349 465.072C99.8371 464.04 99.5811 462.852 99.5811 461.508C99.5811 460.156 99.8451 458.968 100.373 457.944C100.901 456.912 101.641 456.112 102.593 455.544C103.545 454.968 104.657 454.68 105.929 454.68C107.225 454.68 108.349 454.972 109.301 455.556C110.253 456.14 110.989 456.944 111.509 457.968C112.029 458.992 112.289 460.172 112.289 461.508C112.289 462.86 112.025 464.052 111.497 465.084C110.977 466.108 110.241 466.912 109.289 467.496C108.337 468.072 107.217 468.36 105.929 468.36ZM105.929 465.996C107.169 465.996 108.093 465.58 108.701 464.748C109.317 463.908 109.625 462.828 109.625 461.508C109.625 460.156 109.313 459.076 108.689 458.268C108.073 457.452 107.153 457.044 105.929 457.044C105.089 457.044 104.397 457.236 103.853 457.62C103.309 457.996 102.905 458.52 102.641 459.192C102.377 459.856 102.245 460.628 102.245 461.508C102.245 462.868 102.557 463.956 103.181 464.772C103.805 465.588 104.721 465.996 105.929 465.996ZM114.914 468V455.04H120.614C120.99 455.04 121.366 455.064 121.742 455.112C122.118 455.152 122.45 455.212 122.738 455.292C123.394 455.476 123.954 455.844 124.418 456.396C124.882 456.94 125.114 457.668 125.114 458.58C125.114 459.1 125.034 459.54 124.874 459.9C124.714 460.252 124.494 460.556 124.214 460.812C124.086 460.924 123.95 461.024 123.806 461.112C123.662 461.2 123.518 461.268 123.374 461.316C123.67 461.364 123.962 461.468 124.25 461.628C124.69 461.86 125.05 462.196 125.33 462.636C125.618 463.068 125.762 463.648 125.762 464.376C125.762 465.248 125.55 465.98 125.126 466.572C124.702 467.156 124.102 467.556 123.326 467.772C123.022 467.86 122.678 467.92 122.294 467.952C121.918 467.984 121.542 468 121.166 468H114.914ZM117.458 466.02H121.01C121.178 466.02 121.37 466.004 121.586 465.972C121.802 465.94 121.994 465.896 122.162 465.84C122.522 465.728 122.778 465.524 122.93 465.228C123.09 464.932 123.17 464.616 123.17 464.28C123.17 463.824 123.05 463.46 122.81 463.188C122.57 462.908 122.266 462.728 121.898 462.648C121.738 462.592 121.562 462.56 121.37 462.552C121.178 462.544 121.014 462.54 120.878 462.54H117.458V466.02ZM117.458 460.524H120.266C120.498 460.524 120.734 460.512 120.974 460.488C121.214 460.456 121.422 460.404 121.598 460.332C121.91 460.212 122.142 460.012 122.294 459.732C122.446 459.444 122.522 459.132 122.522 458.796C122.522 458.428 122.438 458.1 122.27 457.812C122.102 457.524 121.85 457.324 121.514 457.212C121.282 457.132 121.014 457.088 120.71 457.08C120.414 457.064 120.226 457.056 120.146 457.056H117.458V460.524ZM131.828 468.36C130.868 468.36 130.064 468.184 129.416 467.832C128.768 467.472 128.276 467 127.94 466.416C127.612 465.824 127.448 465.176 127.448 464.472C127.448 463.816 127.564 463.24 127.796 462.744C128.028 462.248 128.372 461.828 128.828 461.484C129.284 461.132 129.844 460.848 130.508 460.632C131.084 460.464 131.736 460.316 132.464 460.188C133.192 460.06 133.956 459.94 134.756 459.828C135.564 459.716 136.364 459.604 137.156 459.492L136.244 459.996C136.26 458.98 136.044 458.228 135.596 457.74C135.156 457.244 134.396 456.996 133.316 456.996C132.636 456.996 132.012 457.156 131.444 457.476C130.876 457.788 130.48 458.308 130.256 459.036L127.916 458.316C128.236 457.204 128.844 456.32 129.74 455.664C130.644 455.008 131.844 454.68 133.34 454.68C134.5 454.68 135.508 454.88 136.364 455.28C137.228 455.672 137.86 456.296 138.26 457.152C138.468 457.576 138.596 458.024 138.644 458.496C138.692 458.968 138.716 459.476 138.716 460.02V468H136.496V465.036L136.928 465.42C136.392 466.412 135.708 467.152 134.876 467.64C134.052 468.12 133.036 468.36 131.828 468.36ZM132.272 466.308C132.984 466.308 133.596 466.184 134.108 465.936C134.62 465.68 135.032 465.356 135.344 464.964C135.656 464.572 135.86 464.164 135.956 463.74C136.092 463.356 136.168 462.924 136.184 462.444C136.208 461.964 136.22 461.58 136.22 461.292L137.036 461.592C136.244 461.712 135.524 461.82 134.876 461.916C134.228 462.012 133.64 462.108 133.112 462.204C132.592 462.292 132.128 462.4 131.72 462.528C131.376 462.648 131.068 462.792 130.796 462.96C130.532 463.128 130.32 463.332 130.16 463.572C130.008 463.812 129.932 464.104 129.932 464.448C129.932 464.784 130.016 465.096 130.184 465.384C130.352 465.664 130.608 465.888 130.952 466.056C131.296 466.224 131.736 466.308 132.272 466.308ZM141.82 468V455.04H144.328V460.332H150.652V455.04H153.16V468H150.652V462.696H144.328V468H141.82ZM167.448 455.04V468H165.036V458.988L158.556 468H156.516V455.04H158.928V463.872L165.42 455.04H167.448ZM178.685 468V463.5H176.117C175.813 463.5 175.449 463.488 175.025 463.464C174.609 463.44 174.217 463.396 173.849 463.332C172.881 463.156 172.073 462.736 171.425 462.072C170.777 461.4 170.453 460.476 170.453 459.3C170.453 458.164 170.757 457.252 171.365 456.564C171.981 455.868 172.761 455.42 173.705 455.22C174.113 455.124 174.529 455.072 174.953 455.064C175.385 455.048 175.749 455.04 176.045 455.04H181.193L181.205 468H178.685ZM170.081 468L173.357 462.876H176.009L172.757 468H170.081ZM175.901 461.484H178.685V457.056H175.901C175.725 457.056 175.509 457.064 175.253 457.08C174.997 457.096 174.749 457.14 174.509 457.212C174.261 457.284 174.021 457.412 173.789 457.596C173.565 457.78 173.381 458.016 173.237 458.304C173.093 458.584 173.021 458.908 173.021 459.276C173.021 459.828 173.177 460.284 173.489 460.644C173.801 460.996 174.173 461.228 174.605 461.34C174.837 461.404 175.069 461.444 175.301 461.46C175.533 461.476 175.733 461.484 175.901 461.484Z" fill="black"/>
<path d="M189.34 468V455.04H195.232C195.656 455.04 196.052 455.064 196.42 455.112C196.788 455.16 197.104 455.22 197.368 455.292C197.992 455.476 198.544 455.836 199.024 456.372C199.504 456.9 199.744 457.632 199.744 458.568C199.744 459.12 199.656 459.576 199.48 459.936C199.304 460.288 199.072 460.584 198.784 460.824C198.648 460.936 198.508 461.032 198.364 461.112C198.22 461.192 198.076 461.256 197.932 461.304C198.244 461.352 198.54 461.444 198.82 461.58C199.26 461.796 199.628 462.116 199.924 462.54C200.228 462.964 200.38 463.56 200.38 464.328C200.38 465.2 200.168 465.936 199.744 466.536C199.328 467.128 198.716 467.54 197.908 467.772C197.612 467.852 197.272 467.912 196.888 467.952C196.504 467.984 196.112 468 195.712 468H189.34ZM192.268 465.768H195.508C195.676 465.768 195.86 465.752 196.06 465.72C196.26 465.688 196.44 465.644 196.6 465.588C196.888 465.484 197.096 465.3 197.224 465.036C197.36 464.772 197.428 464.496 197.428 464.208C197.428 463.816 197.328 463.504 197.128 463.272C196.936 463.032 196.704 462.872 196.432 462.792C196.272 462.728 196.096 462.692 195.904 462.684C195.72 462.668 195.568 462.66 195.448 462.66H192.268V465.768ZM192.268 460.392H194.668C194.916 460.392 195.156 460.38 195.388 460.356C195.628 460.324 195.828 460.272 195.988 460.2C196.252 460.096 196.444 459.92 196.564 459.672C196.692 459.424 196.756 459.148 196.756 458.844C196.756 458.524 196.684 458.236 196.54 457.98C196.404 457.716 196.184 457.54 195.88 457.452C195.68 457.372 195.436 457.328 195.148 457.32C194.868 457.312 194.688 457.308 194.608 457.308H192.268V460.392ZM213.299 468.36C212.003 468.36 210.871 468.068 209.903 467.484C208.935 466.9 208.183 466.096 207.647 465.072C207.119 464.04 206.855 462.856 206.855 461.52C206.855 460.16 207.127 458.968 207.671 457.944C208.215 456.92 208.971 456.12 209.939 455.544C210.907 454.968 212.027 454.68 213.299 454.68C214.603 454.68 215.739 454.972 216.707 455.556C217.675 456.14 218.427 456.948 218.963 457.98C219.499 459.004 219.767 460.184 219.767 461.52C219.767 462.864 219.495 464.052 218.951 465.084C218.415 466.108 217.663 466.912 216.695 467.496C215.727 468.072 214.595 468.36 213.299 468.36ZM213.299 465.648C214.451 465.648 215.307 465.264 215.867 464.496C216.427 463.728 216.707 462.736 216.707 461.52C216.707 460.264 216.423 459.264 215.855 458.52C215.287 457.768 214.435 457.392 213.299 457.392C212.523 457.392 211.883 457.568 211.379 457.92C210.883 458.264 210.515 458.748 210.275 459.372C210.035 459.988 209.915 460.704 209.915 461.52C209.915 462.776 210.199 463.78 210.767 464.532C211.343 465.276 212.187 465.648 213.299 465.648ZM221.45 470.88V465.732C222.154 465.732 222.654 465.492 222.95 465.012C223.246 464.532 223.482 463.7 223.658 462.516C223.77 461.812 223.862 461.068 223.934 460.284C224.006 459.5 224.066 458.672 224.114 457.8C224.17 456.928 224.218 456.008 224.258 455.04H233.906V465.732H235.214V470.88H232.478V468H224.174V470.88H221.45ZM225.326 465.732H231.026V457.308H226.79C226.766 457.788 226.738 458.28 226.706 458.784C226.674 459.28 226.638 459.776 226.598 460.272C226.558 460.768 226.514 461.244 226.466 461.7C226.426 462.148 226.378 462.564 226.322 462.948C226.234 463.62 226.126 464.172 225.998 464.604C225.87 465.036 225.646 465.412 225.326 465.732ZM237.597 468V455.04H240.489V460.152H246.309V455.04H249.201V468H246.309V462.864H240.489V468H237.597ZM258.275 468.36C256.979 468.36 255.847 468.068 254.879 467.484C253.911 466.9 253.159 466.096 252.623 465.072C252.095 464.04 251.831 462.856 251.831 461.52C251.831 460.16 252.103 458.968 252.647 457.944C253.191 456.92 253.947 456.12 254.915 455.544C255.883 454.968 257.003 454.68 258.275 454.68C259.579 454.68 260.715 454.972 261.683 455.556C262.651 456.14 263.403 456.948 263.939 457.98C264.475 459.004 264.743 460.184 264.743 461.52C264.743 462.864 264.471 464.052 263.927 465.084C263.391 466.108 262.639 466.912 261.671 467.496C260.703 468.072 259.571 468.36 258.275 468.36ZM258.275 465.648C259.427 465.648 260.283 465.264 260.843 464.496C261.403 463.728 261.683 462.736 261.683 461.52C261.683 460.264 261.399 459.264 260.831 458.52C260.263 457.768 259.411 457.392 258.275 457.392C257.499 457.392 256.859 457.568 256.355 457.92C255.859 458.264 255.491 458.748 255.251 459.372C255.011 459.988 254.891 460.704 254.891 461.52C254.891 462.776 255.175 463.78 255.743 464.532C256.319 465.276 257.163 465.648 258.275 465.648ZM273.375 453.576C272.711 453.576 272.103 453.412 271.551 453.084C270.999 452.756 270.559 452.32 270.231 451.776C269.903 451.224 269.739 450.612 269.739 449.94H271.995C271.995 450.324 272.127 450.652 272.391 450.924C272.663 451.188 272.991 451.32 273.375 451.32C273.759 451.32 274.083 451.188 274.347 450.924C274.619 450.652 274.755 450.324 274.755 449.94H277.011C277.011 450.612 276.847 451.224 276.519 451.776C276.191 452.32 275.751 452.756 275.199 453.084C274.647 453.412 274.039 453.576 273.375 453.576ZM278.619 455.04V468H275.847V459.54L269.679 468H267.363V455.04H270.135V463.284L276.327 455.04H278.619ZM292.421 468.36C291.085 468.36 289.945 468.064 289.001 467.472C288.057 466.872 287.333 466.056 286.829 465.024C286.333 463.992 286.081 462.824 286.073 461.52C286.081 460.192 286.341 459.016 286.853 457.992C287.373 456.96 288.109 456.152 289.061 455.568C290.013 454.976 291.145 454.68 292.457 454.68C293.929 454.68 295.173 455.052 296.189 455.796C297.213 456.532 297.881 457.54 298.193 458.82L295.313 459.6C295.089 458.904 294.717 458.364 294.197 457.98C293.677 457.588 293.085 457.392 292.421 457.392C291.669 457.392 291.049 457.572 290.561 457.932C290.073 458.284 289.713 458.772 289.481 459.396C289.249 460.02 289.133 460.728 289.133 461.52C289.133 462.752 289.409 463.748 289.961 464.508C290.513 465.268 291.333 465.648 292.421 465.648C293.189 465.648 293.793 465.472 294.233 465.12C294.681 464.768 295.017 464.26 295.241 463.596L298.193 464.256C297.793 465.576 297.093 466.592 296.093 467.304C295.093 468.008 293.869 468.36 292.421 468.36ZM311.83 455.04V468H309.058V459.54L302.89 468H300.574V455.04H303.346V463.284L309.538 455.04H311.83ZM320.828 468.36C319.492 468.36 318.352 468.064 317.408 467.472C316.464 466.872 315.74 466.056 315.236 465.024C314.74 463.992 314.488 462.824 314.48 461.52C314.488 460.192 314.748 459.016 315.26 457.992C315.78 456.96 316.516 456.152 317.468 455.568C318.42 454.976 319.552 454.68 320.864 454.68C322.336 454.68 323.58 455.052 324.596 455.796C325.62 456.532 326.288 457.54 326.6 458.82L323.72 459.6C323.496 458.904 323.124 458.364 322.604 457.98C322.084 457.588 321.492 457.392 320.828 457.392C320.076 457.392 319.456 457.572 318.968 457.932C318.48 458.284 318.12 458.772 317.888 459.396C317.656 460.02 317.54 460.728 317.54 461.52C317.54 462.752 317.816 463.748 318.368 464.508C318.92 465.268 319.74 465.648 320.828 465.648C321.596 465.648 322.2 465.472 322.64 465.12C323.088 464.768 323.424 464.26 323.648 463.596L326.6 464.256C326.2 465.576 325.5 466.592 324.5 467.304C323.5 468.008 322.276 468.36 320.828 468.36ZM332.186 468V457.608H327.854V455.04H339.41V457.608H335.078V468H332.186ZM347.576 468.36C346.264 468.36 345.112 468.076 344.12 467.508C343.128 466.94 342.352 466.152 341.792 465.144C341.24 464.136 340.964 462.976 340.964 461.664C340.964 460.248 341.236 459.02 341.78 457.98C342.324 456.932 343.08 456.12 344.048 455.544C345.016 454.968 346.136 454.68 347.408 454.68C348.752 454.68 349.892 454.996 350.828 455.628C351.772 456.252 352.472 457.136 352.928 458.28C353.384 459.424 353.556 460.772 353.444 462.324H350.576V461.268C350.568 459.86 350.32 458.832 349.832 458.184C349.344 457.536 348.576 457.212 347.528 457.212C346.344 457.212 345.464 457.58 344.888 458.316C344.312 459.044 344.024 460.112 344.024 461.52C344.024 462.832 344.312 463.848 344.888 464.568C345.464 465.288 346.304 465.648 347.408 465.648C348.12 465.648 348.732 465.492 349.244 465.18C349.764 464.86 350.164 464.4 350.444 463.8L353.3 464.664C352.804 465.832 352.036 466.74 350.996 467.388C349.964 468.036 348.824 468.36 347.576 468.36ZM343.112 462.324V460.14H352.028V462.324H343.112ZM355.746 468V455.04H358.122L362.766 463.992L367.422 455.04H369.786V468H367.026V460.86L363.342 468H362.202L358.518 460.86V468H355.746ZM379.029 468.36C377.717 468.36 376.565 468.076 375.573 467.508C374.581 466.94 373.805 466.152 373.245 465.144C372.693 464.136 372.417 462.976 372.417 461.664C372.417 460.248 372.689 459.02 373.233 457.98C373.777 456.932 374.533 456.12 375.501 455.544C376.469 454.968 377.589 454.68 378.861 454.68C380.205 454.68 381.345 454.996 382.281 455.628C383.225 456.252 383.925 457.136 384.381 458.28C384.837 459.424 385.009 460.772 384.897 462.324H382.029V461.268C382.021 459.86 381.773 458.832 381.285 458.184C380.797 457.536 380.029 457.212 378.981 457.212C377.797 457.212 376.917 457.58 376.341 458.316C375.765 459.044 375.477 460.112 375.477 461.52C375.477 462.832 375.765 463.848 376.341 464.568C376.917 465.288 377.757 465.648 378.861 465.648C379.573 465.648 380.185 465.492 380.697 465.18C381.217 464.86 381.617 464.4 381.897 463.8L384.753 464.664C384.257 465.832 383.489 466.74 382.449 467.388C381.417 468.036 380.277 468.36 379.029 468.36ZM374.565 462.324V460.14H383.481V462.324H374.565Z" fill="#31BAAE"/>
<g clip-path="url(#clip0_102_335)">
<path d="M327.88 338.859C327.88 338.859 310.144 304.441 300.658 292.741C291.171 281.041 280.871 270.829 280.871 270.829C280.871 270.829 284.143 264.708 282.859 263.84C281.575 262.972 278.022 264.754 278.022 264.754C278.022 264.754 273.733 259.78 262.118 257.285C250.502 254.79 235.318 253.178 235.318 253.178L240.014 237.96C240.014 237.96 234.864 236.008 225.8 239.371C216.737 242.733 208.925 259.082 208.925 259.082C204.428 251.194 198.388 244.272 191.158 238.72C179.449 229.902 167.474 237.17 167.474 237.17L167.051 252.14C167.051 252.14 147.937 252.713 140.142 254.17C132.346 255.627 125.49 257.486 125.49 257.486C125.49 257.486 121.999 252.372 117.412 254.604C112.825 256.835 117.49 263.7 117.49 263.7C117.49 263.7 109.898 273.386 96.0757 295.546C91.8334 302.364 88.7183 313.491 86.4485 325.64" fill="white"/>
<path d="M326.894 339.355C326.706 339.014 309.095 304.906 299.797 293.423C290.498 281.94 280.182 271.728 280.073 271.635L279.494 271.062L279.885 270.349C280.895 268.601 281.623 266.708 282.045 264.739C280.81 264.823 279.608 265.172 278.523 265.762L277.74 266.165L277.177 265.498C277.177 265.498 272.919 260.756 261.883 258.401C250.455 255.937 235.349 254.325 235.271 254.31L233.925 254.17L238.731 238.782C234.517 238.218 230.229 238.791 226.317 240.44C217.786 243.54 210.146 259.424 210.068 259.578L209.098 261.593L208.064 259.625C203.634 251.888 197.702 245.094 190.61 239.634C187.516 237.286 183.806 235.866 179.921 235.545C176.036 235.223 172.139 236.014 168.695 237.821L168.256 253.194H167.207C167.02 253.194 148.094 253.767 140.486 255.208C132.878 256.65 125.975 258.494 125.897 258.509L125.13 258.726L124.691 258.06C124.566 257.889 121.654 253.783 118.038 255.549C117.716 255.691 117.43 255.904 117.205 256.173C116.98 256.442 116.82 256.759 116.739 257.099C116.207 259.052 117.866 262.104 118.539 263.112L118.993 263.763L118.508 264.398C118.43 264.491 110.775 274.3 97.1559 296.135C93.4302 302.117 90.2369 312.112 87.6696 325.858L85.478 325.455C88.0922 311.508 91.3952 301.187 95.2618 294.988C107.049 276.067 114.407 266.118 116.269 263.654C115.455 262.275 113.89 259.145 114.594 256.526C114.763 255.895 115.07 255.309 115.496 254.811C115.921 254.312 116.452 253.913 117.052 253.643C120.919 251.737 124.378 254.248 126.053 256.262C128.026 255.735 133.786 254.294 140.142 253.163C146.967 251.861 162.057 251.272 166.174 251.133L166.581 236.597L167.098 236.287C167.223 236.287 179.856 228.787 192.035 237.945C198.84 243.165 204.619 249.579 209.082 256.867C211.461 252.388 218.02 241.277 225.613 238.457C235.005 234.985 240.406 236.907 240.625 237.046L241.595 237.418L236.899 252.342C240.875 252.806 252.944 254.279 262.478 256.324C272.011 258.37 276.801 262.073 278.382 263.53C279.76 262.941 282.217 262.104 283.611 263.034C284.112 263.375 285.599 264.382 282.358 270.782C284.659 273.091 293.504 282.126 301.66 292.168C311.052 303.837 328.271 337.108 328.992 338.472L326.894 339.355Z" fill="black"/>
<path d="M318.832 366.087L340.889 364.769C340.889 364.769 341.843 334.148 319.803 329.84C297.762 325.532 282.906 358.71 282.906 358.71L308.626 362.724L318.832 366.087Z" fill="#31BAAE"/>
<path d="M318.691 367.187L308.281 363.778L281.294 359.578L281.889 358.261C282.515 356.882 297.339 324.292 320.006 328.817C342.673 333.342 342.016 364.553 341.922 364.863V365.87L318.691 367.187ZM284.55 357.889L308.798 361.67L318.973 365.002L339.715 363.809C339.621 358.586 338.149 334.644 319.521 331.003C300.893 327.361 287.571 351.845 284.55 357.858V357.889Z" fill="black"/>
<path d="M134.913 335.171C134.913 335.171 130.546 333.265 125.083 339.231C119.619 345.197 115.346 362.925 115.346 362.925H74.5672C73.7532 360.213 70.5442 340.424 77.5102 329.933C83.2104 321.275 90.5071 313.757 99.0188 307.773" fill="white"/>
<path d="M116.238 364.026H73.7376L73.5028 363.235C72.7357 360.741 69.2292 340.409 76.6336 329.329C82.4325 320.526 89.8699 312.895 98.5492 306.843L99.7545 308.703C91.387 314.617 84.2047 322.021 78.5747 330.538C72.3131 340.006 74.6299 357.471 75.5691 361.825H114.61C115.549 358.153 119.416 343.896 124.378 338.487C130.311 332.025 135.336 334.071 135.493 334.164L134.6 336.178C134.459 336.178 130.812 334.753 126.022 339.96C120.809 345.647 116.63 363.003 116.63 363.204L116.238 364.026Z" fill="black"/>
<path d="M311.193 361.701H147.155V367.853H311.193V361.701Z" fill="black"/>
<path d="M130.264 333.807C130.264 333.807 123.768 331.622 112.638 328.941C101.508 326.26 107.722 321.472 109.851 319.643" fill="white"/>
<path d="M129.951 334.845C129.951 334.845 123.377 332.66 112.419 330.01C108.051 328.957 105.703 327.438 105.202 325.361C104.576 322.665 107.425 320.294 108.944 319.023L109.178 318.837L110.619 320.511L110.384 320.713C109.304 321.611 107.049 323.486 107.378 324.866C107.535 325.516 108.458 326.772 112.935 327.856C124.003 330.522 130.593 332.722 130.671 332.738L129.951 334.845Z" fill="black"/>
<path d="M132.8 347.413L149.44 320.945L147.186 286.682" fill="white"/>
<path d="M133.739 348.002L131.845 346.84L148.298 320.651L146.075 286.76L148.298 286.62L150.567 321.224L133.739 348.002Z" fill="black"/>
<path d="M145.605 282.978C145.605 282.978 135.399 273.06 130.17 271.945C125.536 271.246 120.845 270.981 116.16 271.154L100.115 295.623C106.979 296.094 113.6 298.333 119.322 302.117C123.167 304.879 127.194 307.385 131.376 309.617L145.605 282.978Z" fill="#31BAAE"/>
<path d="M126.147 312.19L125.13 311.585C119.687 308.389 114.052 305.527 108.255 303.016C99.5981 299.312 94.0879 301.28 94.0409 301.295L93.2426 299.234C93.493 299.141 99.5825 296.91 109.131 301.001C114.661 303.39 120.044 306.096 125.255 309.106L143.523 274.626C141.676 272.286 133.176 263.174 115.534 267.807L114.97 265.669C136.307 260.09 145.668 273.789 145.762 273.928L146.122 274.471L126.147 312.19Z" fill="black"/>
<path d="M254.619 269.883C254.619 269.883 246.949 274.362 222.544 275.943C215.477 276.324 208.392 276.256 201.333 275.741C201.13 273.479 200.832 271.185 200.41 268.907C197.279 252.016 176.506 238.735 173.438 240.858C170.37 242.981 171.7 255.983 171.7 255.983L137.59 259.454C137.59 259.454 148.016 263.731 152.978 267.373C156.187 269.744 157.439 278.484 157.674 282.389C158.316 320.743 154.888 331.235 154.888 331.235C154.888 331.235 165.846 333.621 172.373 335.883C178.901 338.146 183.895 348.56 183.895 348.56L256.482 342.935C256.482 342.935 262.994 321.456 264.763 310.562C266.532 299.668 254.619 269.883 254.619 269.883Z" fill="#D0D5DD"/>
<path d="M156.866 311.415L148.582 320.274L150.213 321.769L158.497 312.91L156.866 311.415Z" fill="black"/>
<path d="M185.116 330.259C164.766 330.259 153.902 323.347 153.385 323.006L154.622 321.162C154.747 321.255 168.71 330.088 194.039 327.624L194.258 329.809C191.22 330.113 188.169 330.263 185.116 330.259Z" fill="black"/>
<path d="M132.299 338.053C132.299 338.053 145.417 334.318 148.689 334.768C151.961 335.217 162.136 340.781 167.771 349.18C173.407 357.579 171.653 367.652 171.653 367.652L163.372 365.699L144.04 364.537L144.447 366.319L137.309 365.808L130.859 358.059L119.228 365.808L98.3771 364.645C98.3771 364.645 105.844 344.732 116.551 338.998C122.124 335.814 128.022 333.222 134.146 331.266L132.299 338.053Z" fill="#31BAAE"/>
<path d="M172.545 369L163.153 366.768L145.527 365.73L145.934 367.512L136.807 366.877L130.687 359.5L119.604 366.815L96.8584 365.56L97.3907 364.149C97.7038 363.328 105.139 343.787 116.097 337.914C121.74 334.743 127.706 332.172 133.896 330.243L135.774 329.747L133.943 336.473C137.809 335.419 146.137 333.296 148.892 333.668C152.571 334.179 162.981 339.866 168.742 348.56C174.502 357.253 172.859 367.404 172.796 367.838L172.545 369ZM142.631 363.344L163.435 364.599L170.651 366.288C171.2 360.55 169.866 354.79 166.847 349.862C161.353 341.679 151.397 336.318 148.548 335.915C146.294 335.62 137.794 337.697 132.612 339.184L130.718 339.727L132.534 333.032C127.21 334.91 122.048 337.211 117.099 339.913C108.505 344.562 101.915 359.005 99.9892 363.592L118.931 364.63L131.094 356.618L137.872 364.8L143.038 365.172L142.631 363.344Z" fill="black"/>
<path d="M156.438 347.227C158.867 349.144 160.665 351.733 161.603 354.665C162.589 358.911 163.372 365.699 163.372 365.699" fill="#31BAAE"/>
<path d="M162.261 365.823C162.261 365.823 161.478 359.036 160.523 354.975C159.662 352.303 158.029 349.938 155.827 348.172L157.173 346.421C159.82 348.48 161.765 351.292 162.746 354.48C163.732 358.726 164.499 365.327 164.546 365.637L162.261 365.823Z" fill="black"/>
<path d="M146.513 346.421C150.063 349.239 152.671 353.052 153.996 357.362C155.561 363.855 154.794 365.467 154.794 365.467" fill="#31BAAE"/>
<path d="M155.78 365.947L153.792 364.971C153.792 364.971 154.309 363.282 152.916 357.625C151.65 353.559 149.186 349.96 145.84 347.289L147.202 345.538C150.937 348.515 153.667 352.547 155.029 357.098C156.657 363.499 156.015 365.498 155.78 365.947Z" fill="black"/>
<path d="M136.87 348.823C139.406 351.148 144.055 364.537 144.055 364.537L136.87 348.823Z" fill="#31BAAE"/>
<path d="M143.006 364.893C141.237 359.811 137.825 351.179 136.119 349.645L137.684 348.018C140.345 350.451 144.666 362.786 145.151 364.181L143.006 364.893Z" fill="black"/>
<path d="M331.418 266.537H201.584L181.359 361.701H311.193L331.418 266.537Z" fill="white"/>
<path d="M312.085 362.801H180.044L200.754 265.42H332.858L312.085 362.801ZM182.736 360.585H310.285L330.04 267.605H202.492L182.736 360.585Z" fill="black"/>
<path d="M246.824 174.936C248.123 184.234 250.205 195.33 246.824 200.986L246.464 203.496C246.464 203.496 247.7 208.61 243.834 220.016C239.967 231.421 240.265 232.413 235.115 240.797C229.964 249.18 219.977 253.07 211.634 250.931C203.29 248.793 185.022 235.078 183.002 228.694C180.983 222.309 181.609 197.995 181.609 197.995" fill="#F9F9F9"/>
<path d="M216.236 252.605C214.578 252.614 212.926 252.411 211.32 252C202.867 249.846 184.161 235.992 181.891 229.034C179.778 222.557 180.435 199.017 180.466 198.041H182.689C182.689 198.274 182.016 222.185 184.02 228.322C185.883 234.04 203.587 247.708 211.868 249.815C220.149 251.923 229.416 247.832 234.175 240.176C237.163 235.669 239.409 230.721 240.828 225.517C241.36 223.967 241.987 221.968 242.785 219.612C246.464 208.765 245.384 203.744 245.368 203.697V203.496L245.9 200.397C248.749 195.639 247.372 186.202 246.151 177.88L245.744 175.075L247.951 174.781L248.358 177.555C249.61 186.155 251.035 195.872 247.919 201.326L247.622 203.449C247.826 204.596 248.436 209.958 244.93 220.341C244.131 222.696 243.505 224.602 242.988 226.229C241.502 231.595 239.178 236.698 236.101 241.354C234.011 244.73 231.095 247.531 227.623 249.497C224.151 251.463 220.235 252.532 216.236 252.605Z" fill="black"/>
<path d="M180.357 217.738C181.813 225.486 191.44 210.64 191.44 210.64C191.44 210.64 198.829 205.573 194.148 193.454C189.468 181.336 205.654 176.858 205.654 176.858C219.883 173.758 232.109 186.713 232.109 186.713C232.109 186.713 242.582 178.144 247.982 179.585L248.781 181.599C250.158 161.004 233.878 154.387 214.514 154.016C195.15 153.644 179.23 158.881 177.899 170.581C176.569 182.281 175.52 191.905 180.357 217.738Z" fill="black"/>
<path d="M234.441 201.822C233.083 203.125 232.027 204.705 231.349 206.453C230.67 208.2 230.385 210.074 230.512 211.942C230.919 218.404 234.457 220.155 233.518 223.316C232.579 226.477 228.665 227.841 224.705 223.858" fill="white"/>
<path d="M229.589 227.439C228.502 227.382 227.438 227.105 226.464 226.625C225.489 226.145 224.624 225.473 223.922 224.649L225.487 223.1C226.051 223.82 226.791 224.387 227.637 224.745C228.484 225.103 229.409 225.241 230.324 225.145C230.833 225.007 231.295 224.738 231.663 224.365C232.032 223.992 232.294 223.528 232.422 223.022C232.751 221.953 232.422 221.116 231.577 219.504C230.312 217.194 229.564 214.641 229.385 212.02C229.247 209.982 229.562 207.939 230.308 206.035C231.055 204.131 232.215 202.413 233.706 201.001L235.146 202.675C233.922 203.876 232.979 205.328 232.383 206.93C231.788 208.531 231.556 210.242 231.702 211.942C231.861 214.272 232.529 216.54 233.659 218.59C234.165 219.332 234.515 220.167 234.687 221.046C234.859 221.925 234.85 222.829 234.661 223.704C234.421 224.581 233.951 225.379 233.3 226.018C232.648 226.658 231.838 227.116 230.951 227.346C230.502 227.432 230.045 227.464 229.589 227.439Z" fill="black"/>
<path d="M210.71 198.553C210.71 198.553 219.586 195.453 224.705 198.553H210.71Z" fill="white"/>
<path d="M211.446 200.629L209.959 196.476C210.976 196.12 220.024 193.129 225.879 196.678L223.546 200.443C220.087 198.336 213.637 199.87 211.446 200.629Z" fill="black"/>
<path d="M235.803 200.614C235.803 200.614 238.214 196.677 246.761 198.227L235.803 200.614Z" fill="white"/>
<path d="M237.666 201.822L233.894 199.544C234.222 199.002 237.4 194.353 247.215 196.12L246.417 200.459C239.67 199.188 237.744 201.714 237.666 201.822Z" fill="black"/>
<path d="M208.409 206.564C208.409 206.564 218.834 203.93 222.497 206.564H208.409Z" fill="white"/>
<path d="M208.898 205.128L208.675 203.338C209.802 203.059 219.727 200.672 223.64 203.524L222 204.942C219.401 203.052 211.668 204.431 208.898 205.128Z" fill="black"/>
<path d="M235.803 208.455C235.803 208.455 240.5 205.82 244.617 206.766L235.803 208.455Z" fill="white"/>
<path d="M236.189 206.948L235.302 205.697C235.506 205.588 240.374 202.876 244.914 203.899L244.204 205.367C240.478 204.546 236.189 206.917 236.189 206.948Z" fill="black"/>
<path d="M217.946 210.959C218.842 210.959 219.568 210.241 219.568 209.354C219.568 208.468 218.842 207.75 217.946 207.75C217.05 207.75 216.324 208.468 216.324 209.354C216.324 210.241 217.05 210.959 217.946 210.959Z" fill="black"/>
<path d="M241.777 210.243C241.953 209.404 241.572 208.617 240.927 208.484C240.281 208.352 239.616 208.925 239.441 209.764C239.265 210.602 239.646 211.389 240.291 211.522C240.936 211.654 241.602 211.081 241.777 210.243Z" fill="black"/>
<path d="M177.993 188.325C171.638 188.883 174.69 210.78 182.423 212.949L188.121 201.001C189.546 193.95 184.364 187.767 177.993 188.325Z" fill="white"/>
<path d="M183.018 214.267L182.126 214.019C175.974 212.283 172.89 200.676 173.532 193.749C174.048 188.372 176.49 187.349 177.899 187.225C179.495 187.094 181.1 187.336 182.584 187.931C184.069 188.526 185.391 189.457 186.446 190.65C187.704 192.075 188.608 193.771 189.089 195.603C189.57 197.434 189.614 199.352 189.217 201.203L189.139 201.466L183.018 214.267ZM178.791 189.472H178.103C176.882 189.58 176.021 191.27 175.755 194.012C175.16 200.351 177.962 209.401 181.86 211.57L187.057 200.723C187.361 199.225 187.314 197.678 186.92 196.2C186.527 194.723 185.797 193.354 184.787 192.199C184.047 191.336 183.129 190.639 182.095 190.156C181.061 189.672 179.935 189.412 178.791 189.394V189.472Z" fill="black"/>
<ellipse rx="2.43216" ry="4.01166" transform="matrix(0.994735 0.102476 -0.104655 0.994509 226.461 237.661)" fill="#F9F9F9"/>
<ellipse cx="217.5" cy="233.5" rx="8.5" ry="3.5" fill="#1B1B1B"/>
</g>
<defs>
<clipPath id="clip0_102_335">
<rect width="270" height="215" fill="white" transform="translate(72 154)"/>
</clipPath>
</defs>
</svg>
