<svg width="415" height="531" viewBox="0 0 415 531" fill="none" xmlns="http://www.w3.org/2000/svg">
<rect y="0.67627" width="415" height="529.461" rx="15" fill="#70C9A3" fill-opacity="0.5"/>
<path d="M74.7503 436V418.72H81.5423C82.6383 418.72 83.5583 418.944 84.3023 419.392C85.0463 419.84 85.6063 420.42 85.9823 421.132C86.3583 421.836 86.5463 422.58 86.5463 423.364C86.5463 424.316 86.3103 425.132 85.8383 425.812C85.3743 426.492 84.7463 426.956 83.9543 427.204L83.9303 426.616C85.0343 426.888 85.8823 427.42 86.4743 428.212C87.0663 428.996 87.3623 429.912 87.3623 430.96C87.3623 431.976 87.1583 432.86 86.7503 433.612C86.3503 434.364 85.7623 434.952 84.9863 435.376C84.2183 435.792 83.2863 436 82.1903 436H74.7503ZM77.2943 433.612H81.8063C82.3743 433.612 82.8823 433.504 83.3303 433.288C83.7863 433.072 84.1423 432.764 84.3983 432.364C84.6623 431.956 84.7943 431.472 84.7943 430.912C84.7943 430.392 84.6783 429.924 84.4463 429.508C84.2223 429.084 83.8943 428.752 83.4623 428.512C83.0383 428.264 82.5383 428.14 81.9623 428.14H77.2943V433.612ZM77.2943 425.776H81.5063C81.9703 425.776 82.3863 425.684 82.7543 425.5C83.1303 425.308 83.4263 425.036 83.6423 424.684C83.8663 424.324 83.9783 423.892 83.9783 423.388C83.9783 422.716 83.7543 422.164 83.3063 421.732C82.8583 421.3 82.2583 421.084 81.5063 421.084H77.2943V425.776ZM95.2943 436.36C93.9663 436.36 92.8383 436.064 91.9103 435.472C90.9823 434.88 90.2703 434.068 89.7743 433.036C89.2863 432.004 89.0383 430.832 89.0303 429.52C89.0383 428.184 89.2943 427.004 89.7983 425.98C90.3023 424.948 91.0223 424.14 91.9583 423.556C92.8943 422.972 94.0183 422.68 95.3303 422.68C96.7463 422.68 97.9543 423.032 98.9543 423.736C99.9623 424.44 100.626 425.404 100.946 426.628L98.4503 427.348C98.2023 426.62 97.7943 426.056 97.2263 425.656C96.6663 425.248 96.0223 425.044 95.2943 425.044C94.4703 425.044 93.7943 425.24 93.2663 425.632C92.7383 426.016 92.3463 426.544 92.0903 427.216C91.8343 427.888 91.7023 428.656 91.6943 429.52C91.7023 430.856 92.0063 431.936 92.6063 432.76C93.2143 433.584 94.1103 433.996 95.2943 433.996C96.1023 433.996 96.7543 433.812 97.2503 433.444C97.7543 433.068 98.1383 432.532 98.4023 431.836L100.946 432.436C100.522 433.7 99.8223 434.672 98.8463 435.352C97.8703 436.024 96.6863 436.36 95.2943 436.36ZM109.139 436.36C107.851 436.36 106.719 436.08 105.743 435.52C104.775 434.952 104.019 434.164 103.475 433.156C102.939 432.14 102.671 430.964 102.671 429.628C102.671 428.212 102.935 426.984 103.463 425.944C103.999 424.904 104.743 424.1 105.695 423.532C106.647 422.964 107.755 422.68 109.019 422.68C110.339 422.68 111.463 422.988 112.391 423.604C113.319 424.212 114.011 425.08 114.467 426.208C114.931 427.336 115.115 428.676 115.019 430.228H112.511V429.316C112.495 427.812 112.207 426.7 111.647 425.98C111.095 425.26 110.251 424.9 109.115 424.9C107.859 424.9 106.915 425.296 106.283 426.088C105.651 426.88 105.335 428.024 105.335 429.52C105.335 430.944 105.651 432.048 106.283 432.832C106.915 433.608 107.827 433.996 109.019 433.996C109.803 433.996 110.479 433.82 111.047 433.468C111.623 433.108 112.071 432.596 112.391 431.932L114.851 432.712C114.347 433.872 113.583 434.772 112.559 435.412C111.535 436.044 110.395 436.36 109.139 436.36ZM104.519 430.228V428.272H113.771V430.228H104.519ZM122.504 436V423.04H124.916V433.744H128.984V423.04H131.396V433.744H135.452V423.04H137.864V436H122.504ZM141.207 436L141.219 423.04H143.763V429.28L148.851 423.04H152.043L146.667 429.52L152.595 436H149.187L143.763 429.76V436H141.207ZM159.199 436.36C157.903 436.36 156.779 436.068 155.827 435.484C154.875 434.9 154.139 434.096 153.619 433.072C153.107 432.04 152.851 430.852 152.851 429.508C152.851 428.156 153.115 426.968 153.643 425.944C154.171 424.912 154.911 424.112 155.863 423.544C156.815 422.968 157.927 422.68 159.199 422.68C160.495 422.68 161.619 422.972 162.571 423.556C163.523 424.14 164.259 424.944 164.779 425.968C165.299 426.992 165.559 428.172 165.559 429.508C165.559 430.86 165.295 432.052 164.767 433.084C164.247 434.108 163.511 434.912 162.559 435.496C161.607 436.072 160.487 436.36 159.199 436.36ZM159.199 433.996C160.439 433.996 161.363 433.58 161.971 432.748C162.587 431.908 162.895 430.828 162.895 429.508C162.895 428.156 162.583 427.076 161.959 426.268C161.343 425.452 160.423 425.044 159.199 425.044C158.359 425.044 157.667 425.236 157.123 425.62C156.579 425.996 156.175 426.52 155.911 427.192C155.647 427.856 155.515 428.628 155.515 429.508C155.515 430.868 155.827 431.956 156.451 432.772C157.075 433.588 157.991 433.996 159.199 433.996ZM166.996 436V433.876C167.476 433.964 167.84 433.952 168.088 433.84C168.344 433.72 168.532 433.504 168.652 433.192C168.78 432.88 168.888 432.476 168.976 431.98C169.112 431.252 169.228 430.424 169.324 429.496C169.428 428.56 169.52 427.548 169.6 426.46C169.68 425.372 169.752 424.232 169.816 423.04H179.128V436H176.608V425.404H172.072C172.024 426.036 171.968 426.708 171.904 427.42C171.848 428.124 171.784 428.824 171.712 429.52C171.64 430.216 171.564 430.868 171.484 431.476C171.404 432.084 171.32 432.604 171.232 433.036C171.072 433.9 170.836 434.588 170.524 435.1C170.22 435.604 169.788 435.928 169.228 436.072C168.668 436.224 167.924 436.2 166.996 436ZM182.481 436V423.04H185.001V427.54H186.705C187.073 427.54 187.469 427.548 187.893 427.564C188.317 427.58 188.677 427.62 188.973 427.684C189.669 427.828 190.273 428.068 190.785 428.404C191.297 428.74 191.689 429.188 191.961 429.748C192.241 430.3 192.381 430.98 192.381 431.788C192.381 432.916 192.089 433.816 191.505 434.488C190.921 435.152 190.129 435.6 189.129 435.832C188.809 435.904 188.429 435.952 187.989 435.976C187.557 435.992 187.157 436 186.789 436H182.481ZM185.001 433.984H186.933C187.141 433.984 187.373 433.976 187.629 433.96C187.885 433.944 188.121 433.908 188.337 433.852C188.713 433.74 189.053 433.512 189.357 433.168C189.661 432.824 189.813 432.364 189.813 431.788C189.813 431.196 189.661 430.724 189.357 430.372C189.061 430.02 188.685 429.792 188.229 429.688C188.021 429.632 187.801 429.596 187.569 429.58C187.345 429.564 187.133 429.556 186.933 429.556H185.001V433.984ZM193.809 436V423.04H196.317V436H193.809ZM204.477 436V418.72H211.461C211.629 418.72 211.837 418.728 212.085 418.744C212.333 418.752 212.569 418.776 212.793 418.816C213.753 418.968 214.553 419.296 215.193 419.8C215.841 420.304 216.325 420.94 216.645 421.708C216.965 422.476 217.125 423.324 217.125 424.252C217.125 425.188 216.965 426.04 216.645 426.808C216.325 427.576 215.841 428.212 215.193 428.716C214.553 429.22 213.753 429.548 212.793 429.7C212.569 429.732 212.329 429.756 212.073 429.772C211.825 429.788 211.621 429.796 211.461 429.796H206.985V436H204.477ZM206.985 427.42H211.365C211.525 427.42 211.701 427.412 211.893 427.396C212.093 427.38 212.281 427.352 212.457 427.312C212.969 427.192 213.381 426.972 213.693 426.652C214.005 426.324 214.229 425.948 214.365 425.524C214.501 425.1 214.569 424.676 214.569 424.252C214.569 423.828 214.501 423.408 214.365 422.992C214.229 422.568 214.005 422.196 213.693 421.876C213.381 421.548 212.969 421.324 212.457 421.204C212.281 421.156 212.093 421.124 211.893 421.108C211.701 421.092 211.525 421.084 211.365 421.084H206.985V427.42ZM225.272 436.36C223.984 436.36 222.852 436.08 221.876 435.52C220.908 434.952 220.152 434.164 219.608 433.156C219.072 432.14 218.804 430.964 218.804 429.628C218.804 428.212 219.068 426.984 219.596 425.944C220.132 424.904 220.876 424.1 221.828 423.532C222.78 422.964 223.888 422.68 225.152 422.68C226.472 422.68 227.596 422.988 228.524 423.604C229.452 424.212 230.144 425.08 230.6 426.208C231.064 427.336 231.248 428.676 231.152 430.228H228.644V429.316C228.628 427.812 228.34 426.7 227.78 425.98C227.228 425.26 226.384 424.9 225.248 424.9C223.992 424.9 223.048 425.296 222.416 426.088C221.784 426.88 221.468 428.024 221.468 429.52C221.468 430.944 221.784 432.048 222.416 432.832C223.048 433.608 223.96 433.996 225.152 433.996C225.936 433.996 226.612 433.82 227.18 433.468C227.756 433.108 228.204 432.596 228.524 431.932L230.984 432.712C230.48 433.872 229.716 434.772 228.692 435.412C227.668 436.044 226.528 436.36 225.272 436.36ZM220.652 430.228V428.272H229.904V430.228H220.652ZM239.388 436.36C238.06 436.36 236.932 436.064 236.004 435.472C235.076 434.88 234.364 434.068 233.868 433.036C233.38 432.004 233.132 430.832 233.124 429.52C233.132 428.184 233.388 427.004 233.892 425.98C234.396 424.948 235.116 424.14 236.052 423.556C236.988 422.972 238.112 422.68 239.424 422.68C240.84 422.68 242.048 423.032 243.048 423.736C244.056 424.44 244.72 425.404 245.04 426.628L242.544 427.348C242.296 426.62 241.888 426.056 241.32 425.656C240.76 425.248 240.116 425.044 239.388 425.044C238.564 425.044 237.888 425.24 237.36 425.632C236.832 426.016 236.44 426.544 236.184 427.216C235.928 427.888 235.796 428.656 235.788 429.52C235.796 430.856 236.1 431.936 236.7 432.76C237.308 433.584 238.204 433.996 239.388 433.996C240.196 433.996 240.848 433.812 241.344 433.444C241.848 433.068 242.232 432.532 242.496 431.836L245.04 432.436C244.616 433.7 243.916 434.672 242.94 435.352C241.964 436.024 240.78 436.36 239.388 436.36ZM247.473 436V423.04H258.405V436H255.897V425.404H249.981V436H247.473ZM263.51 441.76L266.018 434.932L266.054 436.948L260.402 423.04H263.018L267.242 433.78H266.474L270.506 423.04H273.05L265.898 441.76H263.51ZM280.258 436.372C279.026 436.364 277.978 436.096 277.114 435.568C276.25 435.04 275.574 434.28 275.086 433.288C274.606 432.288 274.326 431.084 274.246 429.676C274.206 428.996 274.21 428.244 274.258 427.42C274.306 426.588 274.394 425.784 274.522 425.008C274.658 424.232 274.83 423.584 275.038 423.064C275.27 422.488 275.586 421.96 275.986 421.48C276.386 420.992 276.826 420.584 277.306 420.256C277.818 419.904 278.386 419.632 279.01 419.44C279.634 419.24 280.286 419.084 280.966 418.972C281.654 418.86 282.346 418.764 283.042 418.684C283.746 418.596 284.43 418.488 285.094 418.36L285.334 420.604C284.894 420.708 284.374 420.792 283.774 420.856C283.182 420.92 282.566 420.992 281.926 421.072C281.294 421.152 280.69 421.264 280.114 421.408C279.538 421.552 279.038 421.756 278.614 422.02C278.014 422.388 277.554 422.924 277.234 423.628C276.922 424.332 276.734 425.096 276.67 425.92C277.166 425.168 277.798 424.628 278.566 424.3C279.334 423.964 280.13 423.796 280.954 423.796C282.106 423.796 283.098 424.068 283.93 424.612C284.77 425.156 285.414 425.896 285.862 426.832C286.31 427.768 286.534 428.828 286.534 430.012C286.534 431.292 286.27 432.412 285.742 433.372C285.222 434.324 284.49 435.068 283.546 435.604C282.602 436.132 281.506 436.388 280.258 436.372ZM280.39 434.008C281.542 434.008 282.41 433.652 282.994 432.94C283.586 432.228 283.882 431.28 283.882 430.096C283.882 428.88 283.578 427.924 282.97 427.228C282.362 426.532 281.502 426.184 280.39 426.184C279.262 426.184 278.398 426.532 277.798 427.228C277.206 427.924 276.91 428.88 276.91 430.096C276.91 431.328 277.21 432.288 277.81 432.976C278.41 433.664 279.27 434.008 280.39 434.008ZM287.98 436V433.876C288.46 433.964 288.824 433.952 289.072 433.84C289.328 433.72 289.516 433.504 289.636 433.192C289.764 432.88 289.872 432.476 289.96 431.98C290.096 431.252 290.212 430.424 290.308 429.496C290.412 428.56 290.504 427.548 290.584 426.46C290.664 425.372 290.736 424.232 290.8 423.04H300.112V436H297.592V425.404H293.056C293.008 426.036 292.952 426.708 292.888 427.42C292.832 428.124 292.768 428.824 292.696 429.52C292.624 430.216 292.548 430.868 292.468 431.476C292.388 432.084 292.304 432.604 292.216 433.036C292.056 433.9 291.82 434.588 291.508 435.1C291.204 435.604 290.772 435.928 290.212 436.072C289.652 436.224 288.908 436.2 287.98 436ZM314.397 423.04V436H311.985V426.988L305.505 436H303.465V423.04H305.877V431.872L312.369 423.04H314.397ZM317.738 436L317.75 423.04H320.294V429.28L325.382 423.04H328.574L323.198 429.52L329.126 436H325.718L320.294 429.76V436H317.738ZM341.256 423.04V436H338.844V426.988L332.364 436H330.324V423.04H332.736V431.872L339.228 423.04H341.256Z" fill="#060606"/>
<path d="M110.551 469V456.04H116.443C116.867 456.04 117.263 456.064 117.631 456.112C117.999 456.16 118.315 456.22 118.579 456.292C119.203 456.476 119.755 456.836 120.235 457.372C120.715 457.9 120.955 458.632 120.955 459.568C120.955 460.12 120.867 460.576 120.691 460.936C120.515 461.288 120.283 461.584 119.995 461.824C119.859 461.936 119.719 462.032 119.575 462.112C119.431 462.192 119.287 462.256 119.143 462.304C119.455 462.352 119.751 462.444 120.031 462.58C120.471 462.796 120.839 463.116 121.135 463.54C121.439 463.964 121.591 464.56 121.591 465.328C121.591 466.2 121.379 466.936 120.955 467.536C120.539 468.128 119.927 468.54 119.119 468.772C118.823 468.852 118.483 468.912 118.099 468.952C117.715 468.984 117.323 469 116.923 469H110.551ZM113.479 466.768H116.719C116.887 466.768 117.071 466.752 117.271 466.72C117.471 466.688 117.651 466.644 117.811 466.588C118.099 466.484 118.307 466.3 118.435 466.036C118.571 465.772 118.639 465.496 118.639 465.208C118.639 464.816 118.539 464.504 118.339 464.272C118.147 464.032 117.915 463.872 117.643 463.792C117.483 463.728 117.307 463.692 117.115 463.684C116.931 463.668 116.779 463.66 116.659 463.66H113.479V466.768ZM113.479 461.392H115.879C116.127 461.392 116.367 461.38 116.599 461.356C116.839 461.324 117.039 461.272 117.199 461.2C117.463 461.096 117.655 460.92 117.775 460.672C117.903 460.424 117.967 460.148 117.967 459.844C117.967 459.524 117.895 459.236 117.751 458.98C117.615 458.716 117.395 458.54 117.091 458.452C116.891 458.372 116.647 458.328 116.359 458.32C116.079 458.312 115.899 458.308 115.819 458.308H113.479V461.392ZM134.509 469.36C133.213 469.36 132.081 469.068 131.113 468.484C130.145 467.9 129.393 467.096 128.857 466.072C128.329 465.04 128.065 463.856 128.065 462.52C128.065 461.16 128.337 459.968 128.881 458.944C129.425 457.92 130.181 457.12 131.149 456.544C132.117 455.968 133.237 455.68 134.509 455.68C135.813 455.68 136.949 455.972 137.917 456.556C138.885 457.14 139.637 457.948 140.173 458.98C140.709 460.004 140.977 461.184 140.977 462.52C140.977 463.864 140.705 465.052 140.161 466.084C139.625 467.108 138.873 467.912 137.905 468.496C136.937 469.072 135.805 469.36 134.509 469.36ZM134.509 466.648C135.661 466.648 136.517 466.264 137.077 465.496C137.637 464.728 137.917 463.736 137.917 462.52C137.917 461.264 137.633 460.264 137.065 459.52C136.497 458.768 135.645 458.392 134.509 458.392C133.733 458.392 133.093 458.568 132.589 458.92C132.093 459.264 131.725 459.748 131.485 460.372C131.245 460.988 131.125 461.704 131.125 462.52C131.125 463.776 131.409 464.78 131.977 465.532C132.553 466.276 133.397 466.648 134.509 466.648ZM142.661 471.88V466.732C143.365 466.732 143.865 466.492 144.161 466.012C144.457 465.532 144.693 464.7 144.869 463.516C144.981 462.812 145.073 462.068 145.145 461.284C145.217 460.5 145.277 459.672 145.325 458.8C145.381 457.928 145.429 457.008 145.469 456.04H155.117V466.732H156.425V471.88H153.689V469H145.385V471.88H142.661ZM146.537 466.732H152.237V458.308H148.001C147.977 458.788 147.949 459.28 147.917 459.784C147.885 460.28 147.849 460.776 147.809 461.272C147.769 461.768 147.725 462.244 147.677 462.7C147.637 463.148 147.589 463.564 147.533 463.948C147.445 464.62 147.337 465.172 147.209 465.604C147.081 466.036 146.857 466.412 146.537 466.732ZM158.808 469V456.04H161.7V461.152H167.52V456.04H170.412V469H167.52V463.864H161.7V469H158.808ZM179.486 469.36C178.19 469.36 177.058 469.068 176.09 468.484C175.122 467.9 174.37 467.096 173.834 466.072C173.306 465.04 173.042 463.856 173.042 462.52C173.042 461.16 173.314 459.968 173.858 458.944C174.402 457.92 175.158 457.12 176.126 456.544C177.094 455.968 178.214 455.68 179.486 455.68C180.79 455.68 181.926 455.972 182.894 456.556C183.862 457.14 184.614 457.948 185.15 458.98C185.686 460.004 185.954 461.184 185.954 462.52C185.954 463.864 185.682 465.052 185.138 466.084C184.602 467.108 183.85 467.912 182.882 468.496C181.914 469.072 180.782 469.36 179.486 469.36ZM179.486 466.648C180.638 466.648 181.494 466.264 182.054 465.496C182.614 464.728 182.894 463.736 182.894 462.52C182.894 461.264 182.61 460.264 182.042 459.52C181.474 458.768 180.622 458.392 179.486 458.392C178.71 458.392 178.07 458.568 177.566 458.92C177.07 459.264 176.702 459.748 176.462 460.372C176.222 460.988 176.102 461.704 176.102 462.52C176.102 463.776 176.386 464.78 176.954 465.532C177.53 466.276 178.374 466.648 179.486 466.648ZM194.586 454.576C193.922 454.576 193.314 454.412 192.762 454.084C192.21 453.756 191.77 453.32 191.442 452.776C191.114 452.224 190.95 451.612 190.95 450.94H193.206C193.206 451.324 193.338 451.652 193.602 451.924C193.874 452.188 194.202 452.32 194.586 452.32C194.97 452.32 195.294 452.188 195.558 451.924C195.83 451.652 195.966 451.324 195.966 450.94H198.222C198.222 451.612 198.058 452.224 197.73 452.776C197.402 453.32 196.962 453.756 196.41 454.084C195.858 454.412 195.25 454.576 194.586 454.576ZM199.83 456.04V469H197.058V460.54L190.89 469H188.574V456.04H191.346V464.284L197.538 456.04H199.83ZM213.632 469.36C212.296 469.36 211.156 469.064 210.212 468.472C209.268 467.872 208.544 467.056 208.04 466.024C207.544 464.992 207.292 463.824 207.284 462.52C207.292 461.192 207.552 460.016 208.064 458.992C208.584 457.96 209.32 457.152 210.272 456.568C211.224 455.976 212.356 455.68 213.668 455.68C215.14 455.68 216.384 456.052 217.4 456.796C218.424 457.532 219.092 458.54 219.404 459.82L216.524 460.6C216.3 459.904 215.928 459.364 215.408 458.98C214.888 458.588 214.296 458.392 213.632 458.392C212.88 458.392 212.26 458.572 211.772 458.932C211.284 459.284 210.924 459.772 210.692 460.396C210.46 461.02 210.344 461.728 210.344 462.52C210.344 463.752 210.62 464.748 211.172 465.508C211.724 466.268 212.544 466.648 213.632 466.648C214.4 466.648 215.004 466.472 215.444 466.12C215.892 465.768 216.228 465.26 216.452 464.596L219.404 465.256C219.004 466.576 218.304 467.592 217.304 468.304C216.304 469.008 215.08 469.36 213.632 469.36ZM233.041 456.04V469H230.269V460.54L224.101 469H221.785V456.04H224.557V464.284L230.749 456.04H233.041ZM242.038 469.36C240.702 469.36 239.562 469.064 238.618 468.472C237.674 467.872 236.95 467.056 236.446 466.024C235.95 464.992 235.698 463.824 235.69 462.52C235.698 461.192 235.958 460.016 236.47 458.992C236.99 457.96 237.726 457.152 238.678 456.568C239.63 455.976 240.762 455.68 242.074 455.68C243.546 455.68 244.79 456.052 245.806 456.796C246.83 457.532 247.498 458.54 247.81 459.82L244.93 460.6C244.706 459.904 244.334 459.364 243.814 458.98C243.294 458.588 242.702 458.392 242.038 458.392C241.286 458.392 240.666 458.572 240.178 458.932C239.69 459.284 239.33 459.772 239.098 460.396C238.866 461.02 238.75 461.728 238.75 462.52C238.75 463.752 239.026 464.748 239.578 465.508C240.13 466.268 240.95 466.648 242.038 466.648C242.806 466.648 243.41 466.472 243.85 466.12C244.298 465.768 244.634 465.26 244.858 464.596L247.81 465.256C247.41 466.576 246.71 467.592 245.71 468.304C244.71 469.008 243.486 469.36 242.038 469.36ZM253.397 469V458.608H249.065V456.04H260.621V458.608H256.289V469H253.397ZM268.787 469.36C267.475 469.36 266.323 469.076 265.331 468.508C264.339 467.94 263.563 467.152 263.003 466.144C262.451 465.136 262.175 463.976 262.175 462.664C262.175 461.248 262.447 460.02 262.991 458.98C263.535 457.932 264.291 457.12 265.259 456.544C266.227 455.968 267.347 455.68 268.619 455.68C269.963 455.68 271.103 455.996 272.039 456.628C272.983 457.252 273.683 458.136 274.139 459.28C274.595 460.424 274.767 461.772 274.655 463.324H271.787V462.268C271.779 460.86 271.531 459.832 271.043 459.184C270.555 458.536 269.787 458.212 268.739 458.212C267.555 458.212 266.675 458.58 266.099 459.316C265.523 460.044 265.235 461.112 265.235 462.52C265.235 463.832 265.523 464.848 266.099 465.568C266.675 466.288 267.515 466.648 268.619 466.648C269.331 466.648 269.943 466.492 270.455 466.18C270.975 465.86 271.375 465.4 271.655 464.8L274.511 465.664C274.015 466.832 273.247 467.74 272.207 468.388C271.175 469.036 270.035 469.36 268.787 469.36ZM264.323 463.324V461.14H273.239V463.324H264.323ZM276.957 469V456.04H279.333L283.977 464.992L288.633 456.04H290.997V469H288.237V461.86L284.553 469H283.413L279.729 461.86V469H276.957ZM300.24 469.36C298.928 469.36 297.776 469.076 296.784 468.508C295.792 467.94 295.016 467.152 294.456 466.144C293.904 465.136 293.628 463.976 293.628 462.664C293.628 461.248 293.9 460.02 294.444 458.98C294.988 457.932 295.744 457.12 296.712 456.544C297.68 455.968 298.8 455.68 300.072 455.68C301.416 455.68 302.556 455.996 303.492 456.628C304.436 457.252 305.136 458.136 305.592 459.28C306.048 460.424 306.22 461.772 306.108 463.324H303.24V462.268C303.232 460.86 302.984 459.832 302.496 459.184C302.008 458.536 301.24 458.212 300.192 458.212C299.008 458.212 298.128 458.58 297.552 459.316C296.976 460.044 296.688 461.112 296.688 462.52C296.688 463.832 296.976 464.848 297.552 465.568C298.128 466.288 298.968 466.648 300.072 466.648C300.784 466.648 301.396 466.492 301.908 466.18C302.428 465.86 302.828 465.4 303.108 464.8L305.964 465.664C305.468 466.832 304.7 467.74 303.66 468.388C302.628 469.036 301.488 469.36 300.24 469.36ZM295.776 463.324V461.14H304.692V463.324H295.776Z" fill="#31BAAE"/>
<g clip-path="url(#clip0_120_193)">
<path d="M188.356 205.522H110.428V98H188.356V205.522ZM111.376 204.622H187.408V98.9007H111.376V204.622Z" fill="black"/>
<path d="M348.857 194.173H238.977V127.833H348.857V194.173ZM239.925 193.272H347.909V128.734H239.925V193.272Z" fill="black"/>
<path d="M243.31 280.14C240.921 272.268 238.095 271.646 224.053 282.716C180.619 316.945 178.41 344.174 178.41 344.174L198.975 357.262L222.385 340.526L244.325 309.901" fill="white"/>
<path d="M198.994 357.785L177.917 344.399V344.138C177.917 343.859 180.647 316.341 223.731 282.365C232.501 275.456 236.815 273.195 239.631 274.015C241.717 274.628 242.788 276.861 243.746 280.023L242.798 280.266C241.774 276.861 240.759 275.303 239.318 274.862C236.891 274.15 232.681 276.438 224.309 283.041C183.786 314.99 179.244 341.076 178.865 343.931L198.918 356.668L222.034 340.148L243.936 309.622L244.713 310.135L222.726 340.76L222.669 340.805L198.994 357.785Z" fill="black"/>
<path d="M192.66 343.445C205.934 336.707 212.069 342.994 212.069 342.994C214.913 342.373 220.09 340.932 223.835 347.498C223.835 347.498 223.608 356.244 220.697 356.37C220.033 356.37 212.951 362.054 212.164 362.081C199.838 362.532 179.168 362.595 177.822 358.91C175.414 352.308 177.339 343.985 180.211 336.221" fill="white"/>
<path d="M200.89 362.775C189.958 362.775 178.476 362.054 177.395 359.082C175.319 353.398 176.078 346.093 179.785 336.095L180.676 336.401C177.102 346.057 176.315 353.38 178.287 358.785C179.235 361.28 192.177 362.388 212.164 361.658C213.64 360.763 215.058 359.786 216.411 358.731C219.607 356.407 220.28 355.965 220.678 355.947C222.356 355.875 223.247 351.083 223.361 347.633C219.938 341.724 215.473 342.697 212.515 343.355L211.908 343.49L211.718 343.301C211.481 343.048 205.66 337.356 192.888 343.85L192.442 343.049C204.768 336.806 211.026 341.445 212.211 342.499H212.306C215.15 341.878 220.479 340.698 224.253 347.345L224.309 347.444V347.57C224.309 348.471 223.978 356.74 220.716 356.875C220.413 356.983 218.431 358.424 216.99 359.469C213.709 361.874 212.685 362.568 212.249 362.586C208.836 362.667 204.92 362.775 200.89 362.775Z" fill="black"/>
<path d="M206.295 339.923C202.12 335.071 196.326 331.718 189.873 330.42Z" fill="white"/>
<path d="M205.915 340.148C201.784 335.397 196.084 332.112 189.74 330.825L189.939 329.924C196.529 331.22 202.445 334.641 206.683 339.607L205.915 340.148Z" fill="black"/>
<path d="M308.485 257.63L246.998 253.748L203.422 362.063L316.819 362.351L349.17 281.392L341.253 279.987L308.485 257.63Z" fill="white"/>
<path d="M317.142 362.793L202.739 362.505L246.676 253.271L308.656 257.18L308.76 257.252L341.443 279.555L349.815 281.041L349.615 281.545L317.142 362.793ZM204.095 361.604L316.469 361.892L348.506 281.726L340.921 280.347L308.267 258.063L247.264 254.208L204.095 361.604Z" fill="black"/>
<path d="M282.961 289.553C282.961 289.553 283.236 282.518 276.192 266.305C268.275 248.082 264.643 245.822 264.643 245.822C266.625 241.606 279.7 235.643 290.11 238.435C300.521 241.228 297.25 233.688 314.411 242.876C331.572 252.064 340.106 265.863 337.403 270.088C337.403 270.088 318.697 278.194 308.599 279.87C296.757 281.851 289.276 284.59 282.961 289.553Z" fill="white"/>
<path d="M282.459 290.544V289.544C282.459 289.472 282.63 282.338 275.718 266.476C268.028 248.794 264.34 246.218 264.34 246.191L264.027 245.984L264.179 245.642C266.189 241.363 279.491 235.13 290.196 238.003C292.671 238.804 295.345 238.864 297.857 238.174C300.967 237.445 303.906 236.751 314.601 242.48C328.254 249.785 336.294 259.756 337.991 265.899C338.503 267.701 338.428 269.268 337.773 270.295L337.688 270.412L337.555 270.475C337.375 270.556 318.678 278.582 308.637 280.284C296.7 282.284 289.342 285.058 283.227 289.877L282.459 290.544ZM265.241 245.714C266.302 246.677 269.981 250.812 276.618 266.134C282.307 279.14 283.255 286.229 283.407 288.652C289.504 284.085 296.871 281.392 308.504 279.447C317.986 277.861 335.318 270.502 337.053 269.755C337.513 268.593 337.513 267.313 337.053 266.152C335.356 259.972 326.927 250.127 314.117 243.273C303.754 237.715 300.985 238.363 298.065 239.048C295.395 239.781 292.552 239.718 289.921 238.868C279.946 236.175 267.62 241.687 265.241 245.714Z" fill="black"/>
<path d="M263.287 354.677L262.339 354.389C262.624 353.596 290.338 274.79 286.659 261.864C282.98 248.938 277.234 244.912 277.177 244.867L277.737 244.137C277.983 244.308 283.805 248.425 287.569 261.63C291.333 274.835 264.435 351.416 263.287 354.677Z" fill="black"/>
<path d="M280.999 241.885L278.97 245.822C278.97 245.822 286.014 254.199 286.962 261.062C287.519 265.339 287.378 269.671 286.545 273.907L303.612 263.72L314.392 241.336" fill="white"/>
<path d="M285.853 274.853L286.09 273.808C286.898 269.621 287.032 265.342 286.488 261.117C285.54 254.469 278.666 246.182 278.6 246.101L278.41 245.876L280.572 241.687L281.425 242.084L279.529 245.768C280.686 247.182 286.564 254.649 287.446 260.999C287.945 264.984 287.868 269.015 287.218 272.979L303.261 263.404L313.984 241.147L314.847 241.525L304.01 264.044L285.853 274.853Z" fill="black"/>
<path d="M344.552 209.368C343.737 217.196 343.197 226.654 339.157 230.599L338.323 232.571C338.323 232.571 338.323 236.985 332.634 245.533C326.945 254.081 327.012 255.009 320.925 260.783C314.838 266.557 305.546 267.836 298.909 264.485C292.272 261.134 279.633 246.371 279.188 240.768C278.742 235.166 284.364 215.547 284.364 215.547" fill="white"/>
<path d="M306.911 266.755C304.034 266.778 301.195 266.128 298.644 264.864C292.007 261.504 279.15 246.786 278.666 240.778C278.221 235.166 283.635 216.178 283.862 215.368L284.81 215.611C284.753 215.8 279.207 235.247 279.643 240.715C280.06 245.975 292.253 260.594 299.118 264.062C305.812 267.449 314.876 265.936 320.65 260.459C325.448 255.955 326.339 254.487 329.43 249.722C330.217 248.497 331.136 247.02 332.274 245.291C337.783 236.959 337.849 232.617 337.849 232.572V232.41L338.797 230.284C342.324 226.843 343.121 218.782 343.822 211.675C343.898 210.882 343.984 210.089 344.059 209.324L345.008 209.414C344.922 210.179 344.846 210.963 344.771 211.765C344.059 218.971 343.244 227.141 339.537 230.843L338.778 232.644C338.778 233.338 338.333 237.751 333.09 245.75C331.933 247.506 331.013 248.939 330.245 250.164C327.23 254.866 326.206 256.469 321.333 261.072C317.497 264.691 312.317 266.733 306.911 266.755V266.755Z" fill="black"/>
<path d="M279.207 231.292C278.827 237.949 290.101 227.689 290.101 227.689C290.101 227.689 297.43 224.987 295.96 214.178C294.491 203.369 309.177 202.883 309.177 202.883C321.901 203.126 329.6 216.079 329.6 216.079C329.6 216.079 340.286 211.125 344.571 213.376L344.846 215.178C350.279 198.649 337.811 190.083 321.437 186.003C305.062 181.922 290.442 183.084 286.896 192.371C283.35 201.658 280.449 209.296 279.207 231.292Z" fill="black"/>
<path d="M328.463 228.87C327.037 229.665 325.811 230.747 324.872 232.04C323.934 233.333 323.305 234.806 323.03 236.355C322.081 241.705 324.67 243.822 323.21 246.263C321.75 248.704 318.156 248.965 315.625 244.984" fill="white"/>
<path d="M320.128 248.452C319.048 248.452 317.009 248.01 315.217 245.173L316.033 244.714C317.189 246.515 318.64 247.551 320.128 247.551C320.677 247.539 321.212 247.389 321.679 247.115C322.146 246.841 322.527 246.454 322.783 245.993C323.4 244.984 323.163 243.984 322.84 242.615C322.259 240.559 322.159 238.407 322.546 236.31C322.829 234.691 323.486 233.152 324.47 231.803C325.453 230.454 326.739 229.33 328.235 228.509L328.671 229.311C327.314 230.078 326.148 231.116 325.252 232.352C324.357 233.588 323.754 234.993 323.485 236.472C323.123 238.462 323.223 240.503 323.779 242.453C324.12 243.912 324.414 245.155 323.618 246.479C323.274 247.072 322.773 247.57 322.164 247.922C321.555 248.275 320.86 248.47 320.147 248.488L320.128 248.452Z" fill="black"/>
<path d="M305.868 225.267C305.868 225.267 315.843 225.771 320.915 228.716Z" fill="white"/>
<path d="M320.422 229.482C315.615 226.69 305.916 226.167 305.821 226.167L305.925 224.366C306.343 224.366 316.194 224.915 321.408 227.969L320.422 229.482Z" fill="black"/>
<path d="M329.866 228.158C329.866 228.158 332.71 225.411 339.726 228.347Z" fill="white"/>
<path d="M339.338 229.176C333.127 226.564 330.567 228.77 330.539 228.788L329.193 227.518C329.325 227.392 332.606 224.375 340.106 227.518L339.338 229.176Z" fill="black"/>
<path d="M305.356 227.663C305.356 227.663 314.762 227.555 317.275 230.365Z" fill="white"/>
<path d="M316.924 230.689C314.582 228.041 305.47 228.113 305.375 228.113V227.212C305.764 227.212 315.027 227.131 317.701 230.104L316.924 230.689Z" fill="black"/>
<path d="M328.244 234.545C328.244 234.545 332.729 233.31 336.086 234.887Z" fill="white"/>
<path d="M335.886 235.292C332.748 233.806 328.434 234.968 328.396 234.977L328.131 234.076C328.32 234.022 332.871 232.806 336.313 234.446L335.886 235.292Z" fill="black"/>
<path d="M310.353 231.905C311.385 231.905 312.221 231.11 312.221 230.13C312.221 229.15 311.385 228.356 310.353 228.356C309.322 228.356 308.485 229.15 308.485 230.13C308.485 231.11 309.322 231.905 310.353 231.905Z" fill="black"/>
<path d="M331.801 236.054C332.037 235.208 331.625 234.37 330.881 234.183C330.137 233.996 329.343 234.53 329.107 235.377C328.871 236.223 329.283 237.061 330.027 237.248C330.771 237.435 331.566 236.901 331.801 236.054Z" fill="black"/>
<path d="M283.303 206.837C277.775 206.054 275.841 224.501 281.956 227.771L289.276 219.141C291.94 213.701 288.83 207.639 283.303 206.837Z" fill="white"/>
<path d="M282.07 228.383L281.719 228.194C277.235 225.798 276.893 215.998 278.875 210.575C279.937 207.63 281.53 206.153 283.388 206.414C284.696 206.605 285.938 207.087 287.014 207.819C288.089 208.552 288.968 209.514 289.58 210.629C290.311 211.975 290.704 213.463 290.729 214.978C290.754 216.492 290.409 217.991 289.722 219.358L289.665 219.448L282.07 228.383ZM283.018 207.288C281.283 207.288 280.174 209.756 279.804 210.891C277.832 216.349 278.467 224.897 281.9 227.23L288.916 218.952C289.529 217.719 289.834 216.368 289.81 215.005C289.785 213.641 289.431 212.301 288.774 211.089C288.232 210.096 287.452 209.239 286.496 208.586C285.541 207.934 284.437 207.504 283.274 207.333V207.333L283.018 207.288Z" fill="black"/>
<path d="M303.602 361.901H30.8604L303.602 362.802V361.901Z" fill="black"/>
<path d="M215.473 346.705C202.749 346.705 192.433 353.533 192.433 361.964H238.513C238.484 353.533 228.168 346.705 215.473 346.705Z" fill="white"/>
<path d="M238.958 362.414H191.93V361.964C191.93 353.299 202.474 346.255 215.444 346.255C228.415 346.255 238.958 353.299 238.958 361.964V362.414ZM192.888 361.514H238C237.64 353.56 227.656 347.156 215.444 347.156C203.232 347.156 193.248 353.56 192.888 361.514Z" fill="black"/>
<path d="M192.243 354.335C192.187 353.736 192.291 353.134 192.546 352.584C192.802 352.034 193.2 351.555 193.703 351.191C194.67 350.564 195.745 350.103 196.88 349.831C196.88 349.831 196.7 346.381 199.591 345.138C200.266 344.859 200.994 344.715 201.729 344.715C202.465 344.715 203.193 344.859 203.868 345.138C203.868 345.138 205.072 342.094 208.295 341.787C211.519 341.481 212.903 342.373 212.903 342.373C214.429 341.571 216.174 341.225 217.909 341.382C221.133 341.535 223.883 343.679 225.333 347.129C226.784 350.579 226.537 354.416 225.732 355.641C224.926 356.866 221.806 356.497 221.294 355.641C220.907 355.008 220.417 354.437 219.844 353.947C219.649 354.472 219.288 354.926 218.811 355.248C218.334 355.571 217.765 355.746 217.179 355.749C215.881 355.631 214.647 355.151 213.633 354.371C213.544 354.902 213.274 355.392 212.865 355.764C212.456 356.136 211.93 356.371 211.367 356.434C209.357 356.668 206.371 354.911 206.371 354.911C206.371 354.911 206.769 357.055 204.996 357.668C203.223 358.28 198.302 355.371 196.282 355.866" fill="white"/>
<path d="M204.408 358.163C203.056 358.023 201.735 357.686 200.492 357.163C198.975 356.632 197.249 356.037 196.396 356.262L196.168 355.362C197.306 355.1 199.013 355.695 200.824 356.325C202.36 356.866 204.095 357.469 204.834 357.226C206.209 356.749 205.915 355.037 205.906 354.965L205.726 353.983L206.617 354.506C206.617 354.506 209.461 356.181 211.31 355.965C211.778 355.928 212.22 355.743 212.563 355.439C212.907 355.135 213.134 354.73 213.207 354.29L213.33 353.488L213.984 354.01C214.919 354.724 216.052 355.165 217.246 355.28C217.724 355.27 218.188 355.125 218.58 354.864C218.972 354.602 219.273 354.236 219.445 353.812L219.692 353.209L220.204 353.632C220.817 354.152 221.342 354.76 221.759 355.434C222.271 355.835 222.926 356.035 223.589 355.992C223.914 356.041 224.247 356.014 224.559 355.913C224.871 355.813 225.153 355.642 225.381 355.416C226.12 354.29 226.329 350.579 224.935 347.309C223.541 344.039 220.934 341.976 217.928 341.841C216.289 341.691 214.64 342.004 213.188 342.742L212.922 342.913L212.657 342.742C212.657 342.742 211.339 341.949 208.362 342.229C207.47 342.364 206.63 342.716 205.924 343.251C205.217 343.787 204.669 344.486 204.332 345.282L204.142 345.742L203.678 345.534C203.066 345.289 202.408 345.162 201.744 345.162C201.079 345.162 200.421 345.289 199.809 345.534C197.249 346.642 197.373 349.768 197.373 349.804V350.182L196.974 350.263C195.899 350.53 194.879 350.968 193.959 351.56C193.529 351.875 193.189 352.287 192.972 352.76C192.755 353.232 192.667 353.749 192.717 354.263L191.769 354.362C191.693 353.676 191.805 352.983 192.096 352.352C192.387 351.72 192.846 351.171 193.428 350.759C194.343 350.179 195.343 349.729 196.396 349.426C196.396 348.444 196.794 345.823 199.383 344.67C200.72 344.112 202.231 344.054 203.611 344.508C204.038 343.646 204.685 342.901 205.493 342.339C206.301 341.777 207.245 341.417 208.238 341.292C209.807 341.057 211.414 341.235 212.884 341.805C214.442 341.068 216.185 340.756 217.919 340.905C221.304 341.067 224.243 343.319 225.76 346.931C227.192 350.335 227.106 354.362 226.13 355.848C225.823 356.216 225.42 356.502 224.961 356.678C224.502 356.853 224.003 356.912 223.513 356.848C222.479 356.848 221.266 356.497 220.877 355.83C220.608 355.41 220.29 355.02 219.929 354.668C219.642 355.137 219.225 355.522 218.724 355.781C218.222 356.04 217.655 356.163 217.084 356.136C215.916 356.05 214.791 355.674 213.823 355.046C213.626 355.533 213.291 355.958 212.857 356.276C212.422 356.594 211.903 356.792 211.358 356.848C209.831 357.037 207.859 356.199 206.797 355.668C206.796 356.184 206.632 356.689 206.326 357.116C206.02 357.543 205.586 357.873 205.081 358.064C204.863 358.128 204.636 358.162 204.408 358.163V358.163Z" fill="black"/>
<path d="M212.903 342.373C212.903 342.373 216.942 344.598 219.844 353.948Z" fill="white"/>
<path d="M219.389 354.083C216.544 345.075 212.704 342.788 212.666 342.769L213.14 341.986C213.311 342.085 217.378 344.409 220.299 353.822L219.389 354.083Z" fill="black"/>
<path d="M213.633 354.335C213.633 354.335 209.755 347.822 203.867 345.138Z" fill="white"/>
<path d="M213.216 354.56C213.216 354.488 209.348 348.129 203.659 345.552L204.076 344.742C210.03 347.444 213.88 353.848 214.041 354.118L213.216 354.56Z" fill="black"/>
<path d="M196.88 349.831C196.88 349.831 199.506 349.047 206.361 354.875Z" fill="white"/>
<path d="M206.058 355.209C199.601 349.732 197.031 350.263 197.012 350.263L196.737 349.363C197.031 349.273 199.819 348.66 206.683 354.488L206.058 355.209Z" fill="black"/>
<path d="M132.454 141.461H89.3606V142.362H132.454V141.461Z" fill="black"/>
<path d="M329.174 137.678H251.047V138.579H329.174V137.678Z" fill="black"/>
<path d="M306.997 154.738H251.047V155.639H306.997V154.738Z" fill="black"/>
<path d="M176.751 107.656H118.411V108.557H176.751V107.656Z" fill="black"/>
<path d="M132.454 156.873H89.3606V157.774H132.454V156.873Z" fill="black"/>
<path d="M132.454 170.672H89.3606V171.573H132.454V170.672Z" fill="black"/>
<path d="M329.174 163.458C327.452 163.458 325.769 162.973 324.338 162.064C322.906 161.156 321.791 159.864 321.132 158.353C320.473 156.842 320.301 155.18 320.637 153.576C320.973 151.972 321.802 150.498 323.019 149.342C324.236 148.185 325.787 147.398 327.475 147.079C329.164 146.76 330.914 146.924 332.504 147.549C334.095 148.175 335.454 149.235 336.411 150.595C337.367 151.955 337.877 153.553 337.877 155.189C337.875 157.381 336.957 159.483 335.325 161.033C333.694 162.583 331.481 163.455 329.174 163.458V163.458ZM329.174 147.821C327.64 147.821 326.14 148.253 324.865 149.062C323.589 149.872 322.595 151.023 322.008 152.369C321.421 153.715 321.268 155.197 321.567 156.626C321.866 158.056 322.605 159.368 323.689 160.399C324.774 161.429 326.156 162.131 327.661 162.415C329.165 162.7 330.724 162.554 332.141 161.996C333.559 161.438 334.77 160.494 335.622 159.282C336.474 158.071 336.929 156.646 336.929 155.189C336.927 153.235 336.109 151.363 334.655 149.981C333.201 148.6 331.23 147.823 329.174 147.821V147.821Z" fill="black"/>
<path d="M317.284 324.755L328.538 361.964H367.393L350.175 294.805L349.17 281.393" fill="white"/>
<path d="M368 362.415H328.178L328.083 362.09L316.829 324.881L317.739 324.628L328.899 361.514H366.786L349.72 294.913L348.696 281.42L349.644 281.356L350.649 294.778L368 362.415Z" fill="black"/>
<path d="M331.345 328.204L277.386 339.923L290.243 362.063L357.523 361.964" fill="white"/>
<path d="M289.968 362.505L276.666 339.626L331.241 327.772L331.449 328.646L278.107 340.238L290.528 361.604L357.514 361.514L357.523 362.415L289.968 362.505Z" fill="black"/>
<path d="M224.973 362.541L290.243 362.063L277.386 339.923H253.806L224.973 362.541Z" fill="white"/>
<path d="M223.646 362.991L253.635 339.473H277.661L291.049 362.496L223.646 362.991ZM253.986 340.373L226.319 362.072L289.456 361.613L277.13 340.373H253.986Z" fill="black"/>
<path d="M271.413 175.716H39.3177C38.0604 175.716 36.8546 176.191 35.9656 177.035C35.0765 177.88 34.577 179.026 34.577 180.22V329.744C34.577 330.861 36.7009 331.762 39.3177 331.762H271.413C274.039 331.762 276.154 330.861 276.154 329.744V180.22C276.154 179.026 275.654 177.88 274.765 177.035C273.876 176.191 272.67 175.716 271.413 175.716V175.716Z" fill="#D0D5DD"/>
<path d="M190.954 353.713C186.668 349.696 184.118 343.121 184.118 336.104V262.576C184.118 262.419 184.085 262.263 184.022 262.119C183.958 261.974 183.865 261.842 183.748 261.732C183.631 261.621 183.491 261.534 183.339 261.475C183.186 261.415 183.022 261.386 182.857 261.387H127.865C127.533 261.387 127.214 261.512 126.98 261.735C126.745 261.958 126.613 262.26 126.613 262.576V336.104C126.613 343.121 124.062 349.696 119.777 353.713L113.045 360.019H197.657L190.954 353.713Z" fill="white"/>
<path d="M198.842 360.469H111.917L119.502 353.389C123.702 349.462 126.205 342.994 126.205 336.103V262.575C126.205 262.141 126.387 261.724 126.711 261.416C127.034 261.109 127.473 260.936 127.931 260.936H182.923C183.382 260.936 183.821 261.108 184.147 261.416C184.472 261.723 184.656 262.14 184.658 262.575V336.103C184.658 342.994 187.161 349.462 191.352 353.389L198.842 360.469ZM114.221 359.568H196.51L190.603 354.028C186.232 349.93 183.625 343.219 183.625 336.103V262.575C183.622 262.379 183.538 262.191 183.391 262.053C183.244 261.914 183.045 261.837 182.838 261.837H127.846C127.639 261.837 127.442 261.915 127.296 262.053C127.15 262.192 127.068 262.38 127.068 262.575V336.103C127.068 343.228 124.461 349.93 120.09 354.028L114.221 359.568Z" fill="black"/>
<path d="M197.686 360.027H113.074V362.063H197.686V360.027Z" fill="#D0D5DD"/>
<path d="M117.35 360.027L117.331 362.063H113.074V360.027H117.35Z" fill="#D0D5DD"/>
<path d="M119.379 360.027L119.36 362.063H117.331L117.35 360.027H119.379Z" fill="#D0D5DD"/>
<path d="M121.398 360.027L121.389 362.063H119.359L119.378 360.027H121.398Z" fill="#D0D5DD"/>
<path d="M123.427 360.027L123.408 362.063H121.389L121.398 360.027H123.427Z" fill="#D0D5DD"/>
<path d="M125.456 360.027L125.437 362.063H123.408L123.427 360.027H125.456Z" fill="#D0D5DD"/>
<path d="M127.476 360.027L127.466 362.063H125.437L125.456 360.027H127.476Z" fill="#D0D5DD"/>
<path d="M129.505 360.027L129.486 362.063H127.466L127.476 360.027H129.505Z" fill="#D0D5DD"/>
<path d="M131.534 360.027L131.515 362.063H129.486L129.505 360.027H131.534Z" fill="#D0D5DD"/>
<path d="M133.553 360.027L133.544 362.063H131.515L131.534 360.027H133.553Z" fill="#D0D5DD"/>
<path d="M135.582 360.027L135.573 362.063H133.544L133.553 360.027H135.582Z" fill="#D0D5DD"/>
<path d="M137.611 360.027L137.592 362.063H135.573L135.582 360.027H137.611Z" fill="#D0D5DD"/>
<path d="M139.641 360.027L139.622 362.063H137.593L137.611 360.027H139.641Z" fill="#D0D5DD"/>
<path d="M141.66 360.027L141.65 362.063H139.621L139.64 360.027H141.66Z" fill="#D0D5DD"/>
<path d="M143.689 360.027L143.67 362.063H141.65L141.66 360.027H143.689Z" fill="#D0D5DD"/>
<path d="M145.718 360.027L145.699 362.063H143.67L143.689 360.027H145.718Z" fill="#D0D5DD"/>
<path d="M147.738 360.027L147.728 362.063H145.699L145.718 360.027H147.738Z" fill="#D0D5DD"/>
<path d="M149.767 360.027L149.748 362.063H147.728L147.738 360.027H149.767Z" fill="#D0D5DD"/>
<path d="M151.796 360.027L151.777 362.063H149.748L149.767 360.027H151.796Z" fill="#D0D5DD"/>
<path d="M153.815 360.027L153.806 362.063H151.777L151.796 360.027H153.815Z" fill="#D0D5DD"/>
<path d="M155.844 360.027L155.835 362.063H153.806L153.815 360.027H155.844Z" fill="#D0D5DD"/>
<path d="M157.873 360.027L157.854 362.063H155.835L155.844 360.027H157.873Z" fill="#D0D5DD"/>
<path d="M159.902 360.027L159.883 362.063H157.854L157.873 360.027H159.902Z" fill="#D0D5DD"/>
<path d="M161.922 360.027L161.912 362.063H159.883L159.902 360.027H161.922Z" fill="#D0D5DD"/>
<path d="M163.951 360.027L163.932 362.063H161.912L161.922 360.027H163.951Z" fill="#D0D5DD"/>
<path d="M165.98 360.027L165.961 362.063H163.932L163.951 360.027H165.98Z" fill="#D0D5DD"/>
<path d="M167.999 360.027L167.99 362.063H165.961L165.98 360.027H167.999Z" fill="#D0D5DD"/>
<path d="M170.028 360.027L170.009 362.063H167.99L167.999 360.027H170.028Z" fill="#D0D5DD"/>
<path d="M172.057 360.027L172.038 362.063H170.009L170.028 360.027H172.057Z" fill="#D0D5DD"/>
<path d="M174.077 360.027L174.067 362.063H172.038L172.057 360.027H174.077Z" fill="#D0D5DD"/>
<path d="M176.106 360.027L176.096 362.063H174.068L174.077 360.027H176.106Z" fill="#D0D5DD"/>
<path d="M178.135 360.027L178.116 362.063H176.096L176.106 360.027H178.135Z" fill="#D0D5DD"/>
<path d="M180.155 360.027L180.145 362.063H178.116L178.135 360.027H180.155Z" fill="#D0D5DD"/>
<path d="M180.145 362.063L180.154 360.027H197.686V362.063H180.145Z" fill="#D0D5DD"/>
<path d="M254.991 348.98L233.687 362.219L234.206 362.973L255.51 349.734L254.991 348.98Z" fill="black"/>
<path d="M262.588 355.468L250.336 361.912L250.795 362.7L263.047 356.256L262.588 355.468Z" fill="black"/>
<rect x="117.275" y="113.74" width="63.5097" height="19.9368" fill="#31BAAE"/>
<rect x="250.921" y="162.008" width="63.5097" height="9.96841" fill="#31BAAE"/>
<path d="M313.209 256.038C311.27 255.639 309.354 255.136 307.474 254.531C303.66 253.187 303.048 249.34 299.5 247.5L301 246.5C304.461 248.278 304.285 251.908 307.992 253.228C312.08 254.433 316.266 255.317 320.492 255.869L320.368 257.295C320.17 257.24 316.917 256.821 313.209 256.038Z" fill="black"/>
</g>
<defs>
<clipPath id="clip0_120_193">
<rect width="345" height="266" fill="white" transform="translate(23 98)"/>
</clipPath>
</defs>
</svg>
