<svg width="415" height="550" viewBox="0 0 415 550" fill="none" xmlns="http://www.w3.org/2000/svg">
<rect width="415" height="527.233" rx="15" fill="#70C9A3" fill-opacity="0.4"/>
<path d="M52.1605 434.606V417.326H54.6685V424.778H63.3085V417.326H65.8285V434.606H63.3085V427.142H54.6685V434.606H52.1605ZM74.8275 434.966C73.5315 434.966 72.4075 434.674 71.4555 434.09C70.5035 433.506 69.7675 432.702 69.2475 431.678C68.7355 430.646 68.4795 429.458 68.4795 428.114C68.4795 426.762 68.7435 425.574 69.2715 424.55C69.7995 423.518 70.5395 422.718 71.4915 422.15C72.4435 421.574 73.5555 421.286 74.8275 421.286C76.1235 421.286 77.2475 421.578 78.1995 422.162C79.1515 422.746 79.8875 423.55 80.4075 424.574C80.9275 425.598 81.1875 426.778 81.1875 428.114C81.1875 429.466 80.9235 430.658 80.3955 431.69C79.8755 432.714 79.1395 433.518 78.1875 434.102C77.2355 434.678 76.1155 434.966 74.8275 434.966ZM74.8275 432.602C76.0675 432.602 76.9915 432.186 77.5995 431.354C78.2155 430.514 78.5235 429.434 78.5235 428.114C78.5235 426.762 78.2115 425.682 77.5875 424.874C76.9715 424.058 76.0515 423.65 74.8275 423.65C73.9875 423.65 73.2955 423.842 72.7515 424.226C72.2075 424.602 71.8035 425.126 71.5395 425.798C71.2755 426.462 71.1435 427.234 71.1435 428.114C71.1435 429.474 71.4555 430.562 72.0795 431.378C72.7035 432.194 73.6195 432.602 74.8275 432.602ZM88.6172 434.606L88.6292 421.646H91.1732V427.886L96.2612 421.646H99.4532L94.0772 428.126L100.005 434.606H96.5972L91.1732 428.366V434.606H88.6172ZM106.609 434.966C105.313 434.966 104.189 434.674 103.237 434.09C102.285 433.506 101.549 432.702 101.029 431.678C100.517 430.646 100.261 429.458 100.261 428.114C100.261 426.762 100.525 425.574 101.053 424.55C101.581 423.518 102.321 422.718 103.273 422.15C104.225 421.574 105.337 421.286 106.609 421.286C107.905 421.286 109.029 421.578 109.981 422.162C110.933 422.746 111.669 423.55 112.189 424.574C112.709 425.598 112.969 426.778 112.969 428.114C112.969 429.466 112.705 430.658 112.177 431.69C111.657 432.714 110.921 433.518 109.969 434.102C109.017 434.678 107.897 434.966 106.609 434.966ZM106.609 432.602C107.849 432.602 108.773 432.186 109.381 431.354C109.997 430.514 110.305 429.434 110.305 428.114C110.305 426.762 109.993 425.682 109.369 424.874C108.753 424.058 107.833 423.65 106.609 423.65C105.769 423.65 105.077 423.842 104.533 424.226C103.989 424.602 103.585 425.126 103.321 425.798C103.057 426.462 102.925 427.234 102.925 428.114C102.925 429.474 103.237 430.562 103.861 431.378C104.485 432.194 105.401 432.602 106.609 432.602ZM114.406 434.606V432.482C114.886 432.57 115.25 432.558 115.498 432.446C115.754 432.326 115.942 432.11 116.062 431.798C116.19 431.486 116.298 431.082 116.386 430.586C116.522 429.858 116.638 429.03 116.734 428.102C116.838 427.166 116.93 426.154 117.01 425.066C117.09 423.978 117.162 422.838 117.226 421.646H126.538V434.606H124.018V424.01H119.482C119.434 424.642 119.378 425.314 119.314 426.026C119.258 426.73 119.194 427.43 119.122 428.126C119.05 428.822 118.974 429.474 118.894 430.082C118.814 430.69 118.73 431.21 118.642 431.642C118.482 432.506 118.246 433.194 117.934 433.706C117.63 434.21 117.198 434.534 116.638 434.678C116.078 434.83 115.334 434.806 114.406 434.606ZM140.823 421.646V434.606H138.411V425.594L131.931 434.606H129.891V421.646H132.303V430.478L138.795 421.646H140.823ZM151.844 434.606V430.094C151.404 430.318 150.888 430.502 150.296 430.646C149.704 430.782 149.08 430.85 148.424 430.85C147.096 430.85 146.028 430.554 145.22 429.962C144.42 429.362 143.9 428.498 143.66 427.37C143.596 427.034 143.548 426.69 143.516 426.338C143.484 425.978 143.464 425.65 143.456 425.354C143.456 425.058 143.456 424.838 143.456 424.694V421.646H146V424.694C146 424.902 146.008 425.178 146.024 425.522C146.04 425.858 146.084 426.186 146.156 426.506C146.308 427.226 146.612 427.762 147.068 428.114C147.524 428.458 148.168 428.63 149 428.63C149.6 428.63 150.14 428.554 150.62 428.402C151.108 428.242 151.516 428.038 151.844 427.79V421.646H154.376V434.606H151.844ZM163.494 434.966C162.206 434.966 161.074 434.686 160.098 434.126C159.13 433.558 158.374 432.77 157.83 431.762C157.294 430.746 157.026 429.57 157.026 428.234C157.026 426.818 157.29 425.59 157.818 424.55C158.354 423.51 159.098 422.706 160.05 422.138C161.002 421.57 162.11 421.286 163.374 421.286C164.694 421.286 165.818 421.594 166.746 422.21C167.674 422.818 168.366 423.686 168.822 424.814C169.286 425.942 169.47 427.282 169.374 428.834H166.866V427.922C166.85 426.418 166.562 425.306 166.002 424.586C165.45 423.866 164.606 423.506 163.47 423.506C162.214 423.506 161.27 423.902 160.638 424.694C160.006 425.486 159.69 426.63 159.69 428.126C159.69 429.55 160.006 430.654 160.638 431.438C161.27 432.214 162.182 432.602 163.374 432.602C164.158 432.602 164.834 432.426 165.402 432.074C165.978 431.714 166.426 431.202 166.746 430.538L169.206 431.318C168.702 432.478 167.938 433.378 166.914 434.018C165.89 434.65 164.75 434.966 163.494 434.966ZM158.874 428.834V426.878H168.126V428.834H158.874ZM177.611 434.966C176.283 434.966 175.155 434.67 174.227 434.078C173.299 433.486 172.587 432.674 172.091 431.642C171.603 430.61 171.355 429.438 171.347 428.126C171.355 426.79 171.611 425.61 172.115 424.586C172.619 423.554 173.339 422.746 174.275 422.162C175.211 421.578 176.335 421.286 177.647 421.286C179.063 421.286 180.271 421.638 181.271 422.342C182.279 423.046 182.943 424.01 183.263 425.234L180.767 425.954C180.519 425.226 180.111 424.662 179.543 424.262C178.983 423.854 178.339 423.65 177.611 423.65C176.787 423.65 176.111 423.846 175.583 424.238C175.055 424.622 174.663 425.15 174.407 425.822C174.151 426.494 174.019 427.262 174.011 428.126C174.019 429.462 174.323 430.542 174.923 431.366C175.531 432.19 176.427 432.602 177.611 432.602C178.419 432.602 179.071 432.418 179.567 432.05C180.071 431.674 180.455 431.138 180.719 430.442L183.263 431.042C182.839 432.306 182.139 433.278 181.163 433.958C180.187 434.63 179.003 434.966 177.611 434.966ZM188.915 434.606V423.902H184.487V421.646H195.851V423.902H191.423V434.606H188.915ZM198.117 434.606V421.646H203.817C204.193 421.646 204.569 421.67 204.945 421.718C205.321 421.758 205.653 421.818 205.941 421.898C206.597 422.082 207.157 422.45 207.621 423.002C208.085 423.546 208.317 424.274 208.317 425.186C208.317 425.706 208.237 426.146 208.077 426.506C207.917 426.858 207.697 427.162 207.417 427.418C207.289 427.53 207.153 427.63 207.009 427.718C206.865 427.806 206.721 427.874 206.577 427.922C206.873 427.97 207.165 428.074 207.453 428.234C207.893 428.466 208.253 428.802 208.533 429.242C208.821 429.674 208.965 430.254 208.965 430.982C208.965 431.854 208.753 432.586 208.329 433.178C207.905 433.762 207.305 434.162 206.529 434.378C206.225 434.466 205.881 434.526 205.497 434.558C205.121 434.59 204.745 434.606 204.369 434.606H198.117ZM200.661 432.626H204.213C204.381 432.626 204.573 432.61 204.789 432.578C205.005 432.546 205.197 432.502 205.365 432.446C205.725 432.334 205.981 432.13 206.133 431.834C206.293 431.538 206.373 431.222 206.373 430.886C206.373 430.43 206.253 430.066 206.013 429.794C205.773 429.514 205.469 429.334 205.101 429.254C204.941 429.198 204.765 429.166 204.573 429.158C204.381 429.15 204.217 429.146 204.081 429.146H200.661V432.626ZM200.661 427.13H203.469C203.701 427.13 203.937 427.118 204.177 427.094C204.417 427.062 204.625 427.01 204.801 426.938C205.113 426.818 205.345 426.618 205.497 426.338C205.649 426.05 205.725 425.738 205.725 425.402C205.725 425.034 205.641 424.706 205.473 424.418C205.305 424.13 205.053 423.93 204.717 423.818C204.485 423.738 204.217 423.694 203.913 423.686C203.617 423.67 203.429 423.662 203.349 423.662H200.661V427.13ZM216.999 434.966C215.703 434.966 214.579 434.674 213.627 434.09C212.675 433.506 211.939 432.702 211.419 431.678C210.907 430.646 210.651 429.458 210.651 428.114C210.651 426.762 210.915 425.574 211.443 424.55C211.971 423.518 212.711 422.718 213.663 422.15C214.615 421.574 215.727 421.286 216.999 421.286C218.295 421.286 219.419 421.578 220.371 422.162C221.323 422.746 222.059 423.55 222.579 424.574C223.099 425.598 223.359 426.778 223.359 428.114C223.359 429.466 223.095 430.658 222.567 431.69C222.047 432.714 221.311 433.518 220.359 434.102C219.407 434.678 218.287 434.966 216.999 434.966ZM216.999 432.602C218.239 432.602 219.163 432.186 219.771 431.354C220.387 430.514 220.695 429.434 220.695 428.114C220.695 426.762 220.383 425.682 219.759 424.874C219.143 424.058 218.223 423.65 216.999 423.65C216.159 423.65 215.467 423.842 214.923 424.226C214.379 424.602 213.975 425.126 213.711 425.798C213.447 426.462 213.315 427.234 213.315 428.114C213.315 429.474 213.627 430.562 214.251 431.378C214.875 432.194 215.791 432.602 216.999 432.602ZM230.789 434.606V421.646H236.489C236.865 421.646 237.241 421.67 237.617 421.718C237.993 421.758 238.325 421.818 238.613 421.898C239.269 422.082 239.829 422.45 240.293 423.002C240.757 423.546 240.989 424.274 240.989 425.186C240.989 425.706 240.909 426.146 240.749 426.506C240.589 426.858 240.369 427.162 240.089 427.418C239.961 427.53 239.825 427.63 239.681 427.718C239.537 427.806 239.393 427.874 239.249 427.922C239.545 427.97 239.837 428.074 240.125 428.234C240.565 428.466 240.925 428.802 241.205 429.242C241.493 429.674 241.637 430.254 241.637 430.982C241.637 431.854 241.425 432.586 241.001 433.178C240.577 433.762 239.977 434.162 239.201 434.378C238.897 434.466 238.553 434.526 238.169 434.558C237.793 434.59 237.417 434.606 237.041 434.606H230.789ZM233.333 432.626H236.885C237.053 432.626 237.245 432.61 237.461 432.578C237.677 432.546 237.869 432.502 238.037 432.446C238.397 432.334 238.653 432.13 238.805 431.834C238.965 431.538 239.045 431.222 239.045 430.886C239.045 430.43 238.925 430.066 238.685 429.794C238.445 429.514 238.141 429.334 237.773 429.254C237.613 429.198 237.437 429.166 237.245 429.158C237.053 429.15 236.889 429.146 236.753 429.146H233.333V432.626ZM233.333 427.13H236.141C236.373 427.13 236.609 427.118 236.849 427.094C237.089 427.062 237.297 427.01 237.473 426.938C237.785 426.818 238.017 426.618 238.169 426.338C238.321 426.05 238.397 425.738 238.397 425.402C238.397 425.034 238.313 424.706 238.145 424.418C237.977 424.13 237.725 423.93 237.389 423.818C237.157 423.738 236.889 423.694 236.585 423.686C236.289 423.67 236.101 423.662 236.021 423.662H233.333V427.13ZM250.127 434.966C248.887 434.966 247.847 434.666 247.007 434.066C246.167 433.458 245.531 432.638 245.099 431.606C244.667 430.574 244.451 429.41 244.451 428.114C244.451 426.818 244.663 425.654 245.087 424.622C245.519 423.59 246.151 422.778 246.983 422.186C247.823 421.586 248.855 421.286 250.079 421.286C251.295 421.286 252.343 421.586 253.223 422.186C254.111 422.778 254.795 423.59 255.275 424.622C255.755 425.646 255.995 426.81 255.995 428.114C255.995 429.41 255.755 430.578 255.275 431.618C254.803 432.65 254.127 433.466 253.247 434.066C252.375 434.666 251.335 434.966 250.127 434.966ZM244.031 440.366V421.646H246.263V430.97H246.551V440.366H244.031ZM249.779 432.698C250.579 432.698 251.239 432.494 251.759 432.086C252.287 431.678 252.679 431.13 252.935 430.442C253.199 429.746 253.331 428.97 253.331 428.114C253.331 427.266 253.199 426.498 252.935 425.81C252.679 425.122 252.283 424.574 251.747 424.166C251.211 423.758 250.527 423.554 249.695 423.554C248.911 423.554 248.263 423.746 247.751 424.13C247.247 424.514 246.871 425.05 246.623 425.738C246.383 426.426 246.263 427.218 246.263 428.114C246.263 429.01 246.383 429.802 246.623 430.49C246.863 431.178 247.243 431.718 247.763 432.11C248.283 432.502 248.955 432.698 249.779 432.698ZM264.393 434.966C263.105 434.966 261.973 434.686 260.997 434.126C260.029 433.558 259.273 432.77 258.729 431.762C258.193 430.746 257.925 429.57 257.925 428.234C257.925 426.818 258.189 425.59 258.717 424.55C259.253 423.51 259.997 422.706 260.949 422.138C261.901 421.57 263.009 421.286 264.273 421.286C265.593 421.286 266.717 421.594 267.645 422.21C268.573 422.818 269.265 423.686 269.721 424.814C270.185 425.942 270.369 427.282 270.273 428.834H267.765V427.922C267.749 426.418 267.461 425.306 266.901 424.586C266.349 423.866 265.505 423.506 264.369 423.506C263.113 423.506 262.169 423.902 261.537 424.694C260.905 425.486 260.589 426.63 260.589 428.126C260.589 429.55 260.905 430.654 261.537 431.438C262.169 432.214 263.081 432.602 264.273 432.602C265.057 432.602 265.733 432.426 266.301 432.074C266.877 431.714 267.325 431.202 267.645 430.538L270.105 431.318C269.601 432.478 268.837 433.378 267.813 434.018C266.789 434.65 265.649 434.966 264.393 434.966ZM259.773 428.834V426.878H269.025V428.834H259.773ZM272.602 434.606V421.646H274.702L279.49 431.15L284.266 421.646H286.378V434.606H283.954V426.782L280.054 434.606H278.914L275.014 426.782V434.606H272.602ZM295.494 434.966C294.206 434.966 293.074 434.686 292.098 434.126C291.13 433.558 290.374 432.77 289.83 431.762C289.294 430.746 289.026 429.57 289.026 428.234C289.026 426.818 289.29 425.59 289.818 424.55C290.354 423.51 291.098 422.706 292.05 422.138C293.002 421.57 294.11 421.286 295.374 421.286C296.694 421.286 297.818 421.594 298.746 422.21C299.674 422.818 300.366 423.686 300.822 424.814C301.286 425.942 301.47 427.282 301.374 428.834H298.866V427.922C298.85 426.418 298.562 425.306 298.002 424.586C297.45 423.866 296.606 423.506 295.47 423.506C294.214 423.506 293.27 423.902 292.638 424.694C292.006 425.486 291.69 426.63 291.69 428.126C291.69 429.55 292.006 430.654 292.638 431.438C293.27 432.214 294.182 432.602 295.374 432.602C296.158 432.602 296.834 432.426 297.402 432.074C297.978 431.714 298.426 431.202 298.746 430.538L301.206 431.318C300.702 432.478 299.938 433.378 298.914 434.018C297.89 434.65 296.75 434.966 295.494 434.966ZM290.874 428.834V426.878H300.126V428.834H290.874ZM304.055 434.606V421.646H306.563V426.938H312.887V421.646H315.395V434.606H312.887V429.302H306.563V434.606H304.055ZM329.682 421.646V434.606H327.27V425.594L320.79 434.606H318.75V421.646H321.162V430.478L327.654 421.646H329.682ZM337.828 434.606V421.646H340.336V426.938H346.66V421.646H349.168V434.606H346.66V429.302H340.336V434.606H337.828ZM356.195 434.966C355.235 434.966 354.431 434.79 353.783 434.438C353.135 434.078 352.643 433.606 352.307 433.022C351.979 432.43 351.815 431.782 351.815 431.078C351.815 430.422 351.931 429.846 352.163 429.35C352.395 428.854 352.739 428.434 353.195 428.09C353.651 427.738 354.211 427.454 354.875 427.238C355.451 427.07 356.103 426.922 356.831 426.794C357.559 426.666 358.323 426.546 359.123 426.434C359.931 426.322 360.731 426.21 361.523 426.098L360.611 426.602C360.627 425.586 360.411 424.834 359.963 424.346C359.523 423.85 358.763 423.602 357.683 423.602C357.003 423.602 356.379 423.762 355.811 424.082C355.243 424.394 354.847 424.914 354.623 425.642L352.283 424.922C352.603 423.81 353.211 422.926 354.107 422.27C355.011 421.614 356.211 421.286 357.707 421.286C358.867 421.286 359.875 421.486 360.731 421.886C361.595 422.278 362.227 422.902 362.627 423.758C362.835 424.182 362.963 424.63 363.011 425.102C363.059 425.574 363.083 426.082 363.083 426.626V434.606H360.863V431.642L361.295 432.026C360.759 433.018 360.075 433.758 359.243 434.246C358.419 434.726 357.403 434.966 356.195 434.966ZM356.639 432.914C357.351 432.914 357.963 432.79 358.475 432.542C358.987 432.286 359.399 431.962 359.711 431.57C360.023 431.178 360.227 430.77 360.323 430.346C360.459 429.962 360.535 429.53 360.551 429.05C360.575 428.57 360.587 428.186 360.587 427.898L361.403 428.198C360.611 428.318 359.891 428.426 359.243 428.522C358.595 428.618 358.007 428.714 357.479 428.81C356.959 428.898 356.495 429.006 356.087 429.134C355.743 429.254 355.435 429.398 355.163 429.566C354.899 429.734 354.687 429.938 354.527 430.178C354.375 430.418 354.299 430.71 354.299 431.054C354.299 431.39 354.383 431.702 354.551 431.99C354.719 432.27 354.975 432.494 355.319 432.662C355.663 432.83 356.103 432.914 356.639 432.914ZM126.199 467.606V454.646H137.131V467.606H134.623V457.01H128.707V467.606H126.199ZM146.113 467.966C144.817 467.966 143.693 467.674 142.741 467.09C141.789 466.506 141.053 465.702 140.533 464.678C140.021 463.646 139.765 462.458 139.765 461.114C139.765 459.762 140.029 458.574 140.557 457.55C141.085 456.518 141.825 455.718 142.777 455.15C143.729 454.574 144.841 454.286 146.113 454.286C147.409 454.286 148.533 454.578 149.485 455.162C150.437 455.746 151.173 456.55 151.693 457.574C152.213 458.598 152.473 459.778 152.473 461.114C152.473 462.466 152.209 463.658 151.681 464.69C151.161 465.714 150.425 466.518 149.473 467.102C148.521 467.678 147.401 467.966 146.113 467.966ZM146.113 465.602C147.353 465.602 148.277 465.186 148.885 464.354C149.501 463.514 149.809 462.434 149.809 461.114C149.809 459.762 149.497 458.682 148.873 457.874C148.257 457.058 147.337 456.65 146.113 456.65C145.273 456.65 144.581 456.842 144.037 457.226C143.493 457.602 143.089 458.126 142.825 458.798C142.561 459.462 142.429 460.234 142.429 461.114C142.429 462.474 142.741 463.562 143.365 464.378C143.989 465.194 144.905 465.602 146.113 465.602ZM166.03 454.646V467.606H163.618V458.594L157.138 467.606H155.098V454.646H157.51V463.478L164.002 454.646H166.03ZM174.927 467.966C173.599 467.966 172.471 467.67 171.543 467.078C170.615 466.486 169.903 465.674 169.407 464.642C168.919 463.61 168.671 462.438 168.663 461.126C168.671 459.79 168.927 458.61 169.431 457.586C169.935 456.554 170.655 455.746 171.591 455.162C172.527 454.578 173.651 454.286 174.963 454.286C176.379 454.286 177.587 454.638 178.587 455.342C179.595 456.046 180.259 457.01 180.579 458.234L178.083 458.954C177.835 458.226 177.427 457.662 176.859 457.262C176.299 456.854 175.655 456.65 174.927 456.65C174.103 456.65 173.427 456.846 172.899 457.238C172.371 457.622 171.979 458.15 171.723 458.822C171.467 459.494 171.335 460.262 171.327 461.126C171.335 462.462 171.639 463.542 172.239 464.366C172.847 465.19 173.743 465.602 174.927 465.602C175.735 465.602 176.387 465.418 176.883 465.05C177.387 464.674 177.771 464.138 178.035 463.442L180.579 464.042C180.155 465.306 179.455 466.278 178.479 466.958C177.503 467.63 176.319 467.966 174.927 467.966ZM183.012 467.606L183.024 454.646H185.568V460.886L190.656 454.646H193.848L188.472 461.126L194.4 467.606H190.992L185.568 461.366V467.606H183.012ZM200.402 467.606V454.646H211.334V467.606H208.826V457.01H202.91V467.606H200.402ZM216.44 473.366L218.948 466.538L218.984 468.554L213.332 454.646H215.948L220.172 465.386H219.404L223.436 454.646H225.98L218.828 473.366H216.44ZM227.86 467.606V454.646H236.98V457.01H230.368V467.606H227.86ZM242.535 467.966C241.575 467.966 240.771 467.79 240.123 467.438C239.475 467.078 238.983 466.606 238.647 466.022C238.319 465.43 238.155 464.782 238.155 464.078C238.155 463.422 238.271 462.846 238.503 462.35C238.735 461.854 239.079 461.434 239.535 461.09C239.991 460.738 240.551 460.454 241.215 460.238C241.791 460.07 242.443 459.922 243.171 459.794C243.899 459.666 244.663 459.546 245.463 459.434C246.271 459.322 247.071 459.21 247.863 459.098L246.951 459.602C246.967 458.586 246.751 457.834 246.303 457.346C245.863 456.85 245.103 456.602 244.023 456.602C243.343 456.602 242.719 456.762 242.151 457.082C241.583 457.394 241.187 457.914 240.963 458.642L238.623 457.922C238.943 456.81 239.551 455.926 240.447 455.27C241.351 454.614 242.551 454.286 244.047 454.286C245.207 454.286 246.215 454.486 247.071 454.886C247.935 455.278 248.567 455.902 248.967 456.758C249.175 457.182 249.303 457.63 249.351 458.102C249.399 458.574 249.423 459.082 249.423 459.626V467.606H247.203V464.642L247.635 465.026C247.099 466.018 246.415 466.758 245.583 467.246C244.759 467.726 243.743 467.966 242.535 467.966ZM242.979 465.914C243.691 465.914 244.303 465.79 244.815 465.542C245.327 465.286 245.739 464.962 246.051 464.57C246.363 464.178 246.567 463.77 246.663 463.346C246.799 462.962 246.875 462.53 246.891 462.05C246.915 461.57 246.927 461.186 246.927 460.898L247.743 461.198C246.951 461.318 246.231 461.426 245.583 461.522C244.935 461.618 244.347 461.714 243.819 461.81C243.299 461.898 242.835 462.006 242.427 462.134C242.083 462.254 241.775 462.398 241.503 462.566C241.239 462.734 241.027 462.938 240.867 463.178C240.715 463.418 240.639 463.71 240.639 464.054C240.639 464.39 240.723 464.702 240.891 464.99C241.059 465.27 241.315 465.494 241.659 465.662C242.003 465.83 242.443 465.914 242.979 465.914ZM258.287 467.966C256.999 467.966 255.867 467.686 254.891 467.126C253.923 466.558 253.167 465.77 252.623 464.762C252.087 463.746 251.819 462.57 251.819 461.234C251.819 459.818 252.083 458.59 252.611 457.55C253.147 456.51 253.891 455.706 254.843 455.138C255.795 454.57 256.903 454.286 258.167 454.286C259.487 454.286 260.611 454.594 261.539 455.21C262.467 455.818 263.159 456.686 263.615 457.814C264.079 458.942 264.263 460.282 264.167 461.834H261.659V460.922C261.643 459.418 261.355 458.306 260.795 457.586C260.243 456.866 259.399 456.506 258.263 456.506C257.007 456.506 256.063 456.902 255.431 457.694C254.799 458.486 254.483 459.63 254.483 461.126C254.483 462.55 254.799 463.654 255.431 464.438C256.063 465.214 256.975 465.602 258.167 465.602C258.951 465.602 259.627 465.426 260.195 465.074C260.771 464.714 261.219 464.202 261.539 463.538L263.999 464.318C263.495 465.478 262.731 466.378 261.707 467.018C260.683 467.65 259.543 467.966 258.287 467.966ZM253.667 461.834V459.878H262.919V461.834H253.667ZM269.88 467.606V456.902H265.452V454.646H276.816V456.902H272.388V467.606H269.88ZM282.31 462.914C282.31 462.338 282.354 461.798 282.442 461.294C282.538 460.79 282.714 460.31 282.97 459.854C283.186 459.422 283.438 459.074 283.726 458.81C284.022 458.538 284.342 458.274 284.686 458.018C285.038 457.754 285.406 457.418 285.79 457.01C286.11 456.658 286.322 456.302 286.426 455.942C286.538 455.582 286.594 455.194 286.594 454.778C286.594 454.474 286.558 454.19 286.486 453.926C286.414 453.662 286.294 453.434 286.126 453.242C285.87 452.922 285.546 452.698 285.154 452.57C284.762 452.434 284.354 452.366 283.93 452.366C283.546 452.366 283.178 452.418 282.826 452.522C282.482 452.626 282.194 452.786 281.962 453.002C281.714 453.21 281.53 453.47 281.41 453.782C281.298 454.086 281.246 454.418 281.254 454.778H278.614C278.678 454.026 278.87 453.322 279.19 452.666C279.51 452.01 279.942 451.478 280.486 451.07C280.95 450.702 281.478 450.43 282.07 450.254C282.662 450.07 283.254 449.978 283.846 449.978C284.694 449.978 285.494 450.11 286.246 450.374C287.006 450.638 287.638 451.066 288.142 451.658C288.51 452.074 288.786 452.55 288.97 453.086C289.162 453.614 289.258 454.162 289.258 454.73C289.258 455.49 289.094 456.194 288.766 456.842C288.446 457.49 288.034 458.082 287.53 458.618C287.266 458.898 286.998 459.154 286.726 459.386C286.454 459.61 286.202 459.83 285.97 460.046C285.738 460.262 285.546 460.498 285.394 460.754C285.178 461.122 285.054 461.454 285.022 461.75C284.99 462.038 284.974 462.426 284.974 462.914H282.31ZM282.322 467.606V464.702H284.974V467.606H282.322Z" fill="black"/>
<path d="M272.061 235.383H271.943H272.061ZM109.104 303.039C109.846 303.178 113.905 303.41 113.905 302.575C113.905 302.045 113.163 301.659 113.288 301.144C113.992 298.252 117.487 297.655 120.053 299.421C121.032 300.09 120.498 301.553 119.382 301.954C116.098 303.135 112.969 305.907 113.242 309.556C113.443 310.784 113.876 311.942 114.508 312.943C114.886 313.54 115.33 314.073 115.825 314.527C116.481 315.128 117.21 315.652 117.942 316.159C118.836 316.779 119.802 317.247 120.811 317.546C122.228 317.97 123.702 318.051 125.146 317.79C130.112 316.287 135.182 313.217 139.455 310.274C140.1 309.831 140.718 309.328 141.305 308.768C141.422 308.657 141.518 308.52 141.589 308.366C141.659 308.209 141.702 308.039 141.715 307.863C141.715 307.052 141.715 307.098 137.812 301.949C137.701 301.802 137.563 301.69 137.408 301.62C137.253 301.551 137.087 301.526 136.922 301.549C136.758 301.57 136.6 301.639 136.463 301.75C136.417 301.787 136.374 301.827 136.335 301.872C136.17 302.055 136.056 302.28 135.958 302.506C135.648 303.198 135.147 303.74 134.539 304.046C133.931 304.349 133.254 304.396 132.621 304.176C130.669 303.503 128.152 297.357 123.565 293.692C119.565 290.491 114.198 289.54 110.412 293.344C108.782 295.006 107.624 297.225 107.094 299.699C107.08 299.75 107.067 299.802 107.055 299.853C106.729 301.275 107.653 302.897 109.104 303.039ZM116.442 311.535C116.442 311.578 116.392 311.601 116.361 311.572C115.869 311.12 115.529 310.473 115.402 309.747C115.268 308.982 115.382 308.186 115.72 307.515C116.554 306.144 117.87 307.238 117.329 308.749C117.003 309.658 116.708 310.583 116.444 311.521C116.443 311.526 116.442 311.53 116.442 311.535ZM134.826 307.919C134.826 307.929 134.84 307.929 134.843 307.92C135.283 306.323 134.836 306.884 135.607 306.472C135.705 306.414 135.802 306.352 135.897 306.287C136.63 305.787 137.7 305.803 138.214 306.527C138.631 307.116 138.508 307.937 137.894 308.317C136.851 308.962 135.746 309.456 134.603 309.786C134.412 309.841 134.242 309.66 134.304 309.471C134.479 308.94 134.685 308.319 134.81 307.916C134.813 307.907 134.826 307.909 134.826 307.919ZM127.761 302.061C127.761 302.064 127.762 302.066 127.763 302.068C129.074 304.019 130.229 305.82 131.794 306.608C132.712 307.07 133.538 308.147 133.26 309.137C133.099 309.711 132.604 310.172 132.011 310.111C131.434 310.052 131.22 309.919 130.825 310.113C129.854 310.559 128.333 314.239 125.002 315.151C124.258 315.355 123.711 314.588 123.849 313.829C123.933 313.361 124.27 312.969 124.717 312.806C125.689 312.451 126.597 311.876 127.391 311.11C127.818 310.67 128.095 310.061 128.171 309.394C128.171 308.623 127.96 307.643 126.701 306.374C126.578 306.249 126.536 306.063 126.599 305.9C127.073 304.662 127.455 303.377 127.738 302.059C127.741 302.045 127.761 302.047 127.761 302.061ZM121.204 310.779C121.204 310.802 121.177 310.815 121.158 310.802C119.541 309.707 122.431 307.818 124.307 307.887C124.742 307.89 125.167 308.041 125.533 308.319C126.261 308.872 126.183 309.986 125.509 310.603C125.462 310.646 125.414 310.687 125.366 310.728C124.96 311.064 124.501 311.298 124.017 311.414C123.533 311.532 123.034 311.53 122.55 311.41C122.085 311.295 121.645 311.073 121.253 310.756C121.233 310.74 121.204 310.754 121.204 310.779ZM123.507 296.633C123.507 296.636 123.508 296.639 123.51 296.641C124.499 297.641 125.42 298.73 126.266 299.899C126.803 300.642 126.852 301.614 126.532 302.473C126.48 302.612 126.429 302.752 126.38 302.893C125.932 304.18 124.513 304.925 123.167 305.134C122.321 305.266 121.506 305.602 120.775 306.124C117.565 308.208 117.918 312.523 121.621 312.954C122.229 313.024 122.705 313.646 122.543 314.235C122.423 314.672 121.985 314.968 121.554 314.83C120.671 314.545 119.818 314.145 119.013 313.637C117.704 312.811 117.493 311.084 118.125 309.671C118.627 308.549 119.074 307.393 119.463 306.209C119.966 304.677 120.972 303.168 122.584 303.105C123.035 303.088 123.486 303.129 123.928 303.226C124.513 303.355 125.152 303.045 125.283 302.46L125.344 302.188C125.4 301.937 125.283 301.679 125.057 301.557C125.025 301.54 124.995 301.52 124.968 301.498C124.121 300.805 123.706 300.248 122.768 299.345C122.685 299.265 122.661 299.142 122.708 299.037C123.045 298.274 123.306 297.467 123.484 296.631C123.487 296.617 123.507 296.619 123.507 296.633ZM115.806 294.345C115.906 293.561 116.565 292.929 117.345 293.06C119.028 293.344 120.64 294.069 122.064 295.185C122.451 295.489 122.573 296.006 122.426 296.475C122.14 297.39 120.932 297.808 120.06 297.409C119.621 297.207 119.163 297.057 118.695 296.962C118.514 296.925 118.332 296.896 118.15 296.876C116.935 296.741 115.651 295.558 115.806 294.345ZM111.446 294.736C111.459 294.736 111.471 294.731 111.48 294.722C111.676 294.542 111.879 294.375 112.088 294.22C113.335 293.3 114.571 294.721 114.307 296.248C114.276 296.43 114.247 296.612 114.221 296.795C114.122 297.501 113.732 298.129 113.292 298.689C113.069 298.972 112.878 299.289 112.723 299.633C112.72 299.641 112.716 299.649 112.712 299.657C112.182 300.852 111.24 302.052 109.961 301.779C108.93 301.559 108.32 300.508 108.598 299.491C109.11 297.622 110.085 295.965 111.412 294.749C111.422 294.74 111.434 294.736 111.446 294.736ZM82.3091 290.862C79.142 289.231 72.4849 293.426 70.1612 296.375C69.7109 296.946 69.3915 297.636 69.4119 298.364C69.4204 298.668 69.4715 298.97 69.5653 299.258C70.7948 304.802 82.2701 324.377 84.3973 327.416C84.7681 327.972 85.2755 327.207 84.9437 326.557C83.9528 324.61 84.0411 328.39 88.879 309.976C89.1049 309.116 89.7355 308.427 90.3976 307.834C90.5082 307.735 90.6145 307.621 90.6828 307.489C90.7884 307.285 90.8453 307.05 90.8453 306.808C90.8453 306.487 90.7452 306.176 90.5643 305.938C90.2436 305.467 90.0378 304.897 90.1643 304.341L90.3461 303.542C90.7542 301.748 92.8267 300.913 94.3648 301.922C95.368 302.58 95.7935 303.83 95.4575 304.982C95.1437 306.058 94.865 307.148 94.622 308.249C94.0944 310.641 92.487 312.645 90.4868 314.059C90.018 314.39 89.5604 314.744 89.1153 315.121C88.6688 315.499 88.2132 315.928 88.1184 316.505C87.8623 318.063 89.2992 320.258 90.252 321.664C91.3839 323.334 92.3402 324.47 92.5549 324.725C92.5783 324.753 92.6073 324.775 92.6404 324.791C93.2683 325.098 93.3116 323.949 92.9062 323.38C92.7084 323.014 92.5159 322.645 92.3287 322.271C90.868 319.36 91.9797 315.8 94.9748 314.52C95.5798 314.265 97.4533 313.569 97.9608 313.94C100.36 315.442 102.859 316.708 105.432 317.728C105.655 317.817 105.893 317.975 106.114 317.881C106.227 317.833 106.32 317.734 106.372 317.605C106.424 317.475 106.43 317.326 106.39 317.193C106.35 317.058 106.266 316.947 106.157 316.886L104.384 315.606C103.437 314.923 103.072 313.71 103.383 312.585C103.903 310.703 106.117 309.617 107.759 310.672L112.481 313.708C112.988 314.056 113.378 313.105 113.007 312.85C112.637 312.595 87.3442 293.483 82.3091 290.862ZM79.2626 294.594C79.3146 293.823 79.825 293.092 80.5962 293.145C80.8778 293.165 81.1579 293.223 81.4309 293.321C81.7299 293.475 82.3149 293.836 83.1108 294.347C83.9108 294.862 84.2564 295.846 84.0356 296.771C84.0291 296.798 84.0226 296.826 84.0161 296.853C83.6538 298.393 81.8694 298.644 80.3185 298.957C79.7271 299.115 78.9064 298.663 78.9697 298.054C79.0672 297.115 79.163 296.074 79.2626 294.594ZM71.5364 298.423C72.2534 297.611 73.0246 296.874 73.841 296.22C75.7798 294.668 78.1293 296.562 77.7585 299.018C77.6198 299.937 77.4897 300.858 77.3684 301.78C77.052 304.186 73.9057 304.762 73.0225 302.502C72.4997 301.164 72.0137 299.806 71.5653 298.429C71.5612 298.417 71.5449 298.413 71.5364 298.423ZM80.4044 317.929C80.3996 317.929 80.3952 317.927 80.393 317.922C79.424 316.017 78.3757 313.923 77.3629 311.845C77.1528 311.414 77.0915 310.924 77.1835 310.454C77.2525 310.101 77.3161 309.768 77.3755 309.451C77.7207 307.604 80.438 307.127 81.4986 308.678C81.8244 309.154 81.9219 309.74 81.7746 310.298C81.1195 312.78 80.6649 315.331 80.4172 317.918C80.4165 317.924 80.411 317.929 80.4044 317.929ZM83.8201 324.609C83.815 324.609 83.8103 324.606 83.8079 324.602C83.1674 323.396 82.3649 321.806 81.3414 319.795C81.1477 319.415 81.0998 318.977 81.1998 318.562C81.545 317.129 81.8299 315.677 82.0535 314.212C82.1891 313.324 85.4051 310.276 86.2405 309.944C86.8899 309.687 87.5245 310.284 87.3446 310.959C86.2952 314.897 84.3032 322.412 83.8335 324.599C83.8321 324.605 83.8266 324.609 83.8201 324.609ZM83.2408 309.556C83.232 309.556 83.2239 309.551 83.22 309.543C82.0689 307.175 81.0452 304.722 80.1547 302.201C80.0783 301.985 80.1606 301.745 80.3526 301.62C80.5211 301.51 80.7355 301.511 80.9004 301.626C81.4565 302.015 82.7686 302.935 84.1221 303.887C86.1072 305.284 86.1387 308.145 83.9617 309.218C83.7261 309.334 83.4889 309.446 83.2504 309.554C83.2474 309.556 83.2441 309.556 83.2408 309.556ZM89.1185 304.454C89.0942 304.454 89.071 304.446 89.052 304.431C87.9851 303.587 86.6445 302.611 85.41 301.743C84.6379 301.199 84.3068 300.231 84.5305 299.314C84.9166 297.73 86.7758 296.842 88.13 297.749L89.1977 298.464C90.0974 299.066 90.5539 300.116 90.2368 301.151C89.967 302.032 89.6007 303.129 89.2214 304.377C89.2076 304.423 89.1658 304.454 89.1185 304.454ZM102.005 313.736C102.002 313.733 101.999 313.73 101.996 313.728L99.1369 311.676C99.0426 311.608 98.9384 311.547 98.8316 311.501C97.3444 310.866 95.4785 309.152 95.7941 307.566C95.8432 307.319 95.8906 307.072 95.9364 306.825C96.2386 305.19 98.1123 304.321 99.5022 305.234L102.108 306.945C102.946 307.495 103.278 308.551 102.991 309.51C102.585 310.863 102.298 312.264 102.135 313.69C102.128 313.753 102.05 313.781 102.005 313.736Z" fill="black"/>
<path d="M393.743 321.988C391.323 295.217 374.794 257.426 359.873 227.991C354.629 217.647 362.79 205.063 374.38 204.652C376.977 204.652 383.769 204.095 385.078 203.793C385.838 203.608 385.955 202.75 384.805 202.703C383.652 202.657 375.455 202.193 374.345 202.17H354.495C349.507 202.398 344.928 199.912 342.454 195.575C339.24 189.944 337.053 186.343 336.552 185.546C336.481 185.432 336.407 185.31 336.285 185.254C336.225 185.227 336.162 185.215 336.097 185.219C336.033 185.225 335.972 185.244 335.914 185.281C335.858 185.316 335.809 185.364 335.77 185.424C335.731 185.484 335.703 185.553 335.687 185.627C335.672 185.702 335.671 185.778 335.684 185.853C335.695 185.927 335.721 185.998 335.757 186.06C335.828 186.179 335.913 186.223 335.991 186.337C338.306 189.705 376.469 256.472 388.297 302.738C393.08 321.455 395.908 344.95 380.49 351.444C343.879 366.984 57.133 372.04 30.0258 353.764C26.2592 351.236 25.381 345.971 26.1226 338.873C26.6003 334.784 27.6489 330.096 29.0972 324.943C32.1925 313.931 46.5411 311.173 54.4257 319.461C71.7683 337.69 96.234 361.968 101.707 360.583C109.865 358.518 155.746 333.191 157.639 328.343C158.601 325.401 159.166 322.3 159.317 319.155C159.36 318.262 159.728 317.372 159.66 316.482C159.624 316.018 159.447 315.583 159.162 315.262C156.137 311.69 96.1256 255.144 92.2615 255.307C90.6917 255.388 88.3793 256.54 86.2634 257.81C84.1496 259.077 81.3659 258.191 79.1624 257.087C78.2522 256.631 77.2755 256.416 76.2988 256.448C75.3904 256.478 74.5195 256.822 73.7697 257.335C72.9155 257.921 72.1409 258.663 71.4761 259.536C70.5853 260.706 69.9126 262.085 69.5002 263.582C69.4364 263.814 69.3994 264.086 69.5717 264.253C69.6551 264.335 69.7597 264.377 69.8672 264.377C69.9751 264.377 70.0794 264.335 70.1628 264.253C70.3363 264.086 70.3788 263.824 70.4929 263.611C71.4293 261.867 72.75 260.472 74.3021 259.571C75.1026 259.106 76.0265 258.81 76.9408 258.955C77.3896 259.026 77.8302 259.171 78.2495 259.389C79.6878 260.135 79.1279 262.067 77.6831 262.8L63.2748 270.115C60.5656 271.49 57.3283 270.478 54.4593 269.478C50.7513 268.318 48.2535 271.217 46.7703 275.462C46.7378 275.584 46.7415 275.715 46.781 275.835C46.8205 275.955 46.8936 276.054 46.9876 276.115C47.0816 276.179 47.1908 276.2 47.297 276.179C47.4032 276.158 47.4998 276.092 47.5704 275.995C49.0579 273.44 50.6837 271.889 52.4852 271.776C54.7096 271.637 54.5637 274.65 52.5992 275.702C49.6682 277.273 45.7856 273.955 47.1883 270.939C56.8473 250.175 77.917 204.803 83.3891 192.9C84.2828 190.956 85.1415 188.974 86.1161 187.069C88.141 183.111 91.1016 178.404 94.135 177.654C96.4964 177.042 98.1122 179.541 97.0157 181.72C90.5622 194.545 74.6913 226.59 74.6582 231.788C74.6582 238.746 75.673 237.656 78.7955 238.746C81.9181 239.836 256.643 238.561 256.955 238.561C259.98 238.561 271.807 238.097 272.9 237.146C276.295 234.177 275.534 229.747 274.051 225.085C271.952 218.433 276.189 209.788 281.666 214.109C285.411 217.063 287.822 223.355 288.2 234.061C288.903 251.248 283.204 256.489 272.295 255.747C263.532 255.144 257.482 252.083 255.57 256.142C251.72 264.252 250.413 274.871 241.445 274.458C241.325 274.452 241.213 274.447 241.108 274.441C235.306 274.175 229.497 274.26 223.7 274.697C220.294 274.786 216.905 275.269 213.58 276.139C212.44 276.438 211.34 276.938 210.675 277.91C209.502 279.626 208.31 282.443 207.717 283.835C206.136 287.523 198.935 310.67 196.944 317.35C196.271 319.564 194.675 324.722 193.945 329.135C193.191 333.687 192.667 340.234 196.339 343.028C196.402 343.077 196.467 343.122 196.534 343.164C198.369 344.324 223.583 345.159 225.515 345.205C228.931 345.321 263.454 345.855 285.487 344.695C301.679 343.843 311.168 342.264 314.837 341.514C315.068 341.467 317.886 340.199 318.028 340.01C318.417 339.494 318.679 338.86 318.781 338.178C319.363 334.866 318.931 331.195 318.297 327.894C315.646 314.072 301.589 279.668 297.216 276.854C296.912 276.651 296.571 276.538 296.221 276.529C295.428 276.529 281.619 275.846 271.17 275.371C266.1 275.141 261.415 272.411 259.357 267.772C257.379 263.314 255.746 258.366 257.189 256.814C260.897 252.964 291.869 272.261 290.21 233.852C289.729 224.121 287.405 216.646 283.052 212.989C276.81 207.743 266.487 205.888 263.5 198.301C262.996 197.023 262.481 195.715 261.965 194.404C258.79 186.343 265.139 177.637 273.793 177.241C275.797 177.15 277.8 177.02 279.801 176.853C283.267 176.563 286.272 179.206 287.709 182.374C288.576 184.286 289.766 185.965 291.206 187.303C299.012 194.261 330.081 193.217 335.721 184.705C337.302 182.136 338.395 179.191 338.923 176.071C339.338 173.623 339.398 171.114 339.105 168.651C338.958 167.412 339.537 166.172 339.936 164.99C340.249 164.271 339.937 163.367 338.59 163.042C335.753 162.537 333.378 160.28 333.383 157.399C333.384 156.903 333.383 156.389 333.38 155.861C333.369 154.176 333.998 152.438 334.921 151.028C336.476 148.868 337.705 146.404 338.551 143.745C339.195 141.588 339.449 139.106 337.751 137.9C336.161 136.871 331.043 136.235 330.291 134.496C329.144 131.841 327.512 129.956 325.183 130.362C318.29 131.61 321.841 149.536 324.45 159.553C324.829 161.008 323.58 162.402 322.076 162.396C320.532 162.389 319.268 160.9 319.65 159.404C321.327 152.829 321.465 145.767 316.108 144.557C315.158 144.307 314.168 144.394 313.258 144.806C312.795 145.016 312.364 145.307 311.976 145.665C311.555 146.055 310.678 145.926 310.31 145.485C309.988 145.098 309.586 144.814 309.146 144.662C308.705 144.509 308.238 144.491 307.791 144.611C307.343 144.73 306.927 144.983 306.584 145.345C304.31 147.294 304.868 151.239 306.859 153.715C307.79 154.872 308.609 156.243 308.574 157.727C308.562 158.238 308.557 158.748 308.561 159.259C308.574 160.906 307.144 162.232 305.497 162.281C303.896 162.329 302.418 161.156 302.344 159.556C302.204 156.532 301.947 153.517 301.576 150.522C301.208 147.562 302.477 144.655 303.815 141.99C304.561 140.505 305.039 138.851 305.218 137.135C305.491 134.05 304.574 131.476 302.408 130.803C299.934 130.041 293.936 131.348 291.402 131.876C289.44 132.286 286.819 132.809 285.293 131.51C280.008 127.008 277.658 131.197 279.242 134.607C281.694 140.025 286.876 144.509 289.236 149.968C289.878 151.454 290.624 152.917 291.42 154.391C291.463 154.471 291.507 154.551 291.55 154.631C293.368 157.988 290.934 162.412 287.185 163.135C286.663 163.3 286.265 163.546 286.003 163.84C284.751 165.245 286.49 167.622 286.298 169.493C286.014 172.268 283.726 174.572 280.939 174.48C274.776 174.278 268.609 174.406 262.456 174.863C257.897 175.203 253.574 172.639 251.862 168.4C251.645 167.863 253.234 162.06 255.561 111.602C255.905 104.143 261.671 98.1872 269.138 98.0857C289.618 97.8072 323.735 98.2948 327.642 96.4994C327.928 96.3771 328.182 96.1667 328.378 95.8896C328.573 95.6126 328.704 95.2786 328.754 94.9223C330.413 88.4512 331.545 32.8328 328.754 27.6606C328.071 26.3849 325.631 25.9906 324.285 25.7587C306.896 22.7435 234.336 24.0424 230.609 26.3849C228.978 27.4098 228.363 32.3636 228.247 37.9931C228.051 47.4205 220.434 55.8433 211.005 55.7801C168.884 55.4979 103.323 58.0153 96.2622 61.1523C94.3106 61.9872 93.5885 65.1648 93.1982 67.5537C90.1148 86.4724 98.2047 145.333 101.617 168.003C101.869 169.679 102.189 170.799 101.426 172.312C100.93 173.297 99.0045 175.487 97.9015 175.489C96.4892 175.491 95.0786 175.641 93.6861 175.938C89.2365 176.75 85.1382 184.056 82.8744 188.602C82.8427 188.677 82.2167 189.921 81.3555 191.632C78.2762 197.752 71.3941 201.559 64.5442 201.483C56.5469 201.396 47.3635 201.569 45.5993 201.683C42.711 201.868 39.7446 202.123 37.1295 202.355C36.6611 202.355 36.6221 203.422 37.1295 203.445C42.5939 203.84 44.604 203.979 48.8389 204.049C59.9974 204.248 68.5542 218.214 63.8022 228.312C60.5815 235.156 57.7185 241.269 56.9183 243.06C50.5624 257.224 45.1965 270.517 42.5828 277.299C41.4586 280.216 39.3024 282.622 36.8397 284.548C35.2978 285.753 34.1999 287.499 33.8453 289.424C33.6358 290.56 33.5005 291.716 33.441 292.88C33.3196 297.525 35.1334 302.285 33.5593 306.657C30.0784 316.325 27.1374 326.258 24.7565 336.392C23.789 341.494 23.749 346.785 24.6394 351.908C25.3347 356.377 26.5572 360.703 28.2686 364.76C28.7657 365.938 29.4076 367.1 30.469 367.813C31.1204 368.251 31.8351 368.553 32.5823 368.701C35.9269 369.819 43.8459 371.144 50.4316 372.131C55.1214 372.833 58.3174 377.188 58.6162 381.921C58.6218 384.805 58.9662 387.672 59.6401 390.441C59.6726 390.575 59.6848 390.716 59.7425 390.841C59.7712 390.903 59.8095 390.957 59.8556 391.001C59.9021 391.046 59.955 391.079 60.0118 391.098C60.0689 391.119 60.1285 391.125 60.1874 391.117C60.2463 391.109 60.3034 391.088 60.3556 391.054C60.4078 391.021 60.4535 390.974 60.4904 390.92C60.5277 390.864 60.5554 390.802 60.572 390.734C60.6056 390.599 60.595 390.456 60.6095 390.317C60.9035 387.494 60.9813 384.646 60.841 381.805C60.8346 380.401 60.7641 379 60.6301 377.608C60.4308 375.537 62.2883 373.716 64.3624 373.881C66.1847 374.025 67.3757 375.645 67.2807 377.471C67.1975 379.068 67.2041 380.671 67.3007 382.269C67.3072 385.085 67.6362 387.885 68.2779 390.594C68.3403 390.857 68.332 391.159 68.5058 391.367C68.5899 391.467 68.7041 391.523 68.823 391.523C68.9422 391.523 69.0565 391.467 69.1406 391.367C69.225 391.266 69.2718 391.131 69.2718 390.99C69.5947 388.1 69.6863 385.18 69.5451 382.269C69.5249 378.109 72.6588 374.511 76.8058 374.84C97.6172 376.489 157.028 380.712 247.783 378.581C274.644 377.951 306.424 376.558 333.991 373.455C338.236 372.978 341.831 376.636 342.083 380.9C342.093 383.766 342.441 386.617 343.119 389.368C343.156 389.52 343.147 389.681 343.179 389.834C343.194 389.911 343.225 389.983 343.267 390.045C343.31 390.107 343.361 390.157 343.422 390.19C343.482 390.224 343.549 390.242 343.615 390.242C343.682 390.242 343.748 390.224 343.809 390.19C343.869 390.157 343.923 390.107 343.965 390.045C344.005 389.983 344.037 389.911 344.051 389.834C344.084 389.68 344.064 389.519 344.082 389.362C344.401 386.552 344.483 383.709 344.328 380.877C344.315 379.147 344.207 377.421 344.006 375.71C343.791 373.888 345.556 372.087 347.372 371.825C349.489 371.519 350.805 373.423 350.73 375.561C350.681 376.938 350.7 378.318 350.787 379.694C350.789 382.511 351.117 385.314 351.764 388.022C351.827 388.284 351.832 388.589 352.027 388.775C352.121 388.864 352.24 388.906 352.358 388.891C352.477 388.875 352.586 388.804 352.661 388.693C352.816 388.466 352.774 388.161 352.803 387.887C353.088 385.138 353.158 382.365 353.012 379.602C352.991 374.931 355.997 370.532 360.585 369.661C372.094 367.477 388.726 363.336 391.554 356.454C395.887 346.272 395.539 333.029 393.743 321.988ZM216.115 284.647C216.135 284.647 216.151 284.636 216.161 284.619C216.543 283.979 222.884 282.389 229.851 284.585C229.976 284.624 230.116 284.614 230.241 284.65C230.307 284.668 230.367 284.705 230.419 284.753C230.471 284.803 230.513 284.867 230.54 284.938C230.57 285.01 230.584 285.089 230.584 285.169C230.584 285.248 230.57 285.327 230.54 285.398C230.513 285.47 230.471 285.534 230.419 285.582C230.367 285.633 230.307 285.669 230.241 285.686C230.115 285.724 229.976 285.705 229.846 285.731C226.352 286.444 222.789 286.541 219.27 286.015C217.605 285.693 215.497 285.667 216.075 284.67C216.083 284.656 216.099 284.647 216.115 284.647ZM316.45 339.801C316.454 339.801 316.457 339.806 316.454 339.807C298.335 343.882 198.7 342.955 197.198 342.121C194.792 340.784 198.434 337.565 201.172 337.845C225.058 340.29 306.691 337.621 317.021 334.435C317.425 334.311 317.914 334.562 317.954 334.982C318.142 336.957 317.991 339.429 316.45 339.794C316.446 339.795 316.446 339.801 316.45 339.801ZM278.568 284.902C278.585 284.902 278.598 284.888 278.6 284.871C278.708 284.102 282.894 283.672 283.087 283.649C285.64 283.416 288.203 283.416 290.757 283.649C292.181 283.835 294.152 284.067 293.996 284.786C293.84 285.505 290.893 285.806 290.386 285.899C288.478 286.108 286.564 286.201 284.648 286.177C283.373 286.131 278.56 285.858 278.539 284.93C278.539 284.914 278.552 284.902 278.568 284.902ZM303.638 292.625C303.661 292.625 303.682 292.639 303.692 292.66C308.567 303.705 312.662 315.215 315.932 327.068C316.685 329.777 314.809 332.225 312.021 332.594C290.032 335.507 205.432 337.973 196.105 334.791C195.617 334.629 195.481 334.791 195.363 333.817C194.85 329.446 198.862 316.064 202.043 306.314C203.962 300.432 209.381 296.43 215.563 296.189C252.389 294.755 302.98 292.87 303.613 292.628C303.625 292.623 303.625 292.625 303.638 292.625ZM287.596 137.013C287.349 138.013 286.185 138.584 285.383 137.938C284.063 136.872 282.838 135.647 281.727 134.279C281.579 134.097 281.444 133.902 281.344 133.689C280.786 132.499 281.097 131.786 283.165 132.983C284.306 133.605 285.821 134.624 287.061 135.495C287.543 135.833 287.737 136.441 287.596 137.013ZM334.053 143.443C334.07 143.443 334.087 143.433 334.094 143.417C335.593 140.222 337.07 139.231 337.039 140.917C337.037 141.054 337.013 141.191 336.981 141.325C336.56 143.064 336.052 144.771 335.462 146.437C335.007 147.723 333.223 147.379 333.086 146.022C333.071 145.875 333.084 145.759 333.131 145.618C333.276 145.184 333.61 144.368 334.011 143.47C334.018 143.454 334.035 143.443 334.053 143.443ZM325.736 163.622C325.766 163.622 325.794 163.643 325.802 163.672C326.184 164.964 326.432 165.733 326.451 165.779C326.472 165.845 326.505 165.905 326.547 165.955C326.588 166.006 326.637 166.047 326.692 166.075C326.746 166.103 326.804 166.118 326.864 166.119C326.923 166.12 326.981 166.107 327.037 166.08C327.895 165.686 326.627 164.735 324.597 150.749C323.992 146.575 322.197 133.702 325.749 133.099C328.637 132.589 330.198 141.101 330.745 144.464C331.758 150.946 332.41 157.501 332.696 164.086C332.694 164.214 332.732 164.339 332.802 164.437C332.872 164.535 332.969 164.6 333.077 164.62C333.182 164.64 333.293 164.613 333.384 164.545C333.467 164.482 333.531 164.389 333.565 164.28C333.572 164.259 333.575 164.237 333.576 164.215C333.584 164.021 333.741 163.859 333.935 163.87C335.225 163.937 336.507 164.126 337.771 164.433C338.28 164.557 338.472 165.173 338.004 165.408C334.543 167.523 325.167 167.505 319.761 167.392C318.551 167.367 317.764 166.089 318.191 164.956C318.49 164.16 319.302 163.728 320.148 163.825C322.004 164.038 323.878 163.971 325.723 163.623C325.727 163.622 325.731 163.622 325.736 163.622ZM310.536 158.543C310.553 158.543 310.566 158.531 310.568 158.514C311.018 153.874 312.017 146.507 315.952 147.386C319.894 148.268 318.898 155.063 318.04 159.609C317.679 161.39 317.26 163.153 316.786 164.895C316.393 166.336 315.068 167.31 313.575 167.31C311.721 167.31 310.203 165.822 310.24 163.968C310.276 162.167 310.364 160.367 310.504 158.572C310.506 158.555 310.52 158.543 310.536 158.543ZM308.087 147.642C308.178 147.539 308.285 147.46 308.404 147.41C308.521 147.359 308.648 147.339 308.772 147.35C308.896 147.361 309.018 147.403 309.129 147.473C309.24 147.543 309.337 147.64 309.414 147.757C309.582 147.958 309.742 148.169 309.893 148.388C310.136 148.743 310.165 149.19 310.027 149.597C309.59 150.891 307.787 151.157 307.588 149.806C307.459 148.933 307.562 148.144 308.087 147.642ZM301.939 133.528C301.939 133.535 301.944 133.541 301.95 133.544C303.208 134.028 303.343 136.242 302.952 138.638C302.554 141.072 299.887 140.779 299.032 138.466C298.821 137.896 298.781 137.279 298.966 136.7C299.552 134.87 300.462 132.989 301.928 133.512C301.935 133.515 301.939 133.521 301.939 133.528ZM295.642 163.991C296.569 163.907 297.454 164.356 297.979 165.125C298.263 165.543 298.477 165.851 298.6 166.027C298.679 166.14 298.757 166.266 298.884 166.319C298.924 166.336 298.966 166.346 299.009 166.349C299.118 166.357 299.225 166.317 299.31 166.238C299.396 166.158 299.454 166.045 299.475 165.917C299.517 165.667 299.359 165.442 299.232 165.222C298.472 163.916 295.571 158.86 293.118 153.649C290.971 149.01 288.922 144.371 289.488 139.245C289.937 135.21 291.732 133.493 294.757 135.836C299.129 139.176 301.12 159.772 301.744 165.988C301.75 166.15 301.799 166.307 301.882 166.436C302.04 166.676 302.435 166.758 302.571 166.505C302.692 166.28 302.655 165.921 302.642 165.709C302.575 164.6 303.631 163.753 304.741 163.807C305.524 163.846 306.307 163.84 307.089 163.791C308.062 163.729 308.971 164.802 309.064 165.772C309.161 166.781 308.333 167.311 307.319 167.321C303.473 167.358 299.316 167.457 295.482 167.031C293.02 166.758 293.175 164.215 295.642 163.991ZM287.79 167.263C287.79 167.277 287.799 167.29 287.811 167.296C290.659 168.605 293.661 169.384 296.709 169.606C300.163 169.977 323.68 170.023 326.354 169.861C327.548 169.838 328.74 169.743 329.923 169.579C334.174 168.989 338.703 171.592 337.759 175.778C337.131 178.559 336.025 181.156 334.511 183.406C329.769 190.016 299.773 191.524 292.572 185.494C287.829 181.62 286.971 173.874 287.79 167.263ZM273.437 232.909C273.032 234.731 271.034 235.61 269.17 235.708C245.638 236.947 86.3726 237.005 86.192 236.984C78.3857 236.984 80.3373 236.984 77.7222 236.218C77.0196 236.033 76.883 236.033 76.7464 235.221C76.5936 234.044 76.5429 232.852 76.5949 231.664C76.5981 231.59 76.7343 231.553 76.7982 231.589C76.9548 231.676 77.0107 231.627 77.1897 231.624C82.3899 231.54 240.798 228.976 269.003 228.5C271.515 228.458 273.983 230.456 273.437 232.909ZM326.952 94.6207C326.956 94.6207 326.96 94.6185 326.962 94.6149C326.98 94.5794 327.079 94.3954 327.115 94.4584C327.144 94.5104 327.042 94.5624 326.948 94.595C326.936 94.5992 326.939 94.6207 326.952 94.6207ZM229.906 36.1263C229.906 34.6187 230.414 28.913 231.546 28.2172C233.824 26.8635 298.109 25.6912 320.686 28.3091C324.89 28.7966 327.725 31.8751 327.967 36.1007C328.644 47.9316 328.45 72.0923 327.747 85.5237C327.453 91.1431 323.36 95.1445 317.741 95.4529C306.362 96.0775 288.153 96.3568 274.002 96.8165C264.751 97.117 256.744 89.3926 256.987 80.1405C257.246 70.3192 257.245 63.1231 256.838 61.1754C256.718 60.7854 256.523 60.4337 256.269 60.1478C256.015 59.8618 255.71 59.6501 255.375 59.5287C253.304 58.4613 248.462 57.764 243.488 57.3076C235.982 56.619 229.748 50.8911 229.739 43.3538C229.737 40.9441 229.792 38.5339 229.906 36.1263ZM94.9546 94.528C94.6619 89.6573 93.2177 65.072 97.1209 63.3557C99.0725 62.5439 105.942 61.7321 115.915 61.0363C135.021 59.6215 165.133 58.485 192.534 58.253C197.693 58.253 235.409 57.8701 249.873 60.2499C253.382 60.8274 255.346 63.721 255.379 67.2777C255.534 84.0407 253.2 131.5 251.733 154.898C251.272 162.243 245.387 167.821 238.034 168.116C199.044 169.683 155.331 171.556 116.099 171.009C108.822 170.907 102.748 165.507 101.766 158.296C99.6323 142.631 96.2442 115.787 94.9546 94.528ZM102.908 172.315C102.915 172.301 102.918 172.288 102.919 172.273C102.922 172.199 102.974 172.136 103.048 172.139C131.311 173.158 210.572 170.374 240.683 169.491C247.036 169.305 252.717 173.206 254.958 179.154C258.003 187.235 262.356 198.773 266.015 208.532C269.517 217.873 263.03 227.377 253.057 227.539C223.648 228.016 167.553 228.933 126.487 229.643C111.617 229.901 90.3043 198.378 96.7592 184.98C99.6212 179.039 101.926 174.335 102.908 172.315ZM156.566 327.705C156.566 327.703 156.564 327.7 156.563 327.702C155.15 330.854 116.791 351.382 104.508 356.642C103.556 357.05 102.558 356.24 102.577 355.204C102.587 354.633 102.907 354.111 103.434 353.89C116.718 348.315 143.524 334.84 156.614 324.894C156.97 324.623 157.461 324.937 157.346 325.369C157.135 326.169 156.876 326.95 156.57 327.706C156.57 327.709 156.566 327.708 156.566 327.705ZM157.913 322.571C157.913 322.57 157.911 322.569 157.91 322.57C154.061 325.268 150.374 327.16 104.482 351.952C103.623 352.417 102.532 351.804 102.38 350.839C102.29 350.272 102.526 349.706 103.035 349.439C111.376 345.063 149.622 327.29 157.907 319.56C158.06 319.418 158.3 319.555 158.278 319.763C158.188 320.615 158.07 321.579 157.916 322.571C157.915 322.573 157.913 322.573 157.913 322.571ZM53.0198 277.402C55.5041 276.007 58.81 276.787 59.0527 279.625C59.1988 281.34 58.904 283.066 58.2064 284.577C58.1739 284.637 58.1528 284.698 58.1415 284.757C57.9731 285.639 59.2524 284.815 59.6878 284.03C60.4168 282.715 60.8452 281.187 60.9191 279.598C61.0712 276.314 61.8992 272.492 64.795 270.935C69.2118 268.559 73.3034 266.395 76.3352 264.804C78.7604 263.53 81.8149 264.671 81.8471 267.41C81.8673 269.13 81.565 270.835 80.9618 272.4C80.7276 273.143 81.4302 273.421 81.762 272.934C82.8353 271.312 83.5035 269.366 83.6901 267.315C84.0115 263.778 84.873 259.807 88.0216 258.165C89.6138 257.334 91.1761 256.698 92.2419 256.698C94.5553 256.698 131.22 291.628 148.5 308.33C153.685 313.341 153.4 320.412 147.154 324.014C135.151 330.936 116.079 340.246 106.553 344.952C102.972 346.721 98.9079 346.925 95.7288 344.507C83.9362 335.539 58.8364 310.618 45.3166 296.798C40.3799 291.752 41.0169 284.35 47.1096 280.784C49.1788 279.573 51.2463 278.398 53.0198 277.402ZM35.157 288.775C35.1422 288.775 35.1302 288.788 35.1398 288.799C41.1279 295.742 88.8899 345.303 99.5981 349.912C100.089 350.124 100.43 350.638 100.368 351.168C100.28 351.917 99.4613 352.395 98.8307 351.982C84.5833 342.651 49.823 307.081 36.134 293.327C35.5915 292.782 34.8944 290.566 35.0095 289.806C35.0696 289.409 35.1276 289.04 35.1741 288.795C35.1761 288.784 35.1678 288.775 35.157 288.775ZM35.4428 296.73C35.4239 296.73 35.4064 296.72 35.3973 296.704C35.2998 296.525 35.2112 296.341 35.1316 296.152C34.7434 295.229 35.8084 294.768 36.4601 295.528C50.2766 311.634 82.8797 345.336 99.3143 353.695C99.8966 353.992 100.244 354.584 100.268 355.237C100.313 356.45 99.2391 357.354 98.1965 356.734C84.0456 348.315 36.8638 298.728 35.479 296.743C35.469 296.728 35.4602 296.73 35.4428 296.73ZM390.58 355.689C390.589 355.689 390.596 355.696 390.593 355.705C377.868 385.42 35.8794 377.651 30.338 366.056C28.8303 362.942 27.6365 359.635 26.7772 356.204C26.5767 355.403 28.5587 354.535 29.2451 354.993C57.9722 374.87 343.781 369.675 381.094 353.741C382.666 353.067 384.084 352.238 385.353 351.262C386.943 350.039 391.967 351.561 391.343 353.468C391.101 354.209 390.842 354.944 390.567 355.671C390.564 355.68 390.57 355.689 390.58 355.689Z" fill="black"/>
<path d="M98.3694 197.949C236.366 200.268 249.539 198.853 253.403 198.134C254.321 197.972 254.906 197.601 254.867 196.325C254.867 192.962 248.232 177.538 246.475 176.471C245.695 175.984 105.961 178.327 105.473 178.512C105.382 178.538 105.297 178.588 105.223 178.655C105.149 178.723 105.088 178.808 105.044 178.907C103.717 181.481 97.2375 194.191 97.5302 197.067C97.5618 197.307 97.6633 197.527 97.8162 197.688C97.9695 197.848 98.165 197.941 98.3694 197.949ZM105.063 182.006C105.606 180.933 106.73 180.081 107.932 180.056C123.334 179.729 227.399 178.494 243.63 178.378C245.007 178.368 246.163 179.055 246.818 180.266C248.3 183.004 246.271 186.206 243.157 186.224C218.539 186.368 131.806 186.916 108.475 187.075C105.733 187.093 103.824 184.452 105.063 182.006ZM102.127 188.209C102.132 188.222 102.126 188.231 102.14 188.23C103.226 188.228 223.817 187.494 246.501 187.314C248.735 187.297 250.742 188.571 251.503 190.672C252.575 193.635 250.571 196.539 247.422 196.662C229.173 197.37 173.365 196.831 102.283 196.258C100.672 196.245 99.4967 194.704 100.026 193.182C100.619 191.477 101.299 189.816 102.064 188.208C102.076 188.181 102.115 188.181 102.127 188.209ZM206.077 205.834C205.689 204.81 205.053 203.946 204.249 203.353C203.448 202.757 202.514 202.46 201.569 202.495C197.34 202.495 166.42 201.499 155.103 202.329C152.526 202.519 150.408 204.021 149.165 206.286C147.95 208.497 146.936 210.858 146.141 213.329C145.884 214.126 145.494 215.073 146.002 215.739C146.159 215.944 146.376 216.055 146.612 216.086C158.322 217.594 197.139 219.032 207.209 216.828C208.458 216.55 208.615 214.973 208.361 213.465C207.758 210.86 206.993 208.309 206.077 205.834ZM156.153 214.956C151.511 214.802 148.392 210.289 150.479 206.14C151.231 204.644 152.573 203.669 154.247 203.61C163.627 203.279 194.261 205.136 201.628 205.115C202.127 205.094 202.621 205.245 203.051 205.549C203.48 205.854 203.827 206.298 204.048 206.832C205.628 210.845 202.771 214.853 198.463 215.062C186.885 215.624 167.801 215.342 156.153 214.956ZM341.615 208.803C338.863 204.304 325.065 204.512 320.44 204.675C316.537 204.675 302.349 205.44 302.349 209.986C302.365 210.353 302.455 210.713 302.611 211.032C302.767 211.351 302.985 211.619 303.247 211.818C303.617 212.166 301.061 242.736 304.574 259.134C305.725 264.561 307.208 267.251 311.56 269.501C319.714 273.712 333.11 272.907 338.918 264.303C339.204 263.88 339.37 263.619 339.514 263.13C341.306 257.042 346.927 252.645 351.98 248.807C354.887 246.599 356.988 242.868 357.871 237.54C359.023 230.42 357.54 225.758 354.983 222.928C353.276 221.276 351.256 220.137 349.099 219.614C346.941 219.088 344.708 219.19 342.59 219.913C342.517 219.942 342.438 219.952 342.361 219.936C342.283 219.923 342.21 219.888 342.148 219.832C342.085 219.778 342.033 219.706 341.999 219.623C341.963 219.54 341.945 219.449 341.947 219.356C341.947 218.127 342.317 209.801 341.615 208.803ZM304.521 209.29C304.53 209.29 304.538 209.288 304.546 209.283C309.833 205.625 331.276 205.35 338.199 209.082C338.434 209.221 339.312 209.754 339.312 209.986C339.312 210.218 338.414 210.775 338.199 210.891C332.988 213.687 314.429 214.963 304.584 210.752C304.511 210.72 304.44 210.686 304.38 210.633C303.91 210.217 304.373 209.522 304.462 209.332C304.472 209.31 304.496 209.29 304.521 209.29ZM343.104 222.279C343.126 222.279 343.147 222.275 343.168 222.268C344.933 221.671 346.792 221.588 348.59 222.024C350.399 222.464 352.09 223.419 353.519 224.807C355.627 227.126 356.681 231.116 355.705 237.03C355.512 239.087 354.911 241.058 353.955 242.788C352.999 244.516 351.713 245.954 350.202 246.98C347.001 248.693 343.397 249.019 340.014 247.908C339.849 247.837 339.671 247.805 339.496 247.819C339.318 247.832 339.146 247.888 338.988 247.983C338.83 248.08 338.692 248.213 338.58 248.376C338.468 248.538 338.385 248.725 338.336 248.928C337.896 250.401 338.341 255.615 337.873 259.915C337.699 261.516 337.098 263.06 336.006 264.242C330.361 270.358 319.256 270.657 312.439 267.251C308.653 265.326 307.599 263.332 306.584 258.531C304.995 251.61 304.314 240.33 304.155 229.984C304.032 221.955 313.447 215.374 321.477 215.422C324.558 215.441 327.69 215.26 330.592 214.843C334.985 214.212 337.789 218.672 340.99 221.745C341.285 222.01 341.625 222.194 341.986 222.286C342.337 222.375 342.702 222.375 343.053 222.285C343.07 222.281 343.087 222.279 343.104 222.279ZM153.56 271.426C148.435 266.26 142.921 261.664 137.089 257.696C134.842 256.12 132.452 254.852 129.966 253.915C127.877 253.266 126.999 254.541 127.428 256.234C128.308 258.666 129.471 260.937 130.883 262.984C135.373 269.739 140.537 275.822 146.261 281.098C154.965 289.749 166.245 300.233 174.481 307.678C174.901 308.043 175.377 308.304 175.883 308.445C176.389 308.588 176.913 308.609 177.427 308.509C177.939 308.407 178.429 308.184 178.869 307.854C179.308 307.525 179.687 307.094 179.985 306.588C181.429 304.709 182.327 301.416 180.707 299.63C178.833 297.635 167.377 284.809 153.56 271.426ZM136.004 262.775C135.421 263.59 133.599 263.853 133.136 262.964L132.752 262.229C132.444 261.638 132.694 260.915 133.199 260.48C133.425 260.285 133.637 260.067 133.833 259.83C134.258 259.313 134.971 259.062 135.573 259.352L135.67 259.399C136.691 259.891 136.663 261.853 136.004 262.775ZM141.956 268.676C141.162 269.839 139.246 270.511 138.361 269.415C138.037 269.014 137.721 268.605 137.412 268.188C137.11 267.78 136.957 267.276 137.011 266.771C137.219 264.805 137.861 263.772 139.427 263.482C139.921 263.391 140.425 263.529 140.854 263.792C141.235 264.026 141.611 264.273 141.981 264.531C143.21 265.389 142.802 267.438 141.956 268.676ZM174.413 303.631C174.208 304.383 173.149 304.857 172.599 304.305C167.179 298.856 150.691 282.233 144.13 275.585C142.445 273.878 141.389 271.31 142.848 269.407C144.16 267.692 146.616 268.315 148.203 269.779C154.592 275.669 163.489 284.644 177.519 298.534C178.008 299.018 177.627 300.019 177.007 300.318C176.398 300.611 175.849 301.06 175.401 301.632C174.953 302.204 174.616 302.887 174.413 303.631ZM328.871 331.637C331.31 333.608 333.008 332.704 334.589 329.967C338.492 323.38 352.153 294.226 352.153 293.994C352.153 293.762 352.309 294.202 351.665 284.832C351.638 284.48 351.531 284.142 351.355 283.856C351.181 283.57 350.943 283.346 350.67 283.207C350.397 283.066 350.096 283.015 349.801 283.062C349.505 283.106 349.226 283.245 348.992 283.464L345.039 286.884C343.25 288.432 341.853 290.379 340.961 292.57C337.791 300.356 330.006 319.476 327.887 324.649C327.525 325.532 327.171 326.418 327.151 327.372C327.139 327.949 327.207 328.526 327.355 329.082C327.628 330.099 328.157 330.99 328.871 331.637ZM347.388 288.149C348.274 287.384 349.653 287.959 349.736 289.127C349.74 289.186 349.744 289.245 349.748 289.304C349.823 290.363 348.66 291.093 347.681 290.679C346.713 290.269 346.451 288.959 347.246 288.272L347.388 288.149ZM342.671 294.296C343.32 292.847 345.197 292.491 346.63 293.174C348.088 293.869 348.98 295.587 348.302 297.053C345.405 303.322 338.64 317.986 335.701 324.354C335.157 325.531 333.294 325.525 332.177 324.868C331.091 324.23 329.946 322.748 330.461 321.598C333.343 315.163 339.879 300.523 342.671 294.296Z" fill="black"/>
<path d="M335.149 246.621C335.051 245.845 334.825 245.036 334.194 244.574C333.885 244.347 333.542 244.195 333.184 244.127C331.458 243.578 329.884 245.083 330.061 246.885C330.484 251.179 330.721 255.004 330.705 255.423C330.676 255.776 330.53 256.101 330.301 256.327C330.07 256.551 329.774 256.661 329.476 256.629C329.178 256.588 328.904 256.41 328.715 256.132C328.525 255.856 328.433 255.5 328.461 255.144C328.461 248.183 323.156 242.242 316.195 242.237C311.859 242.234 307.803 242.65 306.617 244.04C306.081 244.668 306.241 245.604 306.185 246.428C305.976 249.553 305.891 257.833 310.721 262.241C316.693 267.692 328.637 266.625 332.813 261.082C333.999 259.395 334.781 257.359 335.077 255.191C335.483 252.354 335.506 249.462 335.149 246.621ZM344.316 223.74C341.427 223.308 339.486 226.304 339.151 229.206C338.762 232.574 338.221 237.477 337.783 243.234C337.741 243.79 338.107 244.295 338.648 244.429C342.083 245.294 345.66 244.831 348.855 243.107C349.971 242.37 350.893 241.286 351.522 239.968C352.153 238.65 352.466 237.153 352.427 235.638C352.56 233.756 352.284 231.864 351.626 230.144C350.969 228.423 349.953 226.931 348.673 225.812C347.393 224.691 345.894 223.978 344.316 223.74ZM340.449 229.031C340.508 226.827 342.181 224.809 344.275 225.499C345.492 225.899 346.62 226.604 347.587 227.567C348.515 228.578 349.234 229.83 349.688 231.228C350.141 232.623 350.317 234.125 350.202 235.615C350.141 237.665 349.492 239.145 348.465 240.179C344.881 243.79 340.161 238.162 340.328 233.078C340.37 231.829 340.41 230.488 340.449 229.031ZM-nan -nanL151.648 203.886C151.648 203.886 151.668 203.909 151.648 203.886L-nan -nanZM319.64 89.1002C319.635 89.5134 319.699 89.9238 319.827 90.3075C319.957 90.6913 320.147 91.0408 320.392 91.3365C320.634 91.6317 320.925 91.867 321.243 92.0285C321.564 92.19 321.907 92.2752 322.255 92.2781C322.787 92.2916 323.309 92.1175 323.756 91.7767C324.203 91.436 324.556 90.9447 324.766 90.3653C324.977 89.7863 325.039 89.1453 324.943 88.5245C324.848 87.9034 324.597 87.3307 324.224 86.8795C323.854 86.4283 323.377 86.1183 322.857 85.9901C322.338 85.8619 321.797 85.9205 321.305 86.1588C320.813 86.397 320.392 86.804 320.095 87.3282C319.799 87.8519 319.64 88.4693 319.64 89.1002ZM106.04 165.616C106.489 166.66 107.074 166.776 107.445 166.452C107.816 166.127 231.409 164.851 240.601 164.271C241.314 164.284 242.025 164.254 242.734 164.181C245.222 163.924 247.172 162.277 247.667 159.825C251.15 142.572 252.396 71.637 250.847 68.0171C246.456 57.6031 109.026 64.3065 100.575 67.3449C93.8425 69.7571 102.937 158.217 106.04 165.616ZM99.9816 72.5003C100.106 71.5569 100.212 70.6099 100.527 69.7118C100.663 69.3216 100.824 68.9946 100.966 68.9449C109.912 65.7485 234.612 60.577 248.548 67.7824C249.531 68.291 249.85 69.3772 249.98 70.4771C250.122 71.6896 250.184 72.9147 250.164 74.1407C250.495 84.2531 250.164 105.916 249.286 125.329C249.148 128.227 248.273 147.411 246.929 156.988C246.445 160.438 243.831 162.536 240.354 162.752C219.326 164.052 146.398 164.555 118.257 164.821C111.691 164.883 106.092 160.647 105.14 154.15C101.956 132.419 98.0935 86.7687 99.9816 72.5003ZM322.509 37.9581C323.039 37.972 323.561 37.7983 324.008 37.4584C324.455 37.1189 324.807 36.6289 325.018 36.0512C325.231 35.473 325.293 34.8337 325.199 34.2134C325.103 33.593 324.856 33.0204 324.486 32.5679C324.115 32.1158 323.642 31.8046 323.123 31.6734C322.605 31.5427 322.065 31.598 321.572 31.8328C321.079 32.0673 320.658 32.4709 320.359 32.9917C320.059 33.5125 319.899 34.1273 319.894 34.7574C319.886 35.1727 319.947 35.5856 320.076 35.9719C320.203 36.3582 320.395 36.7107 320.638 37.0084C320.881 37.3066 321.172 37.5436 321.494 37.7068C321.814 37.87 322.159 37.9556 322.509 37.9581Z" fill="black"/>
<path d="M138.397 129.55H161.582C164.265 129.538 166.834 128.261 168.726 125.999C170.617 123.739 171.677 120.678 171.672 117.489V95.1303C171.672 91.9351 170.613 88.8681 168.725 86.5934C166.837 84.3191 164.27 83.0199 161.582 82.9769H138.397C137.053 82.971 135.721 83.2809 134.478 83.8898C133.235 84.4984 132.105 85.3932 131.155 86.523C130.204 87.6527 129.451 88.995 128.939 90.4722C128.427 91.9499 128.166 93.5329 128.171 95.1303V117.489C128.176 119.079 128.445 120.652 128.961 122.119C129.478 123.586 130.233 124.917 131.182 126.037C132.132 127.157 133.258 128.043 134.496 128.646C135.734 129.249 137.06 129.556 138.397 129.55ZM129.83 95.1303C129.865 92.4496 130.781 89.8915 132.382 88.0023C133.983 86.1126 136.141 85.0419 138.397 85.0179H161.582C162.721 85.0027 163.852 85.2557 164.909 85.7626C165.965 86.2695 166.927 87.0201 167.738 87.9711C168.549 88.9225 169.193 90.0547 169.634 91.3034C170.075 92.5521 170.303 93.8922 170.306 95.2463V117.489C170.3 118.845 170.071 120.185 169.63 121.435C169.188 122.685 168.544 123.82 167.735 124.774C166.925 125.728 165.964 126.483 164.908 126.996C163.853 127.509 162.723 127.77 161.582 127.764H138.397C137.267 127.758 136.149 127.488 135.107 126.968C134.065 126.448 133.119 125.69 132.323 124.736C131.527 123.781 130.898 122.65 130.47 121.407C130.042 120.164 129.825 118.833 129.83 117.489V95.1303ZM201.081 146.11C201.472 147.479 202.448 147.177 202.721 146.319C202.845 145.906 203.172 144.638 203.561 143.076C204.847 137.917 208.521 133.438 213.401 131.324C214.153 130.999 214.981 130.64 215.894 130.246C216.031 130.183 216.146 130.074 216.229 129.931C216.312 129.788 216.356 129.619 216.356 129.446C216.356 129.272 216.312 129.104 216.229 128.961C216.146 128.818 216.031 128.708 215.894 128.645L195.832 119.113C195.708 119.043 195.572 119.014 195.436 119.027C195.3 119.04 195.17 119.094 195.057 119.186C194.945 119.277 194.854 119.402 194.796 119.548C194.674 119.843 194.753 120.161 194.827 120.472C195.582 123.668 200.099 142.734 201.081 146.11ZM198.576 129.102C197.834 126.086 200.918 123.555 203.732 124.871L205.749 125.815C208.823 127.254 208.766 131.629 205.707 133.098C204.887 133.47 204.555 133.632 204.36 133.933C203.004 136.028 200.348 136.303 199.752 133.88L198.576 129.102ZM242.787 53.5905C242.809 53.7296 242.873 53.8549 242.966 53.9438C243.058 54.0332 243.175 54.0805 243.294 54.0775C243.704 54.0775 256.331 55.5155 258.907 54.7038C260.566 54.1703 260.858 50.6913 261.014 48.6502C261.21 45.5654 261.014 38.0043 259.922 35.4298C258.438 31.9508 247.49 33.1104 244.309 33.7831C244.133 33.8124 243.959 33.8515 243.788 33.9C242.457 34.2755 241.357 35.4121 241.27 36.7922C241.267 36.825 241.266 36.858 241.264 36.891C241.245 42.5077 241.756 48.1092 242.787 53.5905ZM243.08 43.4735C243 39.676 245.619 35.8745 249.412 35.6687C250.353 35.6177 251.315 35.5995 252.247 35.6198C256.037 35.7023 258.584 38.6819 258.841 42.464C258.965 44.2811 259.016 46.2191 258.965 47.9275C258.878 50.8409 257.433 52.67 254.522 52.8048C248.858 53.067 243.199 49.1417 243.08 43.4735ZM268.977 53.4977C269.003 53.6347 269.068 53.7575 269.159 53.846C269.252 53.9341 269.365 53.9831 269.484 53.9848C269.894 53.9848 282.521 55.4228 285.097 54.611C286.756 54.0775 287.049 50.5985 287.224 48.5574C287.4 45.4727 287.224 37.9115 286.112 35.337C284.629 31.8348 273.68 33.0177 270.499 33.6903C270.356 33.7159 270.214 33.7477 270.074 33.7854C268.678 34.1605 267.53 35.3549 267.455 36.7982C267.437 42.4149 267.948 48.0164 268.977 53.4977ZM269.269 43.3271C269.191 39.5436 271.792 35.7736 275.571 35.5678C276.523 35.516 277.495 35.4982 278.438 35.52C282.228 35.6074 284.774 38.5891 285.032 42.3712C285.157 44.2047 285.207 46.1606 285.153 47.8777C285.064 50.7542 283.664 52.5595 280.789 52.7006C275.089 52.9805 269.386 49.0331 269.269 43.3271ZM296.377 54.5182C296.4 54.6574 296.463 54.7826 296.556 54.8716C296.649 54.961 296.766 55.0082 296.885 55.0053C297.294 55.0053 309.921 56.4433 312.497 55.6315C314.156 55.098 314.449 51.619 314.605 49.578C314.8 46.4932 314.605 38.932 313.512 36.3576C312.029 32.8785 301.08 34.0382 297.899 34.7108C297.739 34.7388 297.58 34.7747 297.422 34.8183C296.062 35.1951 294.931 36.354 294.857 37.7637C294.856 37.7821 294.856 37.8004 294.855 37.8188C294.835 43.4354 295.346 49.0369 296.377 54.5182ZM296.67 44.4012C296.59 40.6037 299.21 36.8022 303.003 36.5965C303.944 36.5454 304.905 36.5272 305.837 36.5475C309.627 36.6301 312.174 39.6097 312.432 43.3918C312.556 45.2089 312.606 47.1468 312.555 48.8552C312.468 51.7686 311.024 53.5977 308.112 53.7325C302.449 53.9948 296.789 50.0694 296.67 44.4012ZM269.153 89.1696C269.295 89.6517 269.913 89.6747 270.413 89.7231C273.237 89.9965 283.036 90.9877 285.273 90.2829C286.931 89.7494 287.224 86.2704 287.4 84.2293C287.575 81.1446 287.4 73.5834 286.307 71.0321C284.804 67.5299 273.856 68.7127 270.694 69.3622C270.552 69.3862 270.411 69.4164 270.271 69.4526C268.858 69.8192 267.696 71.0342 267.63 72.4933C267.613 78.1024 268.123 83.6959 269.153 89.1696ZM269.452 79.0935C269.373 75.2784 272.012 71.4501 275.822 71.2461C276.749 71.1965 277.695 71.1789 278.613 71.1987C282.403 71.2806 284.95 74.261 285.207 78.0431C285.33 79.8503 285.381 81.7769 285.331 83.4784C285.246 86.4097 283.781 88.2512 280.852 88.3858C275.198 88.6455 269.57 84.7527 269.452 79.0935ZM315.753 76.7411C315.478 72.4601 316.004 67.9504 318.1 64.2076C319.623 61.4887 320.673 59.5774 320.733 59.4353C320.83 59.2033 319.406 57.1159 318.567 58.6003C312.595 69.5245 313.414 68.4808 312.985 68.2953C309.55 66.8109 298.465 67.3211 296.728 69.2462C295.988 70.0678 295.895 72.2534 295.962 74.2595C296.003 75.4906 294.704 76.1876 293.586 75.6708C292.689 75.2534 292.747 76.2971 293.235 76.6682C295.173 78.1444 296.37 80.3771 296.668 82.7949C296.884 84.5587 297.152 86.3136 297.47 88.0563C297.49 88.1975 297.551 88.3257 297.646 88.4156C297.738 88.5054 297.857 88.5509 297.977 88.5433C298.387 88.5433 311.014 89.9814 313.59 89.1696C315.763 88.4489 316.096 82.0623 315.753 76.7411ZM298.036 71.1017C298.036 71.0606 298.064 71.0246 298.103 71.014C300.138 70.4691 302.205 70.1476 304.278 70.0501C308.191 69.8662 310.188 74.1425 308.344 77.5976L308.143 77.9742C306.591 80.8822 303.48 82.1929 300.76 80.3297C299.32 79.343 297.785 77.335 297.795 75.5893C297.804 74.0901 297.884 72.5918 298.036 71.1017ZM313.012 86.8038C313.007 86.8038 313.003 86.8043 312.998 86.8058C311.557 87.2551 304.561 87.3551 300.649 87.3882C299.329 87.3994 298.262 87.2005 298.172 85.8829C298.038 83.8981 300.197 81.8313 301.798 83.0126L304.78 85.2138C305.08 85.4352 305.462 85.6257 305.784 85.4379C305.953 85.3397 306.094 85.1857 306.194 84.9947C306.393 84.6915 306.848 83.9329 307.479 82.8591C309.366 79.6515 313.885 80.6505 313.538 84.3554C313.439 85.4145 313.282 86.268 313.056 86.7767C313.048 86.7942 313.031 86.8038 313.012 86.8038ZM235.41 37.1925C235.94 37.2018 236.459 37.0238 236.904 36.6814C237.348 36.339 237.696 35.8473 237.906 35.2691C238.114 34.6906 238.175 34.0517 238.077 33.4326C237.979 32.814 237.73 32.2434 237.36 31.7935C236.989 31.3435 236.516 31.0344 235.997 30.9053C235.478 30.7763 234.94 30.8332 234.448 31.069C233.957 31.3043 233.536 31.7079 233.239 32.2282C232.941 32.7486 232.778 33.3626 232.775 33.9918C232.775 34.8289 233.05 35.6326 233.543 36.231C234.035 36.8294 234.705 37.1744 235.41 37.1925Z" fill="black"/>
</svg>
