<svg width="32" height="32" viewBox="0 0 32 32" fill="none" xmlns="http://www.w3.org/2000/svg">
<rect x="10" y="10" width="18" height="18" rx="2" stroke="#F9F9F9" stroke-width="2" stroke-linecap="round" stroke-linejoin="round"/>
<path d="M21 7C21 7.55228 21.4477 8 22 8C22.5523 8 23 7.55228 23 7H21ZM7 23C7.55228 23 8 22.5523 8 22C8 21.4477 7.55228 21 7 21V23ZM23 7V6H21V7H23ZM20 3H6V5H20V3ZM3 6V20H5V6H3ZM6 23H7V21H6V23ZM3 20C3 21.6569 4.34315 23 6 23V21C5.44772 21 5 20.5523 5 20H3ZM6 3C4.34315 3 3 4.34315 3 6H5C5 5.44772 5.44772 5 6 5V3ZM23 6C23 4.34315 21.6569 3 20 3V5C20.5523 5 21 5.44772 21 6H23Z" fill="#F9F9F9"/>
</svg>
