<svg width="215" height="85" viewBox="0 0 215 85" fill="none" xmlns="http://www.w3.org/2000/svg">
<path d="M86.328 48C85.3253 48 84.44 47.8507 83.672 47.552C82.9253 47.232 82.3493 46.7093 81.944 45.984C81.5387 45.2373 81.336 44.2453 81.336 43.008V24.416H84.568V42.528C84.568 43.2107 84.6853 43.744 84.92 44.128C85.1547 44.4907 85.464 44.736 85.848 44.864C86.232 44.992 86.648 45.056 87.096 45.056H95.256V48H86.328ZM101.727 48.192C100.468 48.192 99.4225 47.8187 98.5905 47.072C97.7798 46.304 97.3745 45.248 97.3745 43.904V42.56C97.3745 41.2373 97.8225 40.16 98.7185 39.328C99.6358 38.4747 101.012 38.048 102.847 38.048H108.191V36.256C108.191 35.5947 108.073 35.04 107.839 34.592C107.625 34.1227 107.22 33.7707 106.623 33.536C106.025 33.3013 105.14 33.184 103.967 33.184H98.7185V31.296C99.4865 31.1253 100.383 30.976 101.407 30.848C102.452 30.72 103.668 30.6453 105.055 30.624C106.463 30.624 107.636 30.8053 108.575 31.168C109.535 31.5093 110.249 32.0853 110.719 32.896C111.188 33.6853 111.423 34.7413 111.423 36.064V48H108.895L108.351 46.112C108.223 46.1973 107.956 46.3573 107.551 46.592C107.145 46.8053 106.623 47.04 105.983 47.296C105.364 47.552 104.681 47.7653 103.935 47.936C103.209 48.1067 102.473 48.192 101.727 48.192ZM103.199 45.856C103.519 45.8773 103.892 45.8453 104.319 45.76C104.767 45.6747 105.204 45.5787 105.631 45.472C106.079 45.344 106.484 45.216 106.847 45.088C107.231 44.96 107.54 44.8533 107.775 44.768C108.031 44.6613 108.169 44.5973 108.191 44.576V39.648L103.711 39.84C102.601 39.904 101.801 40.1813 101.311 40.672C100.841 41.1627 100.607 41.8027 100.607 42.592V43.36C100.607 43.9787 100.735 44.48 100.991 44.864C101.247 45.2267 101.567 45.4827 101.951 45.632C102.356 45.7813 102.772 45.856 103.199 45.856ZM124.475 48.192C123.686 48.192 122.95 48.096 122.267 47.904C121.606 47.712 120.998 47.4773 120.443 47.2C119.91 46.9013 119.419 46.6027 118.971 46.304L118.395 48H115.771V23.584H118.971V32.32C119.761 31.8933 120.635 31.5093 121.595 31.168C122.577 30.8267 123.483 30.656 124.315 30.656C125.723 30.656 126.875 30.9547 127.771 31.552C128.667 32.128 129.329 33.0667 129.755 34.368C130.203 35.6693 130.427 37.408 130.427 39.584C130.427 41.3973 130.225 42.9547 129.819 44.256C129.414 45.536 128.774 46.5173 127.899 47.2C127.025 47.8613 125.883 48.192 124.475 48.192ZM123.355 45.536C124.187 45.536 124.881 45.3333 125.435 44.928C126.011 44.5013 126.449 43.84 126.747 42.944C127.067 42.0267 127.227 40.8533 127.227 39.424C127.227 37.6747 127.057 36.3627 126.715 35.488C126.374 34.6133 125.915 34.0267 125.339 33.728C124.763 33.4293 124.102 33.28 123.355 33.28C122.502 33.28 121.723 33.408 121.019 33.664C120.337 33.8987 119.654 34.1973 118.971 34.56V44.32C119.547 44.6187 120.198 44.896 120.923 45.152C121.649 45.408 122.459 45.536 123.355 45.536Z" fill="#272727"/>
<ellipse cx="154.242" cy="27.0559" rx="2.02105" ry="2.0947" fill="#72C3DD"/>
<ellipse cx="144.811" cy="34.0383" rx="2.02105" ry="2.0947" fill="#72C3DD"/>
<ellipse cx="160.979" cy="22.8667" rx="2.02105" ry="2.0947" fill="#72C3DD"/>
<ellipse cx="137.4" cy="5.41086" rx="2.02105" ry="2.0947" fill="#72C3DD"/>
<ellipse cx="129.316" cy="12.393" rx="2.02105" ry="2.0947" fill="#72C3DD"/>
<ellipse cx="127.969" cy="23.5647" rx="2.02105" ry="2.0947" fill="#72C3DD"/>
<g filter="url(#filter0_f_167_401)">
<path d="M156.437 19.7244C156.437 28.1418 149.858 34.9347 141.779 34.9347C133.701 34.9347 127.121 28.1418 127.121 19.7244C127.121 11.307 133.701 4.51416 141.779 4.51416C149.858 4.51416 156.437 11.307 156.437 19.7244Z" stroke="#70C9A3"/>
</g>
<path d="M156.437 19.7244C156.437 28.1418 149.858 34.9347 141.779 34.9347C133.701 34.9347 127.121 28.1418 127.121 19.7244C127.121 11.307 133.701 4.51416 141.779 4.51416C149.858 4.51416 156.437 11.307 156.437 19.7244Z" stroke="#70C9A3"/>
<path d="M150.473 3.0005C150.895 3.22833 151.241 3.82279 151.358 4.96336C151.472 6.07825 151.35 7.5735 150.989 9.35895C150.269 12.9226 148.624 17.5268 146.216 22.3162C143.809 27.1056 141.11 31.1409 138.705 33.7945C137.5 35.124 136.388 36.0848 135.44 36.6264C134.471 37.1805 133.803 37.2273 133.381 36.9994C132.959 36.7716 132.613 36.1771 132.496 35.0366C132.382 33.9217 132.504 32.4264 132.865 30.641C133.585 27.0773 135.23 22.4731 137.638 17.6837C140.046 12.8943 142.744 8.85898 145.149 6.20544C146.354 4.87596 147.467 3.91511 148.414 3.37351C149.383 2.81943 150.051 2.77266 150.473 3.0005Z" stroke="#70C9A3"/>
<path d="M159.72 15.4846C159.818 15.9418 159.604 16.564 158.858 17.3494C158.126 18.1186 156.973 18.9451 155.461 19.7722C152.443 21.423 148.098 23.0206 143.144 24.1597C138.19 25.2987 133.601 25.7553 130.193 25.5821C128.485 25.4953 127.103 25.2517 126.127 24.8751C125.13 24.4905 124.682 24.0203 124.584 23.5632C124.486 23.106 124.7 22.4838 125.447 21.6984C126.178 20.9292 127.331 20.1027 128.843 19.2756C131.861 17.6248 136.206 16.0272 141.16 14.8881C146.114 13.7491 150.703 13.2925 154.111 13.4657C155.819 13.5525 157.201 13.7961 158.178 14.1727C159.174 14.5573 159.622 15.0275 159.72 15.4846Z" stroke="#70C9A3"/>
<ellipse cx="148.6" cy="6.98215" rx="2.02105" ry="2.0947" fill="#72C3DD"/>
<ellipse cx="155.59" cy="15.8843" rx="2.02105" ry="2.0947" fill="#72C3DD"/>
<ellipse cx="134.705" cy="32.6418" rx="2.02105" ry="2.0947" fill="#72C3DD"/>
<path d="M9.184 48.192C8.608 48.192 7.98933 48.1707 7.328 48.128C6.688 48.1067 6.02667 48.064 5.344 48C4.68267 47.9147 4.05333 47.84 3.456 47.776C2.85867 47.6907 2.32533 47.5947 1.856 47.488V44.384C2.45333 44.4267 3.14667 44.4693 3.936 44.512C4.74667 44.5547 5.58933 44.5867 6.464 44.608C7.33867 44.6293 8.18133 44.64 8.992 44.64C9.84533 44.64 10.6027 44.5653 11.264 44.416C11.9253 44.2453 12.4373 43.9573 12.8 43.552C13.1627 43.1467 13.344 42.5707 13.344 41.824V40.704C13.344 39.872 13.1093 39.232 12.64 38.784C12.1707 38.336 11.4773 38.112 10.56 38.112H8.352C6.19733 38.112 4.53333 37.6427 3.36 36.704C2.208 35.7653 1.632 34.1547 1.632 31.872V30.656C1.632 28.3733 2.26133 26.7307 3.52 25.728C4.8 24.704 6.624 24.192 8.992 24.192C9.80267 24.192 10.6347 24.2347 11.488 24.32C12.3627 24.384 13.1947 24.4693 13.984 24.576C14.7733 24.6827 15.4453 24.8 16 24.928V28.032C15.0613 27.968 13.984 27.904 12.768 27.84C11.5733 27.776 10.464 27.744 9.44 27.744C8.62933 27.744 7.91467 27.8293 7.296 28C6.67733 28.1707 6.208 28.48 5.888 28.928C5.568 29.3547 5.408 29.9947 5.408 30.848V31.616C5.408 32.6187 5.67467 33.3227 6.208 33.728C6.76267 34.1333 7.552 34.336 8.576 34.336H11.04C12.4267 34.336 13.568 34.592 14.464 35.104C15.36 35.616 16.0213 36.32 16.448 37.216C16.896 38.0907 17.12 39.0933 17.12 40.224V41.728C17.12 43.4773 16.7787 44.8213 16.096 45.76C15.4133 46.6987 14.4747 47.3387 13.28 47.68C12.0853 48.0213 10.72 48.192 9.184 48.192ZM26.0148 48V27.936H19.2308V24.384H36.7348V27.936H29.9828V48H26.0148ZM48.162 48.16C46.8607 48.16 45.6553 48.0533 44.546 47.84C43.4367 47.6053 42.4767 47.2107 41.666 46.656C40.8553 46.08 40.226 45.3013 39.778 44.32C39.3513 43.3173 39.138 42.0373 39.138 40.48V24.384H43.074V40.48C43.074 41.504 43.2767 42.3253 43.682 42.944C44.0873 43.5413 44.6633 43.968 45.41 44.224C46.178 44.48 47.0953 44.608 48.162 44.608C49.2287 44.608 50.1353 44.48 50.882 44.224C51.65 43.968 52.2367 43.5413 52.642 42.944C53.0473 42.3253 53.25 41.504 53.25 40.48V24.384H57.186V40.48C57.186 42.0373 56.962 43.3173 56.514 44.32C56.0873 45.3013 55.4687 46.08 54.658 46.656C53.8473 47.2107 52.8873 47.6053 51.778 47.84C50.69 48.0533 49.4847 48.16 48.162 48.16ZM61.2705 48V24.384H71.0305C72.5665 24.384 73.8465 24.6613 74.8705 25.216C75.9158 25.7493 76.7478 26.5387 77.3665 27.584C77.9852 28.608 78.4225 29.8453 78.6785 31.296C78.9558 32.7467 79.0945 34.3787 79.0945 36.192C79.0945 38.7947 78.7958 40.9707 78.1985 42.72C77.6012 44.448 76.7052 45.76 75.5105 46.656C74.3158 47.552 72.8225 48 71.0305 48H61.2705ZM65.2065 44.448H70.6465C71.7345 44.448 72.5985 44.128 73.2385 43.488C73.8998 42.848 74.3798 41.9093 74.6785 40.672C74.9985 39.4347 75.1585 37.9413 75.1585 36.192C75.1585 34.5707 75.0625 33.2267 74.8705 32.16C74.6785 31.0933 74.4012 30.2507 74.0385 29.632C73.6758 29.0133 73.2065 28.576 72.6305 28.32C72.0758 28.064 71.4145 27.936 70.6465 27.936H65.2065V44.448Z" fill="#272727"/>
<defs>
<filter id="filter0_f_167_401" x="122.621" y="0.0141602" width="38.3157" height="39.4204" filterUnits="userSpaceOnUse" color-interpolation-filters="sRGB">
<feFlood flood-opacity="0" result="BackgroundImageFix"/>
<feBlend mode="normal" in="SourceGraphic" in2="BackgroundImageFix" result="shape"/>
<feGaussianBlur stdDeviation="2" result="effect1_foregroundBlur_167_401"/>
</filter>
</defs>
</svg>
