<svg width="433" height="184" viewBox="0 0 433 184" fill="none" xmlns="http://www.w3.org/2000/svg">
<path d="M27.552 162.576C25.824 162.576 23.968 162.512 21.984 162.384C20.064 162.32 18.08 162.192 16.032 162C14.048 161.744 12.16 161.52 10.368 161.328C8.576 161.072 6.976 160.784 5.568 160.464V151.152C7.36 151.28 9.44 151.408 11.808 151.536C14.24 151.664 16.768 151.76 19.392 151.824C22.016 151.888 24.544 151.92 26.976 151.92C29.536 151.92 31.808 151.696 33.792 151.248C35.776 150.736 37.312 149.872 38.4 148.656C39.488 147.44 40.032 145.712 40.032 143.472V140.112C40.032 137.616 39.328 135.696 37.92 134.352C36.512 133.008 34.432 132.336 31.68 132.336H25.056C18.592 132.336 13.6 130.928 10.08 128.112C6.624 125.296 4.896 120.464 4.896 113.616V109.968C4.896 103.12 6.784 98.192 10.56 95.184C14.4 92.112 19.872 90.576 26.976 90.576C29.408 90.576 31.904 90.704 34.464 90.96C37.088 91.152 39.584 91.408 41.952 91.728C44.32 92.048 46.336 92.4 48 92.784V102.096C45.184 101.904 41.952 101.712 38.304 101.52C34.72 101.328 31.392 101.232 28.32 101.232C25.888 101.232 23.744 101.488 21.888 102C20.032 102.512 18.624 103.44 17.664 104.784C16.704 106.064 16.224 107.984 16.224 110.544V112.848C16.224 115.856 17.024 117.968 18.624 119.184C20.288 120.4 22.656 121.008 25.728 121.008H33.12C37.28 121.008 40.704 121.776 43.392 123.312C46.08 124.848 48.064 126.96 49.344 129.648C50.688 132.272 51.36 135.28 51.36 138.672V143.184C51.36 148.432 50.336 152.464 48.288 155.28C46.24 158.096 43.424 160.016 39.84 161.04C36.256 162.064 32.16 162.576 27.552 162.576ZM80.9243 162C77.2123 162 74.1723 161.456 71.8043 160.368C69.4363 159.216 67.7083 157.328 66.6203 154.704C65.5963 152.08 65.1163 148.624 65.1803 144.336L65.5643 120.144H57.5003V112.464L65.9483 110.544L67.6763 96.144H76.9883V110.544H90.0443V120.144H76.9883V144.24C76.9883 145.904 77.1483 147.28 77.4683 148.368C77.7883 149.392 78.2363 150.224 78.8123 150.864C79.4523 151.44 80.1243 151.856 80.8282 152.112C81.5323 152.368 82.2683 152.528 83.0363 152.592L89.4683 153.264V162H80.9243ZM113.647 162.576C108.911 162.576 105.231 161.264 102.607 158.64C99.9828 155.952 98.6708 152.048 98.6708 146.928V110.544H110.575V143.472C110.575 146.864 111.343 149.136 112.879 150.288C114.479 151.44 116.623 152.016 119.311 152.016C121.551 152.016 123.727 151.664 125.839 150.96C127.951 150.256 129.935 149.232 131.791 147.888V110.544H143.695V162H133.999L131.791 156.624C129.359 158.16 126.575 159.536 123.439 160.752C120.367 161.968 117.103 162.576 113.647 162.576ZM172.473 162.576C168.441 162.576 165.049 161.712 162.297 159.984C159.545 158.192 157.465 155.408 156.057 151.632C154.713 147.792 154.041 142.832 154.041 136.752C154.041 130.352 154.649 125.2 155.865 121.296C157.081 117.328 159.097 114.448 161.913 112.656C164.793 110.8 168.633 109.872 173.433 109.872C175.993 109.872 178.521 110.128 181.017 110.64C183.513 111.152 185.689 111.76 187.545 112.464V88.752H199.449V162H189.561L187.545 157.008C186.521 157.968 185.145 158.864 183.417 159.696C181.753 160.528 179.961 161.232 178.041 161.808C176.185 162.32 174.329 162.576 172.473 162.576ZM176.505 152.976C178.809 152.976 180.889 152.624 182.745 151.92C184.601 151.152 186.201 150.384 187.545 149.616V121.008C185.945 120.432 184.313 119.92 182.649 119.472C180.985 119.024 179.161 118.8 177.177 118.8C174.489 118.8 172.313 119.312 170.649 120.336C168.985 121.296 167.769 123.024 167.001 125.52C166.297 128.016 165.945 131.568 165.945 136.176C165.945 140.464 166.297 143.856 167.001 146.352C167.705 148.784 168.825 150.512 170.361 151.536C171.961 152.496 174.009 152.976 176.505 152.976Z" fill="white"/>
<path d="M220.656 161C218.651 161 216.88 160.701 215.344 160.104C213.851 159.464 212.699 158.419 211.888 156.968C211.077 155.475 210.672 153.491 210.672 151.016V113.832H217.136V150.056C217.136 151.421 217.371 152.488 217.84 153.256C218.309 153.981 218.928 154.472 219.696 154.728C220.464 154.984 221.296 155.112 222.192 155.112H238.512V161H220.656ZM251.453 161.384C248.936 161.384 246.845 160.637 245.181 159.144C243.56 157.608 242.749 155.496 242.749 152.808V150.12C242.749 147.475 243.645 145.32 245.437 143.656C247.272 141.949 250.024 141.096 253.693 141.096H264.381V137.512C264.381 136.189 264.146 135.08 263.677 134.184C263.25 133.245 262.44 132.541 261.245 132.072C260.05 131.603 258.28 131.368 255.933 131.368H245.437V127.592C246.973 127.251 248.765 126.952 250.813 126.696C252.904 126.44 255.336 126.291 258.109 126.248C260.925 126.248 263.272 126.611 265.149 127.336C267.069 128.019 268.498 129.171 269.437 130.792C270.376 132.371 270.845 134.483 270.845 137.128V161H265.789L264.701 157.224C264.445 157.395 263.912 157.715 263.101 158.184C262.29 158.611 261.245 159.08 259.965 159.592C258.728 160.104 257.362 160.531 255.869 160.872C254.418 161.213 252.946 161.384 251.453 161.384ZM254.397 156.712C255.037 156.755 255.784 156.691 256.637 156.52C257.533 156.349 258.408 156.157 259.261 155.944C260.157 155.688 260.968 155.432 261.693 155.176C262.461 154.92 263.08 154.707 263.549 154.536C264.061 154.323 264.338 154.195 264.381 154.152V144.296L255.421 144.68C253.202 144.808 251.602 145.363 250.621 146.344C249.682 147.325 249.213 148.605 249.213 150.184V151.72C249.213 152.957 249.469 153.96 249.981 154.728C250.493 155.453 251.133 155.965 251.901 156.264C252.712 156.563 253.544 156.712 254.397 156.712ZM296.951 161.384C295.372 161.384 293.9 161.192 292.535 160.808C291.212 160.424 289.996 159.955 288.887 159.4C287.82 158.803 286.839 158.205 285.943 157.608L284.791 161H279.543V112.168H285.943V129.64C287.521 128.787 289.271 128.019 291.191 127.336C293.153 126.653 294.967 126.312 296.631 126.312C299.447 126.312 301.751 126.909 303.543 128.104C305.335 129.256 306.657 131.133 307.511 133.736C308.407 136.339 308.854 139.816 308.854 144.168C308.854 147.795 308.449 150.909 307.639 153.512C306.828 156.072 305.548 158.035 303.799 159.4C302.049 160.723 299.767 161.384 296.951 161.384ZM294.711 156.072C296.375 156.072 297.761 155.667 298.871 154.856C300.023 154.003 300.897 152.68 301.495 150.888C302.135 149.053 302.455 146.707 302.455 143.848C302.455 140.349 302.113 137.725 301.431 135.976C300.748 134.227 299.831 133.053 298.679 132.456C297.527 131.859 296.204 131.56 294.711 131.56C293.004 131.56 291.447 131.816 290.039 132.328C288.673 132.797 287.308 133.395 285.943 134.12V153.64C287.095 154.237 288.396 154.792 289.847 155.304C291.297 155.816 292.919 156.072 294.711 156.072Z" fill="white"/>
<ellipse cx="402.579" cy="101.855" rx="7.57892" ry="7.85512" fill="white"/>
<ellipse cx="369.579" cy="128.855" rx="7.57892" ry="7.85512" fill="white"/>
<ellipse cx="425.421" cy="85.7499" rx="7.57892" ry="7.85512" fill="white"/>
<ellipse cx="337" cy="20.2904" rx="7.57892" ry="7.85512" fill="white"/>
<ellipse cx="305.579" cy="44.8551" rx="7.57892" ry="7.85512" fill="white"/>
<ellipse cx="300.579" cy="85.8551" rx="7.57892" ry="7.85512" fill="white"/>
<g filter="url(#filter0_f_111_193)">
<path d="M408.763 73.9671C408.763 105.727 383.936 131.381 353.421 131.381C322.907 131.381 298.08 105.727 298.08 73.9671C298.08 42.2075 322.907 16.5537 353.421 16.5537C383.936 16.5537 408.763 42.2075 408.763 73.9671Z" stroke="white" stroke-width="3"/>
</g>
<path d="M409.263 73.9671C409.263 105.986 384.229 131.881 353.421 131.881C322.614 131.881 297.58 105.986 297.58 73.9671C297.58 41.9484 322.614 16.0537 353.421 16.0537C384.229 16.0537 409.263 41.9484 409.263 73.9671Z" stroke="white" stroke-width="2"/>
<path d="M386.416 10.4703C388.403 11.543 389.754 14.1741 390.201 18.5349C390.644 22.8443 390.166 28.5519 388.805 35.2896C386.085 48.7506 379.884 66.092 370.831 84.1017C361.777 102.111 351.617 117.314 342.531 127.338C337.983 132.355 333.743 136.031 330.082 138.124C326.378 140.243 323.523 140.603 321.536 139.53C319.55 138.457 318.199 135.826 317.751 131.465C317.309 127.156 317.787 121.448 319.148 114.71C321.868 101.249 328.069 83.908 337.122 65.8984C346.176 47.8888 356.336 32.6856 365.422 22.6622C369.97 17.6452 374.209 13.9694 377.871 11.876C381.575 9.75754 384.43 9.39755 386.416 10.4703Z" stroke="white" stroke-width="2"/>
<path d="M421.552 57.8714C422.013 60.0239 420.954 62.6514 418.092 65.6628C415.26 68.6417 410.848 71.7928 405.138 74.9159C393.732 81.155 377.358 87.1703 358.724 91.4545C340.091 95.7388 322.799 97.4643 309.917 96.8096C303.469 96.4819 298.184 95.5604 294.403 94.1019C290.581 92.6275 288.549 90.7107 288.088 88.5582C287.627 86.4057 288.687 83.7782 291.549 80.7668C294.38 77.7878 298.793 74.6368 304.502 71.5137C315.909 65.2745 332.283 59.2593 350.916 54.9751C369.549 50.6908 386.842 48.9653 399.724 49.62C406.172 49.9477 411.456 50.8692 415.237 52.3277C419.06 53.8021 421.092 55.7188 421.552 57.8714Z" stroke="white" stroke-width="2"/>
<ellipse cx="380.579" cy="22.8551" rx="7.57892" ry="7.85512" fill="white"/>
<ellipse cx="406.579" cy="60.8551" rx="7.57892" ry="7.85512" fill="white"/>
<ellipse cx="328.579" cy="124.855" rx="7.57892" ry="7.85512" fill="white"/>
<defs>
<filter id="filter0_f_111_193" x="292.58" y="11.0537" width="121.684" height="125.827" filterUnits="userSpaceOnUse" color-interpolation-filters="sRGB">
<feFlood flood-opacity="0" result="BackgroundImageFix"/>
<feBlend mode="normal" in="SourceGraphic" in2="BackgroundImageFix" result="shape"/>
<feGaussianBlur stdDeviation="2" result="effect1_foregroundBlur_111_193"/>
</filter>
</defs>
</svg>
