<svg width="151" height="81" viewBox="0 0 151 81" fill="none" xmlns="http://www.w3.org/2000/svg">
<ellipse cx="142.888" cy="27.1611" rx="2.02105" ry="2.0947" fill="white"/>
<ellipse cx="134.088" cy="34.3613" rx="2.02105" ry="2.0947" fill="white"/>
<ellipse cx="148.979" cy="22.8672" rx="2.02105" ry="2.0947" fill="white"/>
<ellipse cx="125.4" cy="5.41111" rx="2.02105" ry="2.0947" fill="white"/>
<ellipse cx="117.021" cy="11.9609" rx="2.02105" ry="2.0947" fill="white"/>
<ellipse cx="115.688" cy="22.8945" rx="2.02105" ry="2.0947" fill="white"/>
<g filter="url(#filter0_f_180_415)">
<path d="M144.437 19.7249C144.437 28.1423 137.858 34.9352 129.779 34.9352C121.701 34.9352 115.121 28.1423 115.121 19.7249C115.121 11.3075 121.701 4.51465 129.779 4.51465C137.858 4.51465 144.437 11.3075 144.437 19.7249Z" stroke="white"/>
</g>
<path d="M144.437 19.7249C144.437 28.1423 137.858 34.9352 129.779 34.9352C121.701 34.9352 115.121 28.1423 115.121 19.7249C115.121 11.3075 121.701 4.51465 129.779 4.51465C137.858 4.51465 144.437 11.3075 144.437 19.7249Z" stroke="white"/>
<path d="M138.473 3.00074C138.895 3.22857 139.241 3.82304 139.358 4.96361C139.472 6.0785 139.35 7.57374 138.989 9.35919C138.269 12.9228 136.624 17.527 134.216 22.3164C131.808 27.1058 129.11 31.1412 126.705 33.7947C125.5 35.1242 124.388 36.0851 123.44 36.6267C122.471 37.1807 121.803 37.2275 121.381 36.9997C120.959 36.7718 120.613 36.1774 120.496 35.0368C120.382 33.9219 120.504 32.4267 120.865 30.6412C121.585 27.0776 123.23 22.4734 125.638 17.684C128.046 12.8946 130.744 8.85922 133.149 6.20568C134.354 4.8762 135.467 3.91535 136.414 3.37375C137.383 2.81968 138.051 2.77291 138.473 3.00074Z" stroke="white"/>
<path d="M147.72 15.4848C147.818 15.942 147.604 16.5643 146.858 17.3497C146.126 18.1189 144.973 18.9453 143.461 19.7724C140.443 21.4232 136.098 23.0208 131.144 24.1599C126.19 25.299 121.601 25.7555 118.193 25.5823C116.485 25.4955 115.103 25.2519 114.127 24.8753C113.13 24.4908 112.682 24.0206 112.584 23.5634C112.486 23.1063 112.7 22.484 113.447 21.6986C114.178 20.9294 115.331 20.103 116.843 19.2758C119.861 17.6251 124.206 16.0274 129.16 14.8884C134.114 13.7493 138.703 13.2927 142.112 13.466C143.819 13.5528 145.201 13.7964 146.178 14.173C147.175 14.5575 147.622 15.0277 147.72 15.4848Z" stroke="white"/>
<ellipse cx="137.021" cy="6.0947" rx="2.02105" ry="2.0947" fill="white"/>
<ellipse cx="143.955" cy="16.2285" rx="2.02105" ry="2.0947" fill="white"/>
<ellipse cx="123.154" cy="33.2949" rx="2.02105" ry="2.0947" fill="white"/>
<path d="M9.184 52.192C8.608 52.192 7.98933 52.1707 7.328 52.128C6.688 52.1067 6.02667 52.064 5.344 52C4.68267 51.9147 4.05333 51.84 3.456 51.776C2.85867 51.6907 2.32533 51.5947 1.856 51.488V48.384C2.45333 48.4267 3.14667 48.4693 3.936 48.512C4.74667 48.5547 5.58933 48.5867 6.464 48.608C7.33867 48.6293 8.18133 48.64 8.992 48.64C9.84533 48.64 10.6027 48.5653 11.264 48.416C11.9253 48.2453 12.4373 47.9573 12.8 47.552C13.1627 47.1467 13.344 46.5707 13.344 45.824V44.704C13.344 43.872 13.1093 43.232 12.64 42.784C12.1707 42.336 11.4773 42.112 10.56 42.112H8.352C6.19733 42.112 4.53333 41.6427 3.36 40.704C2.208 39.7653 1.632 38.1547 1.632 35.872V34.656C1.632 32.3733 2.26133 30.7307 3.52 29.728C4.8 28.704 6.624 28.192 8.992 28.192C9.80267 28.192 10.6347 28.2347 11.488 28.32C12.3627 28.384 13.1947 28.4693 13.984 28.576C14.7733 28.6827 15.4453 28.8 16 28.928V32.032C15.0613 31.968 13.984 31.904 12.768 31.84C11.5733 31.776 10.464 31.744 9.44 31.744C8.62933 31.744 7.91467 31.8293 7.296 32C6.67733 32.1707 6.208 32.48 5.888 32.928C5.568 33.3547 5.408 33.9947 5.408 34.848V35.616C5.408 36.6187 5.67467 37.3227 6.208 37.728C6.76267 38.1333 7.552 38.336 8.576 38.336H11.04C12.4267 38.336 13.568 38.592 14.464 39.104C15.36 39.616 16.0213 40.32 16.448 41.216C16.896 42.0907 17.12 43.0933 17.12 44.224V45.728C17.12 47.4773 16.7787 48.8213 16.096 49.76C15.4133 50.6987 14.4747 51.3387 13.28 51.68C12.0853 52.0213 10.72 52.192 9.184 52.192ZM26.9748 52C25.7374 52 24.7241 51.8187 23.9348 51.456C23.1454 51.072 22.5694 50.4427 22.2068 49.568C21.8654 48.6933 21.7054 47.5413 21.7268 46.112L21.8548 38.048H19.1668V35.488L21.9828 34.848L22.5588 30.048H25.6628V34.848H30.0148V38.048H25.6628V46.08C25.6628 46.6347 25.7161 47.0933 25.8228 47.456C25.9294 47.7973 26.0788 48.0747 26.2708 48.288C26.4841 48.48 26.7081 48.6187 26.9427 48.704C27.1774 48.7893 27.4228 48.8427 27.6788 48.864L29.8228 49.088V52H26.9748ZM37.8823 52.192C36.3036 52.192 35.0769 51.7547 34.2023 50.88C33.3276 49.984 32.8903 48.6827 32.8903 46.976V34.848H36.8583V45.824C36.8583 46.9547 37.1143 47.712 37.6263 48.096C38.1596 48.48 38.8743 48.672 39.7703 48.672C40.5169 48.672 41.2423 48.5547 41.9463 48.32C42.6503 48.0853 43.3116 47.744 43.9303 47.296V34.848H47.8983V52H44.6663L43.9303 50.208C43.1196 50.72 42.1916 51.1787 41.1463 51.584C40.1223 51.9893 39.0343 52.192 37.8823 52.192ZM57.491 52.192C56.147 52.192 55.0163 51.904 54.099 51.328C53.1817 50.7307 52.4883 49.8027 52.019 48.544C51.571 47.264 51.347 45.6107 51.347 43.584C51.347 41.4507 51.5497 39.7333 51.955 38.432C52.3603 37.1093 53.0323 36.1493 53.971 35.552C54.931 34.9333 56.211 34.624 57.811 34.624C58.6643 34.624 59.507 34.7093 60.339 34.88C61.171 35.0507 61.8963 35.2533 62.515 35.488V27.584H66.483V52H63.187L62.515 50.336C62.1737 50.656 61.715 50.9547 61.139 51.232C60.5843 51.5093 59.987 51.744 59.347 51.936C58.7283 52.1067 58.1097 52.192 57.491 52.192ZM58.835 48.992C59.603 48.992 60.2963 48.8747 60.915 48.64C61.5337 48.384 62.067 48.128 62.515 47.872V38.336C61.9817 38.144 61.4377 37.9733 60.883 37.824C60.3283 37.6747 59.7203 37.6 59.059 37.6C58.163 37.6 57.4377 37.7707 56.883 38.112C56.3283 38.432 55.923 39.008 55.667 39.84C55.4323 40.672 55.315 41.856 55.315 43.392C55.315 44.8213 55.4323 45.952 55.667 46.784C55.9017 47.5947 56.275 48.1707 56.787 48.512C57.3203 48.832 58.003 48.992 58.835 48.992Z" fill="#F9F9F9"/>
<path d="M75.328 52C74.3253 52 73.44 51.8507 72.672 51.552C71.9253 51.232 71.3493 50.7093 70.944 49.984C70.5387 49.2373 70.336 48.2453 70.336 47.008V28.416H73.568V46.528C73.568 47.2107 73.6853 47.744 73.92 48.128C74.1547 48.4907 74.464 48.736 74.848 48.864C75.232 48.992 75.648 49.056 76.096 49.056H84.256V52H75.328ZM90.7265 52.192C89.4678 52.192 88.4225 51.8187 87.5905 51.072C86.7798 50.304 86.3745 49.248 86.3745 47.904V46.56C86.3745 45.2373 86.8225 44.16 87.7185 43.328C88.6358 42.4747 90.0118 42.048 91.8465 42.048H97.1905V40.256C97.1905 39.5947 97.0732 39.04 96.8385 38.592C96.6252 38.1227 96.2198 37.7707 95.6225 37.536C95.0252 37.3013 94.1398 37.184 92.9665 37.184H87.7185V35.296C88.4865 35.1253 89.3825 34.976 90.4065 34.848C91.4518 34.72 92.6678 34.6453 94.0545 34.624C95.4625 34.624 96.6358 34.8053 97.5745 35.168C98.5345 35.5093 99.2492 36.0853 99.7185 36.896C100.188 37.6853 100.423 38.7413 100.423 40.064V52H97.8945L97.3505 50.112C97.2225 50.1973 96.9558 50.3573 96.5505 50.592C96.1452 50.8053 95.6225 51.04 94.9825 51.296C94.3638 51.552 93.6812 51.7653 92.9345 51.936C92.2092 52.1067 91.4732 52.192 90.7265 52.192ZM92.1985 49.856C92.5185 49.8773 92.8918 49.8453 93.3185 49.76C93.7665 49.6747 94.2038 49.5787 94.6305 49.472C95.0785 49.344 95.4838 49.216 95.8465 49.088C96.2305 48.96 96.5398 48.8533 96.7745 48.768C97.0305 48.6613 97.1692 48.5973 97.1905 48.576V43.648L92.7105 43.84C91.6012 43.904 90.8012 44.1813 90.3105 44.672C89.8412 45.1627 89.6065 45.8027 89.6065 46.592V47.36C89.6065 47.9787 89.7345 48.48 89.9905 48.864C90.2465 49.2267 90.5665 49.4827 90.9505 49.632C91.3558 49.7813 91.7718 49.856 92.1985 49.856ZM113.475 52.192C112.686 52.192 111.95 52.096 111.267 51.904C110.606 51.712 109.998 51.4773 109.443 51.2C108.91 50.9013 108.419 50.6027 107.971 50.304L107.395 52H104.771V27.584H107.971V36.32C108.761 35.8933 109.635 35.5093 110.595 35.168C111.577 34.8267 112.483 34.656 113.315 34.656C114.723 34.656 115.875 34.9547 116.771 35.552C117.667 36.128 118.329 37.0667 118.755 38.368C119.203 39.6693 119.427 41.408 119.427 43.584C119.427 45.3973 119.225 46.9547 118.819 48.256C118.414 49.536 117.774 50.5173 116.899 51.2C116.025 51.8613 114.883 52.192 113.475 52.192ZM112.355 49.536C113.187 49.536 113.881 49.3333 114.435 48.928C115.011 48.5013 115.449 47.84 115.747 46.944C116.067 46.0267 116.227 44.8533 116.227 43.424C116.227 41.6747 116.057 40.3627 115.715 39.488C115.374 38.6133 114.915 38.0267 114.339 37.728C113.763 37.4293 113.102 37.28 112.355 37.28C111.502 37.28 110.723 37.408 110.019 37.664C109.337 37.8987 108.654 38.1973 107.971 38.56V48.32C108.547 48.6187 109.198 48.896 109.923 49.152C110.649 49.408 111.459 49.536 112.355 49.536Z" fill="#F9F9F9"/>
<defs>
<filter id="filter0_f_180_415" x="110.621" y="0.0146484" width="38.3158" height="39.4209" filterUnits="userSpaceOnUse" color-interpolation-filters="sRGB">
<feFlood flood-opacity="0" result="BackgroundImageFix"/>
<feBlend mode="normal" in="SourceGraphic" in2="BackgroundImageFix" result="shape"/>
<feGaussianBlur stdDeviation="2" result="effect1_foregroundBlur_180_415"/>
</filter>
</defs>
</svg>
