<svg width="161" height="52" viewBox="0 0 161 52" fill="none" xmlns="http://www.w3.org/2000/svg">
<g filter="url(#filter0_d_143_1184)">
<path d="M12.184 43.192C11.608 43.192 10.9893 43.1707 10.328 43.128C9.688 43.1067 9.02667 43.064 8.344 43C7.68267 42.9147 7.05333 42.84 6.456 42.776C5.85867 42.6907 5.32533 42.5947 4.856 42.488V39.384C5.45333 39.4267 6.14667 39.4693 6.936 39.512C7.74667 39.5547 8.58933 39.5867 9.464 39.608C10.3387 39.6293 11.1813 39.64 11.992 39.64C12.8453 39.64 13.6027 39.5653 14.264 39.416C14.9253 39.2453 15.4373 38.9573 15.8 38.552C16.1627 38.1467 16.344 37.5707 16.344 36.824V35.704C16.344 34.872 16.1093 34.232 15.64 33.784C15.1707 33.336 14.4773 33.112 13.56 33.112H11.352C9.19733 33.112 7.53333 32.6427 6.36 31.704C5.208 30.7653 4.632 29.1547 4.632 26.872V25.656C4.632 23.3733 5.26133 21.7307 6.52 20.728C7.8 19.704 9.624 19.192 11.992 19.192C12.8027 19.192 13.6347 19.2347 14.488 19.32C15.3627 19.384 16.1947 19.4693 16.984 19.576C17.7733 19.6827 18.4453 19.8 19 19.928V23.032C18.0613 22.968 16.984 22.904 15.768 22.84C14.5733 22.776 13.464 22.744 12.44 22.744C11.6293 22.744 10.9147 22.8293 10.296 23C9.67733 23.1707 9.208 23.48 8.888 23.928C8.568 24.3547 8.408 24.9947 8.408 25.848V26.616C8.408 27.6187 8.67467 28.3227 9.208 28.728C9.76267 29.1333 10.552 29.336 11.576 29.336H14.04C15.4267 29.336 16.568 29.592 17.464 30.104C18.36 30.616 19.0213 31.32 19.448 32.216C19.896 33.0907 20.12 34.0933 20.12 35.224V36.728C20.12 38.4773 19.7787 39.8213 19.096 40.76C18.4133 41.6987 17.4747 42.3387 16.28 42.68C15.0853 43.0213 13.72 43.192 12.184 43.192ZM29.9748 43C28.7374 43 27.7241 42.8187 26.9348 42.456C26.1454 42.072 25.5694 41.4427 25.2068 40.568C24.8654 39.6933 24.7054 38.5413 24.7268 37.112L24.8548 29.048H22.1668V26.488L24.9828 25.848L25.5588 21.048H28.6628V25.848H33.0148V29.048H28.6628V37.08C28.6628 37.6347 28.7161 38.0933 28.8228 38.456C28.9294 38.7973 29.0788 39.0747 29.2708 39.288C29.4841 39.48 29.7081 39.6187 29.9427 39.704C30.1774 39.7893 30.4228 39.8427 30.6788 39.864L32.8228 40.088V43H29.9748ZM40.8823 43.192C39.3036 43.192 38.0769 42.7547 37.2023 41.88C36.3276 40.984 35.8903 39.6827 35.8903 37.976V25.848H39.8583V36.824C39.8583 37.9547 40.1143 38.712 40.6263 39.096C41.1596 39.48 41.8743 39.672 42.7703 39.672C43.5169 39.672 44.2423 39.5547 44.9463 39.32C45.6503 39.0853 46.3116 38.744 46.9303 38.296V25.848H50.8983V43H47.6663L46.9303 41.208C46.1196 41.72 45.1916 42.1787 44.1463 42.584C43.1223 42.9893 42.0343 43.192 40.8823 43.192ZM60.491 43.192C59.147 43.192 58.0163 42.904 57.099 42.328C56.1817 41.7307 55.4883 40.8027 55.019 39.544C54.571 38.264 54.347 36.6107 54.347 34.584C54.347 32.4507 54.5497 30.7333 54.955 29.432C55.3603 28.1093 56.0323 27.1493 56.971 26.552C57.931 25.9333 59.211 25.624 60.811 25.624C61.6643 25.624 62.507 25.7093 63.339 25.88C64.171 26.0507 64.8963 26.2533 65.515 26.488V18.584H69.483V43H66.187L65.515 41.336C65.1737 41.656 64.715 41.9547 64.139 42.232C63.5843 42.5093 62.987 42.744 62.347 42.936C61.7283 43.1067 61.1097 43.192 60.491 43.192ZM61.835 39.992C62.603 39.992 63.2963 39.8747 63.915 39.64C64.5337 39.384 65.067 39.128 65.515 38.872V29.336C64.9817 29.144 64.4377 28.9733 63.883 28.824C63.3283 28.6747 62.7203 28.6 62.059 28.6C61.163 28.6 60.4377 28.7707 59.883 29.112C59.3283 29.432 58.923 30.008 58.667 30.84C58.4323 31.672 58.315 32.856 58.315 34.392C58.315 35.8213 58.4323 36.952 58.667 37.784C58.9017 38.5947 59.275 39.1707 59.787 39.512C60.3203 39.832 61.003 39.992 61.835 39.992Z" fill="#272727"/>
<path d="M77.328 43C76.3253 43 75.44 42.8507 74.672 42.552C73.9253 42.232 73.3493 41.7093 72.944 40.984C72.5387 40.2373 72.336 39.2453 72.336 38.008V19.416H75.568V37.528C75.568 38.2107 75.6853 38.744 75.92 39.128C76.1547 39.4907 76.464 39.736 76.848 39.864C77.232 39.992 77.648 40.056 78.096 40.056H86.256V43H77.328ZM92.7265 43.192C91.4678 43.192 90.4225 42.8187 89.5905 42.072C88.7798 41.304 88.3745 40.248 88.3745 38.904V37.56C88.3745 36.2373 88.8225 35.16 89.7185 34.328C90.6358 33.4747 92.0118 33.048 93.8465 33.048H99.1905V31.256C99.1905 30.5947 99.0732 30.04 98.8385 29.592C98.6252 29.1227 98.2198 28.7707 97.6225 28.536C97.0252 28.3013 96.1398 28.184 94.9665 28.184H89.7185V26.296C90.4865 26.1253 91.3825 25.976 92.4065 25.848C93.4518 25.72 94.6678 25.6453 96.0545 25.624C97.4625 25.624 98.6358 25.8053 99.5745 26.168C100.535 26.5093 101.249 27.0853 101.719 27.896C102.188 28.6853 102.423 29.7413 102.423 31.064V43H99.8945L99.3505 41.112C99.2225 41.1973 98.9558 41.3573 98.5505 41.592C98.1452 41.8053 97.6225 42.04 96.9825 42.296C96.3638 42.552 95.6812 42.7653 94.9345 42.936C94.2092 43.1067 93.4732 43.192 92.7265 43.192ZM94.1985 40.856C94.5185 40.8773 94.8918 40.8453 95.3185 40.76C95.7665 40.6747 96.2038 40.5787 96.6305 40.472C97.0785 40.344 97.4838 40.216 97.8465 40.088C98.2305 39.96 98.5398 39.8533 98.7745 39.768C99.0305 39.6613 99.1692 39.5973 99.1905 39.576V34.648L94.7105 34.84C93.6012 34.904 92.8012 35.1813 92.3105 35.672C91.8412 36.1627 91.6065 36.8027 91.6065 37.592V38.36C91.6065 38.9787 91.7345 39.48 91.9905 39.864C92.2465 40.2267 92.5665 40.4827 92.9505 40.632C93.3558 40.7813 93.7718 40.856 94.1985 40.856ZM115.475 43.192C114.686 43.192 113.95 43.096 113.267 42.904C112.606 42.712 111.998 42.4773 111.443 42.2C110.91 41.9013 110.419 41.6027 109.971 41.304L109.395 43H106.771V18.584H109.971V27.32C110.761 26.8933 111.635 26.5093 112.595 26.168C113.577 25.8267 114.483 25.656 115.315 25.656C116.723 25.656 117.875 25.9547 118.771 26.552C119.667 27.128 120.329 28.0667 120.755 29.368C121.203 30.6693 121.427 32.408 121.427 34.584C121.427 36.3973 121.225 37.9547 120.819 39.256C120.414 40.536 119.774 41.5173 118.899 42.2C118.025 42.8613 116.883 43.192 115.475 43.192ZM114.355 40.536C115.187 40.536 115.881 40.3333 116.435 39.928C117.011 39.5013 117.449 38.84 117.747 37.944C118.067 37.0267 118.227 35.8533 118.227 34.424C118.227 32.6747 118.057 31.3627 117.715 30.488C117.374 29.6133 116.915 29.0267 116.339 28.728C115.763 28.4293 115.102 28.28 114.355 28.28C113.502 28.28 112.723 28.408 112.019 28.664C111.337 28.8987 110.654 29.1973 109.971 29.56V39.32C110.547 39.6187 111.198 39.896 111.923 40.152C112.649 40.408 113.459 40.536 114.355 40.536Z" fill="#272727"/>
<ellipse cx="148.242" cy="27.0561" rx="2.02104" ry="2.0947" fill="#72C3DD"/>
<ellipse cx="138.811" cy="34.0381" rx="2.02104" ry="2.0947" fill="#72C3DD"/>
<ellipse cx="154.979" cy="22.8667" rx="2.02104" ry="2.0947" fill="#72C3DD"/>
<ellipse cx="131.4" cy="5.41062" rx="2.02104" ry="2.0947" fill="#72C3DD"/>
<ellipse cx="123.316" cy="12.3935" rx="2.02104" ry="2.0947" fill="#72C3DD"/>
<ellipse cx="121.969" cy="23.5649" rx="2.02104" ry="2.0947" fill="#72C3DD"/>
<g filter="url(#filter1_f_143_1184)">
<path d="M150.437 19.7244C150.437 28.1418 143.858 34.9347 135.779 34.9347C127.7 34.9347 121.121 28.1418 121.121 19.7244C121.121 11.307 127.7 4.51416 135.779 4.51416C143.858 4.51416 150.437 11.307 150.437 19.7244Z" stroke="#70C9A3"/>
</g>
<path d="M150.437 19.7244C150.437 28.1418 143.858 34.9347 135.779 34.9347C127.7 34.9347 121.121 28.1418 121.121 19.7244C121.121 11.307 127.7 4.51416 135.779 4.51416C143.858 4.51416 150.437 11.307 150.437 19.7244Z" stroke="#70C9A3"/>
<path d="M144.473 3.00074C144.895 3.22857 145.241 3.82304 145.358 4.96361C145.472 6.0785 145.35 7.57374 144.989 9.35919C144.269 12.9228 142.624 17.527 140.216 22.3164C137.808 27.1058 135.11 31.1412 132.705 33.7947C131.5 35.1242 130.388 36.0851 129.44 36.6267C128.471 37.1807 127.803 37.2275 127.381 36.9997C126.959 36.7718 126.613 36.1774 126.496 35.0368C126.382 33.9219 126.504 32.4267 126.865 30.6412C127.585 27.0776 129.23 22.4734 131.638 17.684C134.046 12.8946 136.744 8.85922 139.149 6.20568C140.354 4.8762 141.467 3.91535 142.414 3.37375C143.383 2.81968 144.051 2.77291 144.473 3.00074Z" stroke="#70C9A3"/>
<path d="M153.72 15.4844C153.818 15.9415 153.604 16.5638 152.857 17.3492C152.126 18.1184 150.973 18.9448 149.461 19.772C146.443 21.4227 142.098 23.0203 137.144 24.1594C132.19 25.2985 127.601 25.755 124.193 25.5818C122.485 25.495 121.103 25.2514 120.127 24.8748C119.13 24.4903 118.682 24.0201 118.584 23.5629C118.486 23.1058 118.7 22.4835 119.447 21.6981C120.178 20.9289 121.331 20.1025 122.843 19.2753C125.861 17.6246 130.206 16.027 135.16 14.8879C140.114 13.7488 144.703 13.2923 148.111 13.4655C149.819 13.5523 151.201 13.7959 152.177 14.1725C153.174 14.557 153.622 15.0272 153.72 15.4844Z" stroke="#70C9A3"/>
<ellipse cx="142.6" cy="6.9824" rx="2.02104" ry="2.0947" fill="#72C3DD"/>
<ellipse cx="149.589" cy="15.8843" rx="2.02104" ry="2.0947" fill="#72C3DD"/>
<ellipse cx="128.705" cy="32.6421" rx="2.02104" ry="2.0947" fill="#72C3DD"/>
</g>
<defs>
<filter id="filter0_d_143_1184" x="0.631989" y="2.36572" width="160.368" height="48.8262" filterUnits="userSpaceOnUse" color-interpolation-filters="sRGB">
<feFlood flood-opacity="0" result="BackgroundImageFix"/>
<feColorMatrix in="SourceAlpha" type="matrix" values="0 0 0 0 0 0 0 0 0 0 0 0 0 0 0 0 0 0 127 0" result="hardAlpha"/>
<feOffset dy="4"/>
<feGaussianBlur stdDeviation="2"/>
<feComposite in2="hardAlpha" operator="out"/>
<feColorMatrix type="matrix" values="0 0 0 0 0 0 0 0 0 0 0 0 0 0 0 0 0 0 0.25 0"/>
<feBlend mode="normal" in2="BackgroundImageFix" result="effect1_dropShadow_143_1184"/>
<feBlend mode="normal" in="SourceGraphic" in2="effect1_dropShadow_143_1184" result="shape"/>
</filter>
<filter id="filter1_f_143_1184" x="116.621" y="0.0141602" width="38.3157" height="39.4204" filterUnits="userSpaceOnUse" color-interpolation-filters="sRGB">
<feFlood flood-opacity="0" result="BackgroundImageFix"/>
<feBlend mode="normal" in="SourceGraphic" in2="BackgroundImageFix" result="shape"/>
<feGaussianBlur stdDeviation="2" result="effect1_foregroundBlur_143_1184"/>
</filter>
</defs>
</svg>
